G04*
G04 #@! TF.GenerationSoftware,Altium Limited,Altium Designer,21.0.8 (223)*
G04*
G04 Layer_Color=16711935*
%FSLAX25Y25*%
%MOIN*%
G70*
G04*
G04 #@! TF.SameCoordinates,2EF03790-8CE4-4C01-AD20-2104E620BB3A*
G04*
G04*
G04 #@! TF.FilePolarity,Positive*
G04*
G01*
G75*
%ADD11C,0.00394*%
D11*
X472Y39517D02*
X487Y38522D01*
X531Y37527D01*
X605Y36534D01*
X708Y35543D01*
X841Y34556D01*
X1002Y33574D01*
X1193Y32596D01*
X1412Y31625D01*
X1661Y30661D01*
X1937Y29704D01*
X2242Y28756D01*
X2575Y27818D01*
X2936Y26890D01*
X3324Y25972D01*
X3739Y25067D01*
X4180Y24174D01*
X4648Y23295D01*
X5141Y22431D01*
X5661Y21581D01*
X6204Y20747D01*
X6773Y19929D01*
X7365Y19129D01*
X7981Y18346D01*
X8620Y17582D01*
X9281Y16838D01*
X9964Y16113D01*
X10668Y15409D01*
X11393Y14726D01*
X12138Y14065D01*
X12902Y13426D01*
X13684Y12810D01*
X14484Y12218D01*
X15302Y11649D01*
X16136Y11105D01*
X16986Y10586D01*
X17851Y10092D01*
X18730Y9625D01*
X19622Y9183D01*
X20528Y8768D01*
X21445Y8381D01*
X22373Y8020D01*
X23312Y7687D01*
X24260Y7382D01*
X25216Y7106D01*
X26180Y6857D01*
X27152Y6638D01*
X28129Y6447D01*
X29112Y6285D01*
X30099Y6153D01*
X31089Y6050D01*
X32082Y5976D01*
X33077Y5932D01*
X34072Y5917D01*
X276124D02*
X277120Y5932D01*
X278115Y5976D01*
X279108Y6050D01*
X280098Y6153D01*
X281085Y6286D01*
X282068Y6447D01*
X283045Y6638D01*
X284017Y6857D01*
X284981Y7106D01*
X285938Y7382D01*
X286885Y7687D01*
X287824Y8020D01*
X288752Y8381D01*
X289669Y8768D01*
X290575Y9183D01*
X291467Y9625D01*
X292346Y10093D01*
X293211Y10586D01*
X294061Y11105D01*
X294895Y11649D01*
X295713Y12218D01*
X296513Y12810D01*
X297295Y13426D01*
X298059Y14065D01*
X298804Y14726D01*
X299529Y15409D01*
X300233Y16113D01*
X300916Y16838D01*
X301577Y17583D01*
X302216Y18347D01*
X302832Y19129D01*
X303424Y19929D01*
X303993Y20747D01*
X304537Y21581D01*
X305055Y22431D01*
X305549Y23296D01*
X306017Y24175D01*
X306458Y25067D01*
X306873Y25973D01*
X307261Y26890D01*
X307622Y27818D01*
X307955Y28756D01*
X308260Y29704D01*
X308536Y30661D01*
X308784Y31625D01*
X309004Y32597D01*
X309195Y33574D01*
X309356Y34557D01*
X309489Y35544D01*
X309592Y36534D01*
X309665Y37527D01*
X309710Y38522D01*
X309724Y39517D01*
Y129400D02*
X309710Y130396D01*
X309665Y131391D01*
X309592Y132384D01*
X309489Y133374D01*
X309356Y134361D01*
X309195Y135344D01*
X309004Y136321D01*
X308784Y137292D01*
X308536Y138257D01*
X308260Y139213D01*
X307955Y140161D01*
X307622Y141100D01*
X307261Y142028D01*
X306873Y142945D01*
X306458Y143850D01*
X306017Y144743D01*
X305549Y145622D01*
X305055Y146487D01*
X304536Y147336D01*
X303992Y148170D01*
X303424Y148988D01*
X302832Y149788D01*
X302216Y150571D01*
X301577Y151335D01*
X300916Y152079D01*
X300233Y152804D01*
X299529Y153508D01*
X298804Y154191D01*
X298059Y154852D01*
X297295Y155491D01*
X296513Y156107D01*
X295712Y156700D01*
X294895Y157268D01*
X294061Y157812D01*
X293211Y158331D01*
X292346Y158825D01*
X291467Y159292D01*
X290575Y159734D01*
X289669Y160149D01*
X288752Y160537D01*
X287824Y160897D01*
X286885Y161230D01*
X285938Y161535D01*
X284981Y161812D01*
X284017Y162060D01*
X283045Y162279D01*
X282068Y162470D01*
X281085Y162632D01*
X280098Y162764D01*
X279108Y162867D01*
X278115Y162941D01*
X277120Y162985D01*
X276124Y163000D01*
X34072D02*
X33077Y162985D01*
X32082Y162941D01*
X31089Y162867D01*
X30099Y162764D01*
X29111Y162632D01*
X28129Y162470D01*
X27152Y162279D01*
X26180Y162060D01*
X25216Y161812D01*
X24259Y161535D01*
X23311Y161230D01*
X22373Y160897D01*
X21445Y160537D01*
X20527Y160149D01*
X19622Y159734D01*
X18730Y159292D01*
X17851Y158825D01*
X16986Y158331D01*
X16136Y157812D01*
X15302Y157268D01*
X14484Y156700D01*
X13684Y156107D01*
X12901Y155491D01*
X12138Y154852D01*
X11393Y154191D01*
X10668Y153508D01*
X9964Y152804D01*
X9281Y152079D01*
X8620Y151335D01*
X7981Y150571D01*
X7365Y149788D01*
X6773Y148988D01*
X6204Y148170D01*
X5660Y147336D01*
X5141Y146487D01*
X4648Y145622D01*
X4180Y144743D01*
X3738Y143850D01*
X3323Y142945D01*
X2936Y142028D01*
X2575Y141100D01*
X2242Y140161D01*
X1937Y139213D01*
X1661Y138257D01*
X1412Y137292D01*
X1193Y136321D01*
X1002Y135343D01*
X841Y134361D01*
X708Y133374D01*
X605Y132383D01*
X531Y131390D01*
X487Y130396D01*
X472Y129400D01*
X27362Y27016D02*
X27289Y28019D01*
X27070Y29001D01*
X26711Y29940D01*
X26219Y30817D01*
X25604Y31613D01*
X24880Y32311D01*
X24062Y32897D01*
X23167Y33357D01*
X22215Y33681D01*
X21226Y33864D01*
X20221Y33901D01*
X19221Y33791D01*
X18248Y33536D01*
X17322Y33143D01*
X16464Y32619D01*
X15690Y31976D01*
X15019Y31227D01*
X14464Y30388D01*
X14037Y29477D01*
X13747Y28514D01*
X13601Y27519D01*
Y26513D01*
X13747Y25518D01*
X14037Y24554D01*
X14464Y23644D01*
X15019Y22805D01*
X15690Y22056D01*
X16464Y21412D01*
X17322Y20888D01*
X18248Y20495D01*
X19221Y20241D01*
X20221Y20131D01*
X21226Y20167D01*
X22215Y20350D01*
X23167Y20675D01*
X24062Y21135D01*
X24880Y21720D01*
X25604Y22418D01*
X26219Y23214D01*
X26711Y24091D01*
X27070Y25031D01*
X27289Y26013D01*
X27362Y27016D01*
X296614D02*
X296541Y28019D01*
X296322Y29001D01*
X295963Y29940D01*
X295470Y30817D01*
X294856Y31613D01*
X294132Y32311D01*
X293314Y32897D01*
X292419Y33357D01*
X291467Y33681D01*
X290478Y33864D01*
X289473Y33901D01*
X288473Y33791D01*
X287500Y33536D01*
X286574Y33143D01*
X285716Y32619D01*
X284942Y31976D01*
X284271Y31227D01*
X283716Y30388D01*
X283289Y29477D01*
X282999Y28514D01*
X282853Y27519D01*
Y26513D01*
X282999Y25518D01*
X283289Y24554D01*
X283716Y23644D01*
X284271Y22805D01*
X284942Y22056D01*
X285716Y21412D01*
X286574Y20888D01*
X287500Y20495D01*
X288473Y20241D01*
X289473Y20131D01*
X290478Y20167D01*
X291467Y20350D01*
X292419Y20675D01*
X293314Y21135D01*
X294132Y21720D01*
X294856Y22418D01*
X295470Y23214D01*
X295963Y24091D01*
X296322Y25031D01*
X296541Y26013D01*
X296614Y27016D01*
X27362Y141902D02*
X27289Y142905D01*
X27070Y143886D01*
X26711Y144826D01*
X26219Y145703D01*
X25604Y146499D01*
X24880Y147197D01*
X24062Y147783D01*
X23167Y148242D01*
X22215Y148567D01*
X21226Y148750D01*
X20221Y148787D01*
X19221Y148677D01*
X18248Y148422D01*
X17322Y148029D01*
X16464Y147505D01*
X15690Y146862D01*
X15019Y146112D01*
X14464Y145273D01*
X14037Y144363D01*
X13747Y143400D01*
X13601Y142404D01*
Y141399D01*
X13747Y140403D01*
X14037Y139440D01*
X14464Y138530D01*
X15019Y137691D01*
X15690Y136942D01*
X16464Y136298D01*
X17322Y135774D01*
X18248Y135381D01*
X19221Y135126D01*
X20221Y135016D01*
X21226Y135053D01*
X22215Y135236D01*
X23167Y135561D01*
X24062Y136021D01*
X24880Y136606D01*
X25604Y137304D01*
X26219Y138100D01*
X26711Y138977D01*
X27070Y139917D01*
X27289Y140898D01*
X27362Y141902D01*
X296614Y141901D02*
X296541Y142904D01*
X296322Y143886D01*
X295963Y144825D01*
X295470Y145702D01*
X294856Y146499D01*
X294132Y147197D01*
X293314Y147782D01*
X292419Y148242D01*
X291467Y148566D01*
X290478Y148749D01*
X289473Y148786D01*
X288473Y148676D01*
X287500Y148422D01*
X286574Y148028D01*
X285716Y147504D01*
X284942Y146861D01*
X284271Y146112D01*
X283716Y145273D01*
X283289Y144362D01*
X282999Y143399D01*
X282853Y142404D01*
Y141398D01*
X282999Y140403D01*
X283289Y139440D01*
X283716Y138529D01*
X284271Y137690D01*
X284942Y136941D01*
X285716Y136297D01*
X286574Y135773D01*
X287500Y135380D01*
X288473Y135126D01*
X289473Y135016D01*
X290478Y135052D01*
X291467Y135235D01*
X292419Y135560D01*
X293314Y136020D01*
X294132Y136605D01*
X294856Y137303D01*
X295470Y138099D01*
X295963Y138976D01*
X296322Y139916D01*
X296541Y140898D01*
X296614Y141901D01*
X472Y39517D02*
Y129400D01*
X34072Y163000D02*
X276124Y163000D01*
X34072Y5917D02*
X276124D01*
X309724Y39517D02*
Y129400D01*
M02*
