G04*
G04 #@! TF.GenerationSoftware,Altium Limited,Altium Designer,21.0.8 (223)*
G04*
G04 Layer_Color=16711935*
%FSLAX25Y25*%
%MOIN*%
G70*
G04*
G04 #@! TF.SameCoordinates,2EF03790-8CE4-4C01-AD20-2104E620BB3A*
G04*
G04*
G04 #@! TF.FilePolarity,Negative*
G04*
G01*
G75*
%ADD62C,0.10142*%
%ADD63C,0.10890*%
%ADD64C,0.07386*%
%ADD65R,0.07386X0.07386*%
%ADD66O,0.06008X0.08173*%
%ADD67O,0.04827X0.07386*%
%ADD68C,0.03449*%
%ADD69O,0.08173X0.05811*%
%ADD83C,0.06205*%
D62*
X225394Y43343D02*
D03*
X274606D02*
D03*
X225394Y23658D02*
D03*
X274606D02*
D03*
D63*
X258092Y148819D02*
D03*
X52108D02*
D03*
D64*
X75100Y141732D02*
D03*
Y151732D02*
D03*
X85100Y141732D02*
D03*
Y151732D02*
D03*
X95100Y141732D02*
D03*
Y151732D02*
D03*
X105100Y141732D02*
D03*
Y151732D02*
D03*
X115100Y141732D02*
D03*
Y151732D02*
D03*
X125100Y141732D02*
D03*
Y151732D02*
D03*
X135100Y141732D02*
D03*
Y151732D02*
D03*
X145100Y141732D02*
D03*
Y151732D02*
D03*
X155100Y141732D02*
D03*
Y151732D02*
D03*
X165100Y141732D02*
D03*
Y151732D02*
D03*
X175100Y141732D02*
D03*
Y151732D02*
D03*
X185100Y141732D02*
D03*
Y151732D02*
D03*
X195100Y141732D02*
D03*
Y151732D02*
D03*
X205100Y141732D02*
D03*
Y151732D02*
D03*
X215100Y141732D02*
D03*
Y151732D02*
D03*
X225100Y141732D02*
D03*
Y151732D02*
D03*
X235100Y141732D02*
D03*
Y151732D02*
D03*
X210000Y41000D02*
D03*
Y12000D02*
D03*
D65*
Y31000D02*
D03*
Y22000D02*
D03*
D66*
X140453Y27917D02*
D03*
X169783D02*
D03*
D67*
X139862Y12957D02*
D03*
X170374D02*
D03*
D68*
X145276Y23784D02*
D03*
X164961D02*
D03*
D69*
X299000Y69500D02*
D03*
X289000Y54500D02*
D03*
X299000Y59500D02*
D03*
X289000Y64500D02*
D03*
X299000Y109500D02*
D03*
X289000Y114500D02*
D03*
Y74500D02*
D03*
X299000Y79500D02*
D03*
X289000Y84500D02*
D03*
X299000Y89500D02*
D03*
X289000Y94500D02*
D03*
X299000Y99500D02*
D03*
X289000Y104500D02*
D03*
X299000Y119500D02*
D03*
D83*
X22000Y95500D02*
D03*
X32000D02*
D03*
X42000D02*
D03*
X22000Y85500D02*
D03*
X32000D02*
D03*
X42000D02*
D03*
M02*
