M48
;Layer_Color=9474304
;FILE_FORMAT=2:5
INCH,TZ
;TYPE=PLATED
T1F00S00C0.01181
T2F00S00C0.01968
T4F00S00C0.03150
T6F00S00C0.03543
T7F00S00C0.03937
T8F00S00C0.04724
;TYPE=NON_PLATED
T9F00S00C0.03150
T10F00S00C0.10591
%
T01
X140499Y52500
X141801Y56699
X142001Y59800
X147000Y52500
X149500Y54500
X154000
X156301Y52236
X158269Y50236
X151773Y51500
X165553Y57000
X176000Y63000
X193236Y55535
X201649Y54000
X208864Y57236
X215000Y57264
X218000Y56500
X222899Y55946
X223500Y42236
X230000Y43500
X228876Y29023
X211500Y19000
X211000Y46500
X213756
X208000Y46764
X210000Y70500
X197184Y84891
X176000Y88236
X173500Y90992
Y94236
X171000Y96500
X159562Y102764
X156000Y102500
X152000
X153500Y100000
X154500Y111500
X158000
X172854Y122146
X188500Y101663
X220689Y98000
X236000Y79500
Y75550
X256179Y103479
X259500Y9401
X171000Y24000
X160500Y86542
X143361Y91910
X143861Y70756
X132992
X130236
X127480Y70775
X126460Y79807
X124500Y81744
Y84500
X115370Y81886
X101767Y80050
X90500Y80000
X86437Y82357
X87500Y90000
X84313Y99465
X72000Y98257
X61860Y99360
X44500Y99756
X41500Y104465
X27500Y105500
X27791Y89196
X13500Y87500
X6729Y96854
X6000Y119091
X6500Y136819
X46306Y142209
X36468Y118059
X72600Y118500
X76000
X79000Y117701
X78500Y86000
X78148Y73228
X68500Y75000
X63151Y80050
X58500Y78500
X54446Y86554
Y67452
X46797Y64764
X48500Y62500
X42189Y64764
X41581Y67452
X44230Y74770
X20000Y72500
X25000Y59500
X13500Y60208
X6500Y66146
X5500Y30279
X11771Y33500
X14863Y35000
X28500Y32000
X28657Y45858
Y50500
X54446Y50894
X58098Y41972
X54446Y37500
Y31500
X67000Y43000
X69450Y56500
X66000Y66000
X85000
X90592Y67007
X102023Y57523
X105112Y57411
X102000Y46500
X85592Y43547
X89000Y38000
X100069Y28048
X124500Y54535
X134216Y53207
X138513Y41868
X134018Y5760
X138500Y102500
X126500
X102263Y99737
X101767Y93486
X97108Y103000
X28500Y9000
T02
X150000Y77389
X154500Y96500
X162000Y94236
X199500Y112500
X72500Y83500
X63500Y75000
X52500Y60343
X19000Y40500
X24148Y32658
X63000Y10500
X70000Y4500
X86500Y15000
X106760Y26500
X134000Y14000
X14500Y118000
X17500Y136819
T04
X250500Y44000
Y54000
Y64000
Y74000
Y84000
Y94000
Y104000
X260500Y99000
Y89000
Y79000
Y69000
Y59000
Y49000
Y39000
T06
X166500Y10000
X176500
Y30000
X166500
T07
X144100Y129732
Y139732
X154100
Y129732
X164100
Y139732
X174100
Y129732
X184100
Y139732
X194100
Y129732
X204100
Y139732
X214100
Y129732
X134100
X124100
X114100
X104100
X94100
X84100
X74100
X64100
X54100
Y139732
X64100
X74100
X84100
X94100
X104100
X114100
X124100
X134100
T08
X187394Y14658
Y34343
X236606
Y14658
T09
X143861Y17866
X124176
T10
X237092Y136819
X31108
M30
