G04*
G04 #@! TF.GenerationSoftware,Altium Limited,Altium Designer,21.0.9 (235)*
G04*
G04 Layer_Color=16711935*
%FSLAX25Y25*%
%MOIN*%
G70*
G04*
G04 #@! TF.SameCoordinates,8AC589B9-6688-4F47-92C6-F359AE6F8F2F*
G04*
G04*
G04 #@! TF.FilePolarity,Negative*
G04*
G01*
G75*
%ADD66R,0.07386X0.07386*%
%ADD67C,0.07386*%
%ADD68O,0.08173X0.05811*%
%ADD69C,0.10142*%
%ADD70C,0.10890*%
%ADD71O,0.06008X0.08173*%
%ADD72O,0.04827X0.07386*%
%ADD73C,0.03449*%
%ADD87C,0.06205*%
D66*
X176500Y30000D02*
D03*
Y10000D02*
D03*
D67*
X166500Y30000D02*
D03*
Y10000D02*
D03*
X54100Y129732D02*
D03*
Y139732D02*
D03*
X64100Y129732D02*
D03*
Y139732D02*
D03*
X74100Y129732D02*
D03*
Y139732D02*
D03*
X84100Y129732D02*
D03*
Y139732D02*
D03*
X94100Y129732D02*
D03*
Y139732D02*
D03*
X104100Y129732D02*
D03*
Y139732D02*
D03*
X114100Y129732D02*
D03*
Y139732D02*
D03*
X124100Y129732D02*
D03*
Y139732D02*
D03*
X134100Y129732D02*
D03*
Y139732D02*
D03*
X144100Y129732D02*
D03*
Y139732D02*
D03*
X154100Y129732D02*
D03*
Y139732D02*
D03*
X164100Y129732D02*
D03*
Y139732D02*
D03*
X174100Y129732D02*
D03*
Y139732D02*
D03*
X184100Y129732D02*
D03*
Y139732D02*
D03*
X194100Y129732D02*
D03*
Y139732D02*
D03*
X204100Y129732D02*
D03*
Y139732D02*
D03*
X214100Y129732D02*
D03*
Y139732D02*
D03*
D68*
X250500Y54000D02*
D03*
X260500Y39000D02*
D03*
X250500Y44000D02*
D03*
X260500Y49000D02*
D03*
X250500Y94000D02*
D03*
X260500Y99000D02*
D03*
Y59000D02*
D03*
X250500Y64000D02*
D03*
X260500Y69000D02*
D03*
X250500Y74000D02*
D03*
X260500Y79000D02*
D03*
X250500Y84000D02*
D03*
X260500Y89000D02*
D03*
X250500Y104000D02*
D03*
D69*
X187394Y34343D02*
D03*
X236606D02*
D03*
X187394Y14658D02*
D03*
X236606D02*
D03*
D70*
X237092Y136819D02*
D03*
X31108D02*
D03*
D71*
X119353Y22000D02*
D03*
X148684D02*
D03*
D72*
X118762Y7039D02*
D03*
X149274D02*
D03*
D73*
X124176Y17866D02*
D03*
X143861D02*
D03*
D87*
X20000Y57452D02*
D03*
Y67452D02*
D03*
Y77452D02*
D03*
X30000Y57452D02*
D03*
Y67452D02*
D03*
Y77452D02*
D03*
M02*
