G04*
G04 #@! TF.GenerationSoftware,Altium Limited,Altium Designer,21.0.9 (235)*
G04*
G04 Layer_Color=65535*
%FSLAX25Y25*%
%MOIN*%
G70*
G04*
G04 #@! TF.SameCoordinates,8AC589B9-6688-4F47-92C6-F359AE6F8F2F*
G04*
G04*
G04 #@! TF.FilePolarity,Positive*
G04*
G01*
G75*
%ADD10C,0.00394*%
%ADD11C,0.03937*%
%ADD12C,0.00591*%
%ADD13C,0.02362*%
%ADD14C,0.00984*%
%ADD15C,0.01575*%
%ADD16C,0.00787*%
%ADD17R,0.06102X0.02165*%
G36*
X264513Y30601D02*
X264542D01*
X264575Y30597D01*
X264655Y30593D01*
X264746Y30583D01*
X264848Y30572D01*
X264957Y30553D01*
X265070Y30535D01*
X265190Y30506D01*
X265314Y30477D01*
X265434Y30437D01*
X265554Y30393D01*
X265671Y30339D01*
X265784Y30277D01*
X265885Y30208D01*
X265893Y30204D01*
X265907Y30189D01*
X265936Y30168D01*
X265969Y30135D01*
X266013Y30095D01*
X266060Y30048D01*
X266115Y29989D01*
X266169Y29924D01*
X266228Y29851D01*
X266282Y29771D01*
X266340Y29680D01*
X266395Y29585D01*
X266446Y29480D01*
X266493Y29367D01*
X266533Y29250D01*
X266566Y29123D01*
X265558Y28934D01*
Y28937D01*
X265554Y28948D01*
X265547Y28970D01*
X265536Y28995D01*
X265525Y29025D01*
X265507Y29061D01*
X265489Y29101D01*
X265467Y29145D01*
X265441Y29188D01*
X265412Y29236D01*
X265380Y29287D01*
X265343Y29334D01*
X265300Y29381D01*
X265256Y29429D01*
X265209Y29476D01*
X265154Y29516D01*
X265150Y29520D01*
X265139Y29527D01*
X265125Y29538D01*
X265103Y29549D01*
X265074Y29567D01*
X265037Y29585D01*
X264997Y29603D01*
X264954Y29625D01*
X264903Y29647D01*
X264848Y29665D01*
X264786Y29684D01*
X264721Y29702D01*
X264655Y29713D01*
X264579Y29724D01*
X264502Y29731D01*
X264422Y29735D01*
X264393D01*
X264357Y29731D01*
X264313Y29727D01*
X264255Y29720D01*
X264189Y29713D01*
X264120Y29698D01*
X264040Y29680D01*
X263956Y29658D01*
X263873Y29629D01*
X263782Y29596D01*
X263694Y29556D01*
X263607Y29505D01*
X263523Y29451D01*
X263439Y29385D01*
X263363Y29309D01*
X263359Y29305D01*
X263345Y29290D01*
X263327Y29265D01*
X263301Y29228D01*
X263272Y29185D01*
X263239Y29130D01*
X263203Y29068D01*
X263166Y28995D01*
X263130Y28912D01*
X263094Y28817D01*
X263061Y28715D01*
X263032Y28602D01*
X263006Y28479D01*
X262988Y28348D01*
X262973Y28206D01*
X262970Y28056D01*
Y28053D01*
Y28045D01*
Y28035D01*
Y28016D01*
Y27994D01*
X262973Y27973D01*
Y27944D01*
X262977Y27911D01*
X262981Y27834D01*
X262992Y27751D01*
X263003Y27656D01*
X263021Y27554D01*
X263039Y27445D01*
X263068Y27336D01*
X263097Y27223D01*
X263137Y27114D01*
X263181Y27005D01*
X263236Y26899D01*
X263298Y26801D01*
X263367Y26713D01*
X263370Y26710D01*
X263385Y26695D01*
X263407Y26673D01*
X263439Y26644D01*
X263479Y26611D01*
X263527Y26571D01*
X263585Y26531D01*
X263647Y26491D01*
X263720Y26448D01*
X263796Y26408D01*
X263883Y26371D01*
X263978Y26335D01*
X264076Y26306D01*
X264182Y26284D01*
X264295Y26269D01*
X264411Y26266D01*
X264444D01*
X264466Y26269D01*
X264495D01*
X264531Y26273D01*
X264568Y26276D01*
X264612Y26280D01*
X264659Y26287D01*
X264710Y26295D01*
X264815Y26316D01*
X264932Y26349D01*
X265052Y26389D01*
X265056D01*
X265067Y26397D01*
X265085Y26400D01*
X265107Y26411D01*
X265132Y26422D01*
X265165Y26437D01*
X265201Y26455D01*
X265241Y26473D01*
X265329Y26517D01*
X265420Y26568D01*
X265514Y26626D01*
X265605Y26691D01*
Y27332D01*
X264440D01*
Y28184D01*
X266632D01*
Y26175D01*
X266628Y26171D01*
X266617Y26160D01*
X266599Y26145D01*
X266574Y26124D01*
X266541Y26094D01*
X266497Y26065D01*
X266450Y26029D01*
X266395Y25989D01*
X266333Y25949D01*
X266264Y25905D01*
X266188Y25861D01*
X266104Y25814D01*
X266017Y25767D01*
X265918Y25719D01*
X265813Y25672D01*
X265704Y25629D01*
X265696Y25625D01*
X265678Y25618D01*
X265645Y25607D01*
X265598Y25592D01*
X265543Y25574D01*
X265478Y25556D01*
X265405Y25534D01*
X265325Y25512D01*
X265234Y25490D01*
X265139Y25468D01*
X265037Y25450D01*
X264932Y25432D01*
X264823Y25417D01*
X264710Y25407D01*
X264593Y25399D01*
X264477Y25396D01*
X264422D01*
X264400Y25399D01*
X264346D01*
X264277Y25407D01*
X264197Y25414D01*
X264106Y25425D01*
X264007Y25436D01*
X263902Y25454D01*
X263792Y25476D01*
X263680Y25505D01*
X263563Y25534D01*
X263443Y25574D01*
X263327Y25618D01*
X263210Y25669D01*
X263097Y25727D01*
X263090Y25730D01*
X263072Y25741D01*
X263043Y25763D01*
X263003Y25789D01*
X262952Y25822D01*
X262897Y25865D01*
X262835Y25912D01*
X262766Y25971D01*
X262697Y26033D01*
X262624Y26102D01*
X262551Y26182D01*
X262478Y26266D01*
X262406Y26357D01*
X262340Y26455D01*
X262275Y26560D01*
X262216Y26673D01*
X262213Y26680D01*
X262206Y26702D01*
X262191Y26735D01*
X262169Y26782D01*
X262147Y26841D01*
X262122Y26906D01*
X262096Y26986D01*
X262071Y27074D01*
X262042Y27168D01*
X262016Y27274D01*
X261991Y27383D01*
X261969Y27499D01*
X261951Y27623D01*
X261936Y27751D01*
X261925Y27882D01*
X261922Y28016D01*
Y28020D01*
Y28024D01*
Y28038D01*
Y28053D01*
Y28071D01*
X261925Y28093D01*
Y28147D01*
X261932Y28217D01*
X261940Y28297D01*
X261951Y28388D01*
X261962Y28486D01*
X261980Y28591D01*
X262002Y28704D01*
X262027Y28821D01*
X262060Y28937D01*
X262096Y29057D01*
X262140Y29178D01*
X262191Y29298D01*
X262249Y29414D01*
X262253Y29421D01*
X262264Y29440D01*
X262286Y29472D01*
X262311Y29516D01*
X262344Y29567D01*
X262387Y29625D01*
X262438Y29691D01*
X262493Y29760D01*
X262559Y29836D01*
X262631Y29913D01*
X262708Y29989D01*
X262795Y30069D01*
X262890Y30146D01*
X262992Y30219D01*
X263097Y30288D01*
X263214Y30353D01*
X263221Y30357D01*
X263236Y30364D01*
X263265Y30375D01*
X263301Y30393D01*
X263348Y30411D01*
X263407Y30433D01*
X263472Y30455D01*
X263545Y30481D01*
X263629Y30503D01*
X263723Y30524D01*
X263822Y30546D01*
X263927Y30564D01*
X264040Y30583D01*
X264164Y30593D01*
X264291Y30601D01*
X264422Y30604D01*
X264484D01*
X264513Y30601D01*
D02*
G37*
G36*
X251631Y27328D02*
Y27321D01*
Y27299D01*
Y27270D01*
Y27226D01*
X251628Y27172D01*
X251624Y27114D01*
X251620Y27044D01*
X251617Y26975D01*
X251613Y26899D01*
X251602Y26819D01*
X251584Y26659D01*
X251569Y26582D01*
X251555Y26506D01*
X251537Y26433D01*
X251518Y26368D01*
Y26364D01*
X251511Y26349D01*
X251504Y26324D01*
X251489Y26295D01*
X251471Y26258D01*
X251453Y26215D01*
X251427Y26167D01*
X251398Y26113D01*
X251362Y26058D01*
X251325Y26000D01*
X251282Y25942D01*
X251231Y25883D01*
X251176Y25825D01*
X251118Y25767D01*
X251052Y25712D01*
X250983Y25661D01*
X250980Y25658D01*
X250965Y25650D01*
X250943Y25636D01*
X250914Y25621D01*
X250874Y25599D01*
X250827Y25578D01*
X250772Y25552D01*
X250710Y25530D01*
X250641Y25505D01*
X250565Y25479D01*
X250481Y25458D01*
X250390Y25436D01*
X250292Y25421D01*
X250186Y25407D01*
X250077Y25399D01*
X249960Y25396D01*
X249928D01*
X249888Y25399D01*
X249837Y25403D01*
X249775Y25410D01*
X249702Y25417D01*
X249622Y25432D01*
X249538Y25447D01*
X249447Y25468D01*
X249353Y25497D01*
X249258Y25530D01*
X249160Y25570D01*
X249065Y25618D01*
X248974Y25672D01*
X248890Y25738D01*
X248810Y25811D01*
X248807Y25814D01*
X248792Y25829D01*
X248774Y25854D01*
X248748Y25887D01*
X248719Y25934D01*
X248683Y25985D01*
X248646Y26047D01*
X248610Y26120D01*
X248574Y26204D01*
X248537Y26295D01*
X248504Y26397D01*
X248472Y26506D01*
X248446Y26626D01*
X248428Y26753D01*
X248413Y26892D01*
X248410Y27041D01*
X249367Y27150D01*
Y27146D01*
Y27132D01*
X249371Y27110D01*
Y27081D01*
X249375Y27044D01*
X249378Y27001D01*
X249382Y26957D01*
X249389Y26910D01*
X249404Y26808D01*
X249425Y26706D01*
X249440Y26659D01*
X249455Y26611D01*
X249473Y26571D01*
X249491Y26535D01*
X249495Y26531D01*
X249498Y26524D01*
X249509Y26509D01*
X249524Y26491D01*
X249542Y26473D01*
X249560Y26451D01*
X249586Y26426D01*
X249618Y26400D01*
X249651Y26375D01*
X249688Y26349D01*
X249728Y26327D01*
X249775Y26309D01*
X249822Y26291D01*
X249877Y26276D01*
X249931Y26269D01*
X249993Y26265D01*
X250026D01*
X250048Y26269D01*
X250077Y26273D01*
X250110Y26276D01*
X250179Y26291D01*
X250259Y26313D01*
X250339Y26346D01*
X250376Y26368D01*
X250412Y26397D01*
X250445Y26426D01*
X250474Y26458D01*
Y26462D01*
X250481Y26469D01*
X250488Y26480D01*
X250496Y26498D01*
X250506Y26520D01*
X250517Y26553D01*
X250532Y26590D01*
X250547Y26633D01*
X250557Y26680D01*
X250572Y26739D01*
X250583Y26804D01*
X250594Y26881D01*
X250601Y26961D01*
X250608Y27052D01*
X250616Y27154D01*
Y27263D01*
Y30521D01*
X251631D01*
Y27328D01*
D02*
G37*
G36*
X261554Y25483D02*
X260447D01*
X260011Y26626D01*
X257994Y26626D01*
X257579Y25483D01*
X256502D01*
X258456Y30521D01*
X259537D01*
X261554Y25483D01*
D02*
G37*
G36*
X256363Y29669D02*
X254871D01*
Y25483D01*
X253855D01*
Y29669D01*
X252359D01*
Y30521D01*
X256363D01*
Y29669D01*
D02*
G37*
G36*
X41611Y13224D02*
X41666D01*
X41735Y13217D01*
X41815Y13213D01*
X41906Y13202D01*
X42004Y13191D01*
X42106Y13173D01*
X42215Y13155D01*
X42332Y13129D01*
X42448Y13100D01*
X42565Y13068D01*
X42681Y13027D01*
X42794Y12980D01*
X42907Y12929D01*
X42914Y12926D01*
X42932Y12915D01*
X42961Y12896D01*
X43005Y12875D01*
X43053Y12842D01*
X43107Y12805D01*
X43173Y12758D01*
X43238Y12707D01*
X43307Y12653D01*
X43384Y12587D01*
X43457Y12518D01*
X43529Y12441D01*
X43602Y12358D01*
X43671Y12270D01*
X43737Y12176D01*
X43799Y12074D01*
X43802Y12066D01*
X43813Y12048D01*
X43828Y12019D01*
X43846Y11975D01*
X43872Y11925D01*
X43897Y11863D01*
X43922Y11790D01*
X43951Y11713D01*
X43981Y11626D01*
X44006Y11531D01*
X44035Y11429D01*
X44057Y11324D01*
X44075Y11211D01*
X44090Y11095D01*
X44101Y10975D01*
X44104Y10851D01*
Y10800D01*
X44101Y10778D01*
X44097Y10723D01*
X44093Y10658D01*
X44083Y10585D01*
X44072Y10501D01*
X44057Y10407D01*
X44035Y10308D01*
X44010Y10206D01*
X43981Y10101D01*
X43941Y9995D01*
X43897Y9890D01*
X43846Y9781D01*
X43788Y9679D01*
X43719Y9580D01*
X43715Y9573D01*
X43700Y9559D01*
X43679Y9529D01*
X43646Y9497D01*
X43609Y9453D01*
X43558Y9406D01*
X43504Y9355D01*
X43438Y9296D01*
X43365Y9238D01*
X43285Y9176D01*
X43194Y9118D01*
X43100Y9060D01*
X42994Y9002D01*
X42881Y8951D01*
X42761Y8900D01*
X42634Y8860D01*
X42481Y9515D01*
X42488Y9518D01*
X42507Y9522D01*
X42532Y9533D01*
X42572Y9548D01*
X42616Y9566D01*
X42667Y9588D01*
X42725Y9617D01*
X42787Y9646D01*
X42852Y9679D01*
X42918Y9719D01*
X42983Y9759D01*
X43053Y9806D01*
X43114Y9857D01*
X43176Y9908D01*
X43231Y9966D01*
X43282Y10028D01*
X43285Y10032D01*
X43293Y10043D01*
X43304Y10061D01*
X43322Y10086D01*
X43340Y10119D01*
X43362Y10159D01*
X43384Y10206D01*
X43409Y10257D01*
X43431Y10316D01*
X43453Y10378D01*
X43475Y10447D01*
X43493Y10520D01*
X43511Y10600D01*
X43522Y10683D01*
X43529Y10771D01*
X43533Y10865D01*
Y10920D01*
X43529Y10960D01*
X43526Y11011D01*
X43518Y11069D01*
X43511Y11135D01*
X43497Y11204D01*
X43482Y11280D01*
X43464Y11357D01*
X43442Y11437D01*
X43417Y11520D01*
X43384Y11601D01*
X43344Y11681D01*
X43304Y11761D01*
X43253Y11837D01*
X43249Y11841D01*
X43242Y11855D01*
X43224Y11874D01*
X43202Y11899D01*
X43173Y11932D01*
X43140Y11968D01*
X43100Y12008D01*
X43056Y12052D01*
X43005Y12096D01*
X42950Y12143D01*
X42889Y12187D01*
X42819Y12230D01*
X42750Y12274D01*
X42674Y12314D01*
X42594Y12350D01*
X42507Y12383D01*
X42503D01*
X42485Y12391D01*
X42459Y12398D01*
X42426Y12409D01*
X42383Y12420D01*
X42332Y12434D01*
X42274Y12445D01*
X42208Y12460D01*
X42139Y12474D01*
X42062Y12489D01*
X41982Y12503D01*
X41899Y12514D01*
X41724Y12532D01*
X41633Y12536D01*
X41538Y12540D01*
X41531D01*
X41509D01*
X41476D01*
X41429Y12536D01*
X41374Y12532D01*
X41309Y12529D01*
X41236Y12525D01*
X41160Y12518D01*
X41072Y12507D01*
X40981Y12496D01*
X40796Y12460D01*
X40697Y12441D01*
X40603Y12416D01*
X40508Y12387D01*
X40417Y12354D01*
X40413Y12350D01*
X40395Y12347D01*
X40373Y12336D01*
X40341Y12318D01*
X40301Y12299D01*
X40253Y12274D01*
X40202Y12245D01*
X40148Y12212D01*
X40093Y12172D01*
X40035Y12128D01*
X39973Y12081D01*
X39915Y12030D01*
X39856Y11972D01*
X39802Y11910D01*
X39751Y11845D01*
X39704Y11772D01*
X39700Y11768D01*
X39693Y11754D01*
X39682Y11732D01*
X39667Y11703D01*
X39649Y11666D01*
X39627Y11622D01*
X39609Y11571D01*
X39587Y11517D01*
X39562Y11455D01*
X39544Y11389D01*
X39522Y11317D01*
X39503Y11244D01*
X39489Y11164D01*
X39478Y11084D01*
X39471Y11000D01*
X39467Y10916D01*
Y10891D01*
X39471Y10862D01*
Y10822D01*
X39478Y10774D01*
X39485Y10720D01*
X39492Y10654D01*
X39507Y10589D01*
X39525Y10516D01*
X39547Y10439D01*
X39573Y10359D01*
X39602Y10279D01*
X39638Y10199D01*
X39682Y10119D01*
X39733Y10043D01*
X39787Y9966D01*
X39791Y9963D01*
X39802Y9948D01*
X39820Y9930D01*
X39849Y9904D01*
X39882Y9872D01*
X39922Y9835D01*
X39973Y9795D01*
X40028Y9755D01*
X40093Y9711D01*
X40162Y9668D01*
X40242Y9620D01*
X40330Y9580D01*
X40421Y9537D01*
X40523Y9500D01*
X40628Y9468D01*
X40745Y9438D01*
X40577Y8772D01*
X40574D01*
X40566Y8776D01*
X40555Y8780D01*
X40541Y8783D01*
X40523Y8787D01*
X40497Y8794D01*
X40443Y8812D01*
X40373Y8838D01*
X40297Y8867D01*
X40210Y8903D01*
X40115Y8947D01*
X40013Y8994D01*
X39911Y9049D01*
X39809Y9111D01*
X39704Y9180D01*
X39602Y9256D01*
X39503Y9340D01*
X39413Y9431D01*
X39325Y9529D01*
X39322Y9537D01*
X39307Y9555D01*
X39285Y9584D01*
X39260Y9628D01*
X39227Y9679D01*
X39190Y9744D01*
X39150Y9817D01*
X39110Y9901D01*
X39070Y9992D01*
X39030Y10094D01*
X38994Y10203D01*
X38961Y10319D01*
X38936Y10447D01*
X38914Y10578D01*
X38899Y10716D01*
X38896Y10862D01*
Y10916D01*
X38899Y10942D01*
Y10996D01*
X38906Y11066D01*
X38914Y11146D01*
X38925Y11237D01*
X38936Y11331D01*
X38954Y11437D01*
X38976Y11542D01*
X39005Y11655D01*
X39034Y11764D01*
X39074Y11874D01*
X39118Y11983D01*
X39169Y12088D01*
X39227Y12187D01*
X39230Y12194D01*
X39241Y12208D01*
X39263Y12234D01*
X39289Y12270D01*
X39322Y12314D01*
X39365Y12361D01*
X39413Y12416D01*
X39471Y12474D01*
X39536Y12536D01*
X39605Y12598D01*
X39685Y12664D01*
X39769Y12729D01*
X39864Y12791D01*
X39962Y12853D01*
X40071Y12911D01*
X40184Y12962D01*
X40188D01*
X40191Y12966D01*
X40213Y12973D01*
X40246Y12987D01*
X40293Y13002D01*
X40352Y13024D01*
X40421Y13046D01*
X40501Y13071D01*
X40588Y13093D01*
X40687Y13118D01*
X40792Y13144D01*
X40901Y13166D01*
X41021Y13188D01*
X41142Y13202D01*
X41269Y13217D01*
X41400Y13224D01*
X41535Y13228D01*
X41538D01*
X41546D01*
X41556D01*
X41571D01*
X41589D01*
X41611Y13224D01*
D02*
G37*
G36*
X17019Y43689D02*
X15315Y42571D01*
X17019Y41450D01*
Y40231D01*
X14398Y41974D01*
X11981Y40391D01*
Y41581D01*
X13492Y42578D01*
X11981Y43579D01*
Y44759D01*
X14394Y43175D01*
X17019Y44912D01*
Y43689D01*
D02*
G37*
G36*
X12833Y38600D02*
X17019D01*
Y37584D01*
X12833D01*
Y36088D01*
X11981D01*
Y40092D01*
X12833D01*
Y38600D01*
D02*
G37*
G36*
X162791Y17974D02*
X164163D01*
Y17395D01*
X162791D01*
Y16023D01*
X162209D01*
Y17395D01*
X160837D01*
Y17974D01*
X162209D01*
Y19354D01*
X162791D01*
Y17974D01*
D02*
G37*
G36*
X159965Y40067D02*
X160915Y39718D01*
X160921D01*
X160937Y39707D01*
X160959Y39701D01*
X160992Y39685D01*
X161035Y39669D01*
X161079Y39647D01*
X161188Y39603D01*
X161303Y39543D01*
X161428Y39483D01*
X161543Y39417D01*
X161647Y39352D01*
X161658Y39346D01*
X161690Y39325D01*
X161734Y39286D01*
X161789Y39237D01*
X161854Y39183D01*
X161925Y39117D01*
X161991Y39041D01*
X162051Y38959D01*
X162056Y38948D01*
X162078Y38921D01*
X162106Y38871D01*
X162138Y38806D01*
X162182Y38724D01*
X162220Y38631D01*
X162258Y38527D01*
X162297Y38407D01*
Y38402D01*
X162302Y38391D01*
X162308Y38375D01*
X162313Y38347D01*
X162318Y38320D01*
X162324Y38282D01*
X162335Y38238D01*
X162340Y38194D01*
X162362Y38080D01*
X162373Y37954D01*
X162384Y37818D01*
X162389Y37665D01*
Y37594D01*
X162384Y37556D01*
Y37463D01*
X162379Y37408D01*
X162368Y37282D01*
X162351Y37146D01*
X162329Y36999D01*
X162297Y36851D01*
X161166Y36720D01*
Y36726D01*
X161172Y36737D01*
Y36753D01*
X161177Y36780D01*
X161183Y36808D01*
X161188Y36840D01*
X161199Y36922D01*
X161215Y37020D01*
X161226Y37119D01*
X161232Y37228D01*
X161237Y37332D01*
Y37381D01*
X161232Y37414D01*
X161226Y37457D01*
X161221Y37501D01*
X161199Y37616D01*
X161166Y37736D01*
X161112Y37856D01*
X161074Y37916D01*
X161035Y37976D01*
X160992Y38025D01*
X160937Y38074D01*
X160932Y38080D01*
X160921Y38085D01*
X160904Y38096D01*
X160882Y38113D01*
X160855Y38134D01*
X160817Y38156D01*
X160779Y38183D01*
X160730Y38211D01*
X160626Y38271D01*
X160495Y38336D01*
X160347Y38396D01*
X160184Y38445D01*
X154691Y36371D01*
Y37910D01*
X158584Y39215D01*
X154691Y40499D01*
Y42000D01*
X159965Y40067D01*
D02*
G37*
G36*
X160167Y34285D02*
X159365D01*
X159370Y34280D01*
X159386Y34269D01*
X159408Y34252D01*
X159441Y34225D01*
X159479Y34192D01*
X159523Y34154D01*
X159572Y34110D01*
X159627Y34061D01*
X159741Y33941D01*
X159856Y33805D01*
X159965Y33652D01*
X160020Y33575D01*
X160064Y33488D01*
Y33482D01*
X160074Y33466D01*
X160085Y33444D01*
X160102Y33411D01*
X160118Y33368D01*
X160134Y33319D01*
X160156Y33264D01*
X160178Y33204D01*
X160222Y33067D01*
X160255Y32909D01*
X160282Y32745D01*
X160293Y32571D01*
Y32527D01*
X160287Y32478D01*
X160282Y32412D01*
X160271Y32330D01*
X160255Y32237D01*
X160227Y32128D01*
X160200Y32014D01*
X160156Y31894D01*
X160107Y31762D01*
X160047Y31626D01*
X159971Y31490D01*
X159883Y31353D01*
X159785Y31216D01*
X159665Y31085D01*
X159534Y30954D01*
X159523Y30949D01*
X159501Y30927D01*
X159452Y30894D01*
X159392Y30851D01*
X159315Y30801D01*
X159223Y30742D01*
X159113Y30681D01*
X158982Y30621D01*
X158840Y30556D01*
X158682Y30496D01*
X158507Y30441D01*
X158322Y30387D01*
X158114Y30343D01*
X157896Y30310D01*
X157661Y30288D01*
X157415Y30283D01*
X157410D01*
X157399D01*
X157383D01*
X157355D01*
X157323D01*
X157284Y30288D01*
X157235D01*
X157186Y30294D01*
X157071Y30305D01*
X156935Y30316D01*
X156788Y30337D01*
X156629Y30365D01*
X156460Y30397D01*
X156285Y30441D01*
X156110Y30496D01*
X155936Y30556D01*
X155761Y30632D01*
X155597Y30720D01*
X155439Y30818D01*
X155297Y30933D01*
X155286Y30938D01*
X155264Y30965D01*
X155231Y30998D01*
X155182Y31053D01*
X155128Y31113D01*
X155068Y31195D01*
X155002Y31282D01*
X154931Y31386D01*
X154866Y31500D01*
X154800Y31626D01*
X154740Y31762D01*
X154685Y31910D01*
X154636Y32068D01*
X154604Y32232D01*
X154576Y32407D01*
X154571Y32592D01*
Y32631D01*
X154576Y32680D01*
X154582Y32745D01*
X154593Y32827D01*
X154609Y32920D01*
X154636Y33024D01*
X154664Y33133D01*
X154707Y33259D01*
X154756Y33384D01*
X154816Y33515D01*
X154893Y33652D01*
X154980Y33788D01*
X155084Y33919D01*
X155199Y34050D01*
X155335Y34181D01*
X152611D01*
Y35628D01*
X160167D01*
Y34285D01*
D02*
G37*
G36*
Y27962D02*
X158524Y26865D01*
X158513Y26859D01*
X158485Y26838D01*
X158442Y26810D01*
X158382Y26772D01*
X158311Y26723D01*
X158234Y26668D01*
X158147Y26608D01*
X158054Y26543D01*
X157869Y26406D01*
X157776Y26341D01*
X157683Y26275D01*
X157601Y26215D01*
X157530Y26155D01*
X157465Y26101D01*
X157415Y26057D01*
X157404Y26046D01*
X157377Y26019D01*
X157339Y25975D01*
X157290Y25920D01*
X157235Y25849D01*
X157186Y25773D01*
X157137Y25691D01*
X157099Y25598D01*
X157093Y25587D01*
X157088Y25571D01*
X157082Y25554D01*
X157077Y25527D01*
X157071Y25494D01*
X157061Y25456D01*
X157055Y25412D01*
X157044Y25363D01*
X157039Y25309D01*
X157033Y25243D01*
X157022Y25172D01*
X157017Y25101D01*
Y25019D01*
X157011Y24927D01*
Y24528D01*
X160167D01*
Y23005D01*
X152611D01*
Y26324D01*
X152616Y26406D01*
Y26510D01*
X152621Y26625D01*
X152627Y26750D01*
X152638Y26887D01*
X152649Y27029D01*
X152660Y27171D01*
X152698Y27466D01*
X152720Y27602D01*
X152747Y27733D01*
X152780Y27859D01*
X152818Y27968D01*
Y27973D01*
X152829Y27990D01*
X152840Y28022D01*
X152856Y28061D01*
X152878Y28104D01*
X152911Y28159D01*
X152944Y28219D01*
X152982Y28284D01*
X153031Y28356D01*
X153086Y28426D01*
X153146Y28497D01*
X153211Y28574D01*
X153282Y28645D01*
X153364Y28716D01*
X153451Y28781D01*
X153544Y28847D01*
X153550Y28852D01*
X153566Y28863D01*
X153599Y28880D01*
X153637Y28901D01*
X153686Y28923D01*
X153741Y28951D01*
X153812Y28983D01*
X153888Y29016D01*
X153970Y29043D01*
X154063Y29076D01*
X154161Y29103D01*
X154265Y29131D01*
X154374Y29147D01*
X154489Y29164D01*
X154604Y29175D01*
X154729Y29180D01*
X154740D01*
X154767D01*
X154811Y29175D01*
X154871D01*
X154942Y29164D01*
X155029Y29153D01*
X155122Y29136D01*
X155226Y29120D01*
X155335Y29092D01*
X155450Y29060D01*
X155564Y29016D01*
X155684Y28967D01*
X155799Y28912D01*
X155919Y28841D01*
X156028Y28765D01*
X156138Y28678D01*
X156143Y28672D01*
X156160Y28656D01*
X156187Y28623D01*
X156225Y28585D01*
X156269Y28530D01*
X156318Y28470D01*
X156372Y28394D01*
X156433Y28306D01*
X156493Y28203D01*
X156547Y28093D01*
X156607Y27973D01*
X156662Y27837D01*
X156717Y27689D01*
X156760Y27531D01*
X156798Y27362D01*
X156831Y27182D01*
X156837Y27187D01*
X156842Y27203D01*
X156858Y27231D01*
X156880Y27264D01*
X156908Y27307D01*
X156940Y27356D01*
X156979Y27411D01*
X157017Y27471D01*
X157115Y27602D01*
X157224Y27738D01*
X157344Y27875D01*
X157470Y28001D01*
X157475Y28006D01*
X157486Y28017D01*
X157508Y28033D01*
X157536Y28061D01*
X157574Y28093D01*
X157623Y28132D01*
X157683Y28175D01*
X157754Y28230D01*
X157830Y28290D01*
X157918Y28356D01*
X158021Y28426D01*
X158131Y28503D01*
X158256Y28585D01*
X158387Y28672D01*
X158535Y28770D01*
X158693Y28869D01*
X160167Y29791D01*
Y27962D01*
D02*
G37*
G36*
X160215Y19053D02*
X157425D01*
X157414D01*
X157387D01*
X157344D01*
X157283D01*
X157212Y19048D01*
X157131D01*
X157043D01*
X156950Y19042D01*
X156759Y19031D01*
X156661Y19020D01*
X156568Y19009D01*
X156481Y18999D01*
X156404Y18988D01*
X156333Y18971D01*
X156279Y18955D01*
X156273D01*
X156268Y18949D01*
X156235Y18938D01*
X156186Y18917D01*
X156131Y18884D01*
X156066Y18840D01*
X155995Y18791D01*
X155935Y18725D01*
X155875Y18654D01*
X155869Y18644D01*
X155853Y18616D01*
X155826Y18573D01*
X155798Y18512D01*
X155777Y18442D01*
X155749Y18354D01*
X155733Y18256D01*
X155727Y18152D01*
Y18114D01*
X155733Y18087D01*
Y18054D01*
X155738Y18016D01*
X155755Y17923D01*
X155777Y17819D01*
X155815Y17705D01*
X155864Y17584D01*
X155935Y17470D01*
Y17464D01*
X155946Y17459D01*
X155957Y17442D01*
X155973Y17421D01*
X156017Y17371D01*
X156082Y17306D01*
X156159Y17240D01*
X156257Y17169D01*
X156366Y17109D01*
X156486Y17060D01*
X156492D01*
X156503Y17055D01*
X156525Y17049D01*
X156552Y17044D01*
X156590Y17033D01*
X156639Y17027D01*
X156699Y17017D01*
X156770Y17006D01*
X156852Y16995D01*
X156939Y16984D01*
X157043Y16978D01*
X157158Y16967D01*
X157283Y16962D01*
X157425Y16957D01*
X157578Y16951D01*
X157742D01*
X160215D01*
Y15504D01*
X154739D01*
Y16847D01*
X155547D01*
X155536Y16858D01*
X155509Y16880D01*
X155460Y16918D01*
X155400Y16978D01*
X155334Y17049D01*
X155252Y17131D01*
X155171Y17229D01*
X155083Y17344D01*
X154996Y17464D01*
X154914Y17601D01*
X154832Y17754D01*
X154766Y17912D01*
X154706Y18081D01*
X154657Y18261D01*
X154630Y18452D01*
X154619Y18654D01*
Y18736D01*
X154624Y18780D01*
X154630Y18829D01*
X154635Y18884D01*
X154641Y18944D01*
X154663Y19080D01*
X154690Y19228D01*
X154734Y19375D01*
X154794Y19528D01*
Y19534D01*
X154799Y19545D01*
X154810Y19566D01*
X154826Y19594D01*
X154843Y19626D01*
X154865Y19665D01*
X154914Y19752D01*
X154979Y19850D01*
X155056Y19949D01*
X155138Y20047D01*
X155236Y20129D01*
X155242D01*
X155247Y20140D01*
X155263Y20151D01*
X155285Y20162D01*
X155340Y20200D01*
X155411Y20243D01*
X155503Y20292D01*
X155602Y20336D01*
X155717Y20380D01*
X155842Y20418D01*
X155848D01*
X155858Y20424D01*
X155875D01*
X155902Y20429D01*
X155940Y20440D01*
X155984Y20445D01*
X156033Y20451D01*
X156093Y20462D01*
X156159Y20467D01*
X156230Y20473D01*
X156312Y20484D01*
X156399Y20489D01*
X156492Y20494D01*
X156596D01*
X156705Y20500D01*
X156819D01*
X160215D01*
Y19053D01*
D02*
G37*
G36*
Y12676D02*
X159397D01*
X159402Y12670D01*
X159418Y12659D01*
X159440Y12643D01*
X159467Y12621D01*
X159506Y12594D01*
X159549Y12556D01*
X159599Y12512D01*
X159648Y12463D01*
X159702Y12408D01*
X159762Y12348D01*
X159877Y12217D01*
X159986Y12059D01*
X160090Y11884D01*
Y11879D01*
X160101Y11862D01*
X160112Y11835D01*
X160128Y11802D01*
X160150Y11753D01*
X160172Y11704D01*
X160194Y11644D01*
X160215Y11573D01*
X160237Y11502D01*
X160259Y11420D01*
X160303Y11245D01*
X160330Y11060D01*
X160336Y10956D01*
X160341Y10858D01*
Y10803D01*
X160336Y10765D01*
Y10716D01*
X160330Y10661D01*
X160319Y10596D01*
X160308Y10525D01*
X160281Y10372D01*
X160237Y10208D01*
X160177Y10033D01*
X160144Y9946D01*
X160101Y9864D01*
X160095Y9859D01*
X160090Y9848D01*
X160074Y9820D01*
X160057Y9793D01*
X160030Y9755D01*
X160003Y9717D01*
X159926Y9624D01*
X159828Y9520D01*
X159713Y9411D01*
X159577Y9312D01*
X159506Y9269D01*
X159424Y9230D01*
X159418D01*
X159402Y9225D01*
X159380Y9214D01*
X159342Y9203D01*
X159298Y9187D01*
X159244Y9171D01*
X159178Y9154D01*
X159107Y9138D01*
X159025Y9116D01*
X158932Y9099D01*
X158834Y9083D01*
X158725Y9072D01*
X158605Y9056D01*
X158479Y9050D01*
X158348Y9039D01*
X158206D01*
X154739D01*
Y10486D01*
X157256D01*
X157262D01*
X157267D01*
X157283D01*
X157305D01*
X157365D01*
X157442D01*
X157529D01*
X157633Y10492D01*
X157748D01*
X157862Y10497D01*
X158108Y10503D01*
X158228Y10514D01*
X158337Y10519D01*
X158441Y10530D01*
X158534Y10536D01*
X158610Y10552D01*
X158670Y10563D01*
X158676D01*
X158681Y10568D01*
X158714Y10579D01*
X158763Y10601D01*
X158818Y10628D01*
X158889Y10672D01*
X158954Y10721D01*
X159025Y10781D01*
X159085Y10852D01*
X159091Y10863D01*
X159107Y10890D01*
X159134Y10939D01*
X159156Y11000D01*
X159184Y11076D01*
X159211Y11169D01*
X159227Y11278D01*
X159233Y11393D01*
Y11431D01*
X159227Y11458D01*
Y11485D01*
X159222Y11524D01*
X159205Y11617D01*
X159184Y11720D01*
X159145Y11829D01*
X159096Y11944D01*
X159031Y12059D01*
Y12064D01*
X159020Y12070D01*
X159009Y12086D01*
X158993Y12108D01*
X158949Y12157D01*
X158894Y12223D01*
X158818Y12288D01*
X158736Y12354D01*
X158638Y12414D01*
X158528Y12463D01*
X158523D01*
X158512Y12468D01*
X158490Y12474D01*
X158463Y12479D01*
X158425Y12490D01*
X158370Y12496D01*
X158310Y12507D01*
X158228Y12517D01*
X158141Y12528D01*
X158037Y12539D01*
X157917Y12545D01*
X157775Y12556D01*
X157622Y12561D01*
X157453Y12567D01*
X157262Y12572D01*
X157049D01*
X154739D01*
Y14019D01*
X160215D01*
Y12676D01*
D02*
G37*
G36*
Y6424D02*
X158572Y5327D01*
X158561Y5321D01*
X158534Y5299D01*
X158490Y5272D01*
X158430Y5234D01*
X158359Y5185D01*
X158283Y5130D01*
X158195Y5070D01*
X158103Y5004D01*
X157917Y4868D01*
X157824Y4803D01*
X157731Y4737D01*
X157649Y4677D01*
X157578Y4617D01*
X157513Y4562D01*
X157464Y4519D01*
X157453Y4508D01*
X157425Y4480D01*
X157387Y4437D01*
X157338Y4382D01*
X157283Y4311D01*
X157234Y4235D01*
X157185Y4153D01*
X157147Y4060D01*
X157141Y4049D01*
X157136Y4033D01*
X157131Y4016D01*
X157125Y3989D01*
X157120Y3956D01*
X157109Y3918D01*
X157103Y3874D01*
X157092Y3825D01*
X157087Y3771D01*
X157081Y3705D01*
X157071Y3634D01*
X157065Y3563D01*
Y3481D01*
X157060Y3388D01*
Y2990D01*
X160215D01*
Y1466D01*
X152659D01*
Y4786D01*
X152664Y4868D01*
Y4972D01*
X152670Y5086D01*
X152675Y5212D01*
X152686Y5348D01*
X152697Y5490D01*
X152708Y5632D01*
X152746Y5927D01*
X152768Y6064D01*
X152795Y6195D01*
X152828Y6320D01*
X152866Y6430D01*
Y6435D01*
X152877Y6451D01*
X152888Y6484D01*
X152905Y6522D01*
X152926Y6566D01*
X152959Y6621D01*
X152992Y6681D01*
X153030Y6746D01*
X153079Y6817D01*
X153134Y6888D01*
X153194Y6959D01*
X153260Y7036D01*
X153331Y7107D01*
X153412Y7178D01*
X153500Y7243D01*
X153593Y7309D01*
X153598Y7314D01*
X153614Y7325D01*
X153647Y7341D01*
X153685Y7363D01*
X153735Y7385D01*
X153789Y7412D01*
X153860Y7445D01*
X153937Y7478D01*
X154018Y7505D01*
X154111Y7538D01*
X154209Y7565D01*
X154313Y7593D01*
X154422Y7609D01*
X154537Y7625D01*
X154652Y7636D01*
X154777Y7642D01*
X154788D01*
X154816D01*
X154859Y7636D01*
X154919D01*
X154990Y7625D01*
X155078Y7614D01*
X155171Y7598D01*
X155274Y7582D01*
X155383Y7554D01*
X155498Y7522D01*
X155613Y7478D01*
X155733Y7429D01*
X155848Y7374D01*
X155968Y7303D01*
X156077Y7227D01*
X156186Y7139D01*
X156192Y7134D01*
X156208Y7118D01*
X156235Y7085D01*
X156273Y7047D01*
X156317Y6992D01*
X156366Y6932D01*
X156421Y6855D01*
X156481Y6768D01*
X156541Y6664D01*
X156596Y6555D01*
X156656Y6435D01*
X156710Y6299D01*
X156765Y6151D01*
X156808Y5993D01*
X156847Y5824D01*
X156879Y5643D01*
X156885Y5649D01*
X156890Y5665D01*
X156907Y5692D01*
X156929Y5725D01*
X156956Y5769D01*
X156989Y5818D01*
X157027Y5873D01*
X157065Y5933D01*
X157163Y6064D01*
X157273Y6200D01*
X157393Y6337D01*
X157518Y6462D01*
X157524Y6468D01*
X157535Y6479D01*
X157556Y6495D01*
X157584Y6522D01*
X157622Y6555D01*
X157671Y6593D01*
X157731Y6637D01*
X157802Y6692D01*
X157879Y6752D01*
X157966Y6817D01*
X158070Y6888D01*
X158179Y6965D01*
X158305Y7047D01*
X158436Y7134D01*
X158583Y7232D01*
X158741Y7331D01*
X160215Y8253D01*
Y6424D01*
D02*
G37*
G36*
X249822Y8773D02*
X249915D01*
X250013Y8767D01*
X250123Y8762D01*
X250237Y8751D01*
X250352Y8740D01*
X250592Y8718D01*
X250707Y8702D01*
X250821Y8680D01*
X250925Y8658D01*
X251024Y8631D01*
X251029D01*
X251051Y8620D01*
X251089Y8609D01*
X251133Y8593D01*
X251193Y8571D01*
X251258Y8544D01*
X251335Y8511D01*
X251417Y8473D01*
X251504Y8423D01*
X251597Y8374D01*
X251690Y8314D01*
X251788Y8254D01*
X251881Y8183D01*
X251979Y8107D01*
X252072Y8025D01*
X252165Y7932D01*
X252170Y7927D01*
X252186Y7910D01*
X252208Y7883D01*
X252241Y7845D01*
X252285Y7796D01*
X252328Y7735D01*
X252378Y7670D01*
X252432Y7593D01*
X252492Y7506D01*
X252547Y7413D01*
X252607Y7315D01*
X252667Y7206D01*
X252727Y7091D01*
X252782Y6971D01*
X252836Y6840D01*
X252885Y6709D01*
X252891Y6703D01*
X252896Y6676D01*
X252907Y6638D01*
X252924Y6578D01*
X252945Y6507D01*
X252967Y6425D01*
X252989Y6327D01*
X253011Y6218D01*
X253033Y6092D01*
X253055Y5956D01*
X253077Y5808D01*
X253098Y5650D01*
X253115Y5486D01*
X253126Y5306D01*
X253137Y5120D01*
Y4924D01*
Y4913D01*
Y4880D01*
Y4831D01*
X253131Y4765D01*
Y4689D01*
X253126Y4591D01*
X253115Y4487D01*
X253109Y4372D01*
X253093Y4252D01*
X253082Y4121D01*
X253038Y3853D01*
X252978Y3580D01*
X252945Y3449D01*
X252902Y3318D01*
X252896Y3307D01*
X252891Y3280D01*
X252874Y3236D01*
X252847Y3182D01*
X252820Y3111D01*
X252787Y3029D01*
X252744Y2942D01*
X252694Y2843D01*
X252640Y2740D01*
X252580Y2630D01*
X252514Y2521D01*
X252443Y2406D01*
X252361Y2297D01*
X252279Y2188D01*
X252192Y2079D01*
X252094Y1981D01*
X252088Y1975D01*
X252077Y1964D01*
X252050Y1942D01*
X252023Y1915D01*
X251979Y1882D01*
X251930Y1850D01*
X251875Y1806D01*
X251810Y1762D01*
X251739Y1713D01*
X251657Y1664D01*
X251570Y1615D01*
X251477Y1566D01*
X251373Y1517D01*
X251264Y1467D01*
X251149Y1424D01*
X251024Y1380D01*
X251018D01*
X251002Y1375D01*
X250969Y1364D01*
X250931Y1358D01*
X250882Y1342D01*
X250816Y1331D01*
X250745Y1314D01*
X250663Y1304D01*
X250570Y1287D01*
X250472Y1271D01*
X250358Y1260D01*
X250237Y1249D01*
X250106Y1238D01*
X249970Y1227D01*
X249822Y1222D01*
X246803D01*
Y8778D01*
X249741D01*
X249822Y8773D01*
D02*
G37*
G36*
X241922Y2499D02*
X245716D01*
Y1222D01*
X240398D01*
Y8713D01*
X241922D01*
Y2499D01*
D02*
G37*
G36*
X10019Y43900D02*
X8315Y42782D01*
X10019Y41661D01*
Y40442D01*
X7398Y42185D01*
X4981Y40602D01*
Y41792D01*
X6492Y42790D01*
X4981Y43791D01*
Y44970D01*
X7394Y43387D01*
X10019Y45123D01*
Y43900D01*
D02*
G37*
G36*
Y39182D02*
X8923Y38451D01*
X8916Y38447D01*
X8898Y38432D01*
X8869Y38414D01*
X8829Y38389D01*
X8781Y38356D01*
X8730Y38320D01*
X8672Y38280D01*
X8610Y38236D01*
X8486Y38145D01*
X8425Y38101D01*
X8363Y38058D01*
X8308Y38017D01*
X8261Y37977D01*
X8217Y37941D01*
X8184Y37912D01*
X8177Y37905D01*
X8159Y37887D01*
X8133Y37857D01*
X8101Y37821D01*
X8064Y37774D01*
X8031Y37723D01*
X7999Y37668D01*
X7973Y37606D01*
X7970Y37599D01*
X7966Y37588D01*
X7962Y37577D01*
X7959Y37559D01*
X7955Y37537D01*
X7948Y37512D01*
X7944Y37482D01*
X7937Y37450D01*
X7933Y37413D01*
X7930Y37370D01*
X7922Y37322D01*
X7919Y37275D01*
Y37220D01*
X7915Y37159D01*
Y36893D01*
X10019D01*
Y35877D01*
X4981D01*
Y38090D01*
X4985Y38145D01*
Y38214D01*
X4988Y38291D01*
X4992Y38374D01*
X4999Y38465D01*
X5007Y38560D01*
X5014Y38655D01*
X5039Y38851D01*
X5054Y38942D01*
X5072Y39029D01*
X5094Y39113D01*
X5119Y39186D01*
Y39190D01*
X5127Y39200D01*
X5134Y39222D01*
X5145Y39248D01*
X5159Y39277D01*
X5181Y39313D01*
X5203Y39353D01*
X5229Y39397D01*
X5261Y39444D01*
X5298Y39492D01*
X5338Y39539D01*
X5381Y39590D01*
X5429Y39637D01*
X5483Y39685D01*
X5542Y39728D01*
X5604Y39772D01*
X5607Y39776D01*
X5618Y39783D01*
X5640Y39794D01*
X5665Y39808D01*
X5698Y39823D01*
X5735Y39841D01*
X5782Y39863D01*
X5833Y39885D01*
X5887Y39903D01*
X5949Y39925D01*
X6015Y39943D01*
X6084Y39961D01*
X6157Y39972D01*
X6233Y39983D01*
X6310Y39990D01*
X6393Y39994D01*
X6401D01*
X6419D01*
X6448Y39990D01*
X6488D01*
X6535Y39983D01*
X6594Y39976D01*
X6656Y39965D01*
X6725Y39954D01*
X6797Y39936D01*
X6874Y39914D01*
X6950Y39885D01*
X7030Y39852D01*
X7107Y39816D01*
X7187Y39768D01*
X7260Y39717D01*
X7333Y39659D01*
X7336Y39656D01*
X7347Y39645D01*
X7365Y39623D01*
X7391Y39597D01*
X7420Y39561D01*
X7453Y39521D01*
X7489Y39470D01*
X7529Y39412D01*
X7569Y39342D01*
X7606Y39270D01*
X7646Y39190D01*
X7682Y39099D01*
X7718Y39000D01*
X7747Y38895D01*
X7773Y38782D01*
X7795Y38662D01*
X7799Y38665D01*
X7802Y38676D01*
X7813Y38695D01*
X7828Y38716D01*
X7846Y38745D01*
X7868Y38778D01*
X7893Y38815D01*
X7919Y38855D01*
X7984Y38942D01*
X8057Y39033D01*
X8137Y39124D01*
X8221Y39208D01*
X8224Y39211D01*
X8232Y39219D01*
X8246Y39230D01*
X8264Y39248D01*
X8290Y39270D01*
X8323Y39295D01*
X8363Y39324D01*
X8410Y39361D01*
X8461Y39401D01*
X8519Y39444D01*
X8588Y39492D01*
X8661Y39543D01*
X8745Y39597D01*
X8832Y39656D01*
X8930Y39721D01*
X9036Y39787D01*
X10019Y40402D01*
Y39182D01*
D02*
G37*
G36*
X26419Y99633D02*
X26426Y99622D01*
X26433Y99603D01*
X26441Y99578D01*
X26452Y99545D01*
X26463Y99505D01*
X26477Y99462D01*
X26488Y99414D01*
X26502Y99360D01*
X26517Y99301D01*
X26528Y99239D01*
X26539Y99170D01*
X26553Y99028D01*
X26561Y98872D01*
Y98828D01*
X26557Y98806D01*
Y98781D01*
X26550Y98715D01*
X26539Y98643D01*
X26524Y98566D01*
X26502Y98482D01*
X26473Y98402D01*
Y98399D01*
X26470Y98395D01*
X26466Y98384D01*
X26459Y98370D01*
X26437Y98333D01*
X26412Y98286D01*
X26379Y98235D01*
X26342Y98188D01*
X26299Y98137D01*
X26248Y98097D01*
X26240Y98093D01*
X26222Y98082D01*
X26190Y98064D01*
X26149Y98042D01*
X26095Y98020D01*
X26029Y97998D01*
X25953Y97976D01*
X25869Y97962D01*
X25866D01*
X25862D01*
X25851Y97958D01*
X25836D01*
X25815Y97955D01*
X25789D01*
X25756Y97951D01*
X25720Y97947D01*
X25680Y97944D01*
X25629D01*
X25574Y97940D01*
X25512Y97936D01*
X25443D01*
X25363Y97933D01*
X25280D01*
X25188D01*
X23594D01*
Y97489D01*
X22826D01*
Y97933D01*
X22102D01*
X21534Y98897D01*
X22826D01*
Y99556D01*
X23594D01*
Y98897D01*
X25068D01*
X25072D01*
X25087D01*
X25108D01*
X25141D01*
X25174D01*
X25214D01*
X25301Y98901D01*
X25392D01*
X25436Y98905D01*
X25480D01*
X25516Y98908D01*
X25549D01*
X25574Y98912D01*
X25592Y98916D01*
X25596D01*
X25603Y98919D01*
X25618Y98927D01*
X25636Y98934D01*
X25654Y98945D01*
X25673Y98959D01*
X25694Y98978D01*
X25713Y98999D01*
X25716Y99003D01*
X25720Y99010D01*
X25727Y99025D01*
X25734Y99047D01*
X25745Y99068D01*
X25753Y99098D01*
X25756Y99130D01*
X25760Y99163D01*
Y99189D01*
X25756Y99218D01*
X25749Y99261D01*
X25738Y99316D01*
X25720Y99385D01*
X25698Y99462D01*
X25669Y99553D01*
X26419Y99636D01*
Y99633D01*
D02*
G37*
G36*
X24934Y94682D02*
X24937D01*
X24952D01*
X24974Y94686D01*
X25003D01*
X25039Y94690D01*
X25083Y94697D01*
X25127Y94704D01*
X25177Y94715D01*
X25287Y94740D01*
X25341Y94759D01*
X25396Y94780D01*
X25451Y94810D01*
X25505Y94839D01*
X25556Y94871D01*
X25603Y94912D01*
X25607Y94915D01*
X25614Y94923D01*
X25625Y94933D01*
X25640Y94952D01*
X25658Y94973D01*
X25680Y95003D01*
X25698Y95032D01*
X25720Y95068D01*
X25745Y95104D01*
X25764Y95148D01*
X25804Y95243D01*
X25818Y95297D01*
X25829Y95352D01*
X25836Y95410D01*
X25840Y95472D01*
Y95494D01*
X25836Y95512D01*
X25833Y95552D01*
X25826Y95607D01*
X25811Y95665D01*
X25789Y95731D01*
X25760Y95793D01*
X25720Y95854D01*
Y95858D01*
X25713Y95862D01*
X25694Y95880D01*
X25665Y95909D01*
X25622Y95942D01*
X25567Y95982D01*
X25498Y96022D01*
X25418Y96058D01*
X25319Y96091D01*
X25480Y97052D01*
X25487Y97048D01*
X25501Y97045D01*
X25531Y97034D01*
X25567Y97016D01*
X25611Y96997D01*
X25662Y96972D01*
X25720Y96943D01*
X25778Y96906D01*
X25844Y96870D01*
X25909Y96826D01*
X25978Y96775D01*
X26044Y96724D01*
X26109Y96666D01*
X26175Y96604D01*
X26233Y96535D01*
X26288Y96462D01*
X26291Y96459D01*
X26299Y96444D01*
X26313Y96422D01*
X26331Y96389D01*
X26350Y96349D01*
X26375Y96306D01*
X26397Y96248D01*
X26422Y96186D01*
X26448Y96116D01*
X26473Y96044D01*
X26499Y95960D01*
X26517Y95872D01*
X26535Y95778D01*
X26550Y95676D01*
X26557Y95570D01*
X26561Y95461D01*
Y95421D01*
X26557Y95396D01*
Y95370D01*
X26553Y95341D01*
X26550Y95305D01*
X26542Y95225D01*
X26528Y95137D01*
X26510Y95035D01*
X26484Y94926D01*
X26452Y94813D01*
X26408Y94697D01*
X26360Y94580D01*
X26299Y94464D01*
X26230Y94351D01*
X26146Y94245D01*
X26051Y94143D01*
X25942Y94052D01*
X25935Y94049D01*
X25920Y94038D01*
X25891Y94020D01*
X25851Y93998D01*
X25804Y93969D01*
X25745Y93940D01*
X25676Y93907D01*
X25596Y93874D01*
X25509Y93838D01*
X25414Y93805D01*
X25312Y93776D01*
X25199Y93750D01*
X25083Y93725D01*
X24956Y93707D01*
X24821Y93696D01*
X24682Y93692D01*
X24679D01*
X24672D01*
X24661D01*
X24643D01*
X24621Y93696D01*
X24595D01*
X24566D01*
X24533Y93700D01*
X24457Y93707D01*
X24370Y93718D01*
X24271Y93732D01*
X24166Y93750D01*
X24053Y93776D01*
X23936Y93809D01*
X23820Y93845D01*
X23700Y93892D01*
X23583Y93947D01*
X23470Y94009D01*
X23365Y94082D01*
X23263Y94165D01*
X23256Y94173D01*
X23241Y94187D01*
X23216Y94213D01*
X23183Y94249D01*
X23143Y94296D01*
X23099Y94355D01*
X23052Y94420D01*
X23005Y94493D01*
X22957Y94577D01*
X22910Y94668D01*
X22866Y94766D01*
X22826Y94871D01*
X22793Y94984D01*
X22768Y95104D01*
X22753Y95232D01*
X22746Y95367D01*
Y95403D01*
X22750Y95421D01*
Y95443D01*
X22753Y95501D01*
X22761Y95570D01*
X22775Y95647D01*
X22790Y95738D01*
X22812Y95833D01*
X22841Y95931D01*
X22877Y96036D01*
X22921Y96142D01*
X22972Y96251D01*
X23034Y96357D01*
X23106Y96459D01*
X23190Y96557D01*
X23285Y96648D01*
X23292Y96652D01*
X23310Y96670D01*
X23343Y96692D01*
X23387Y96721D01*
X23445Y96757D01*
X23514Y96797D01*
X23598Y96837D01*
X23692Y96881D01*
X23802Y96925D01*
X23925Y96968D01*
X24060Y97005D01*
X24209Y97041D01*
X24370Y97066D01*
X24544Y97088D01*
X24734Y97099D01*
X24934Y97103D01*
Y94682D01*
D02*
G37*
G36*
X25385Y93124D02*
X25421Y93121D01*
X25465Y93113D01*
X25516Y93106D01*
X25571Y93092D01*
X25633Y93077D01*
X25698Y93051D01*
X25767Y93026D01*
X25840Y92990D01*
X25913Y92950D01*
X25986Y92902D01*
X26058Y92844D01*
X26131Y92778D01*
X26200Y92706D01*
X26204Y92702D01*
X26215Y92687D01*
X26233Y92662D01*
X26255Y92629D01*
X26284Y92582D01*
X26313Y92531D01*
X26346Y92466D01*
X26379Y92393D01*
X26415Y92313D01*
X26448Y92218D01*
X26477Y92120D01*
X26502Y92007D01*
X26528Y91887D01*
X26546Y91756D01*
X26557Y91617D01*
X26561Y91468D01*
Y91435D01*
X26557Y91395D01*
Y91344D01*
X26550Y91282D01*
X26546Y91210D01*
X26535Y91130D01*
X26524Y91042D01*
X26506Y90948D01*
X26488Y90853D01*
X26463Y90755D01*
X26433Y90653D01*
X26397Y90558D01*
X26357Y90460D01*
X26313Y90369D01*
X26259Y90285D01*
X26255Y90281D01*
X26244Y90267D01*
X26226Y90245D01*
X26204Y90216D01*
X26171Y90180D01*
X26135Y90140D01*
X26091Y90100D01*
X26044Y90052D01*
X25986Y90005D01*
X25924Y89957D01*
X25858Y89910D01*
X25785Y89863D01*
X25705Y89823D01*
X25622Y89783D01*
X25531Y89750D01*
X25436Y89721D01*
X25287Y90689D01*
X25290D01*
X25298Y90693D01*
X25312Y90697D01*
X25334Y90700D01*
X25356Y90707D01*
X25385Y90718D01*
X25447Y90744D01*
X25516Y90776D01*
X25589Y90817D01*
X25654Y90871D01*
X25716Y90937D01*
Y90940D01*
X25723Y90944D01*
X25731Y90955D01*
X25738Y90973D01*
X25749Y90991D01*
X25764Y91013D01*
X25774Y91042D01*
X25789Y91075D01*
X25804Y91111D01*
X25815Y91151D01*
X25829Y91195D01*
X25840Y91242D01*
X25847Y91293D01*
X25855Y91348D01*
X25862Y91406D01*
Y91505D01*
X25858Y91530D01*
Y91563D01*
X25855Y91596D01*
X25851Y91636D01*
X25844Y91679D01*
X25829Y91770D01*
X25804Y91865D01*
X25771Y91952D01*
X25749Y91996D01*
X25727Y92032D01*
X25723Y92040D01*
X25709Y92054D01*
X25687Y92072D01*
X25658Y92098D01*
X25622Y92120D01*
X25578Y92141D01*
X25527Y92156D01*
X25469Y92160D01*
X25465D01*
X25451D01*
X25429Y92156D01*
X25403Y92153D01*
X25378Y92141D01*
X25345Y92131D01*
X25316Y92112D01*
X25287Y92091D01*
X25283Y92087D01*
X25276Y92076D01*
X25261Y92054D01*
X25243Y92021D01*
X25225Y91981D01*
X25203Y91923D01*
X25192Y91890D01*
X25181Y91854D01*
X25170Y91810D01*
X25159Y91767D01*
Y91763D01*
X25156Y91752D01*
X25152Y91738D01*
X25148Y91716D01*
X25141Y91690D01*
X25134Y91657D01*
X25127Y91621D01*
X25116Y91581D01*
X25105Y91534D01*
X25094Y91486D01*
X25065Y91381D01*
X25036Y91264D01*
X25003Y91144D01*
X24970Y91017D01*
X24930Y90893D01*
X24894Y90769D01*
X24854Y90649D01*
X24810Y90540D01*
X24770Y90438D01*
X24752Y90394D01*
X24730Y90354D01*
X24708Y90318D01*
X24690Y90285D01*
X24686Y90281D01*
X24675Y90267D01*
X24661Y90245D01*
X24635Y90220D01*
X24606Y90187D01*
X24570Y90150D01*
X24526Y90110D01*
X24475Y90070D01*
X24420Y90030D01*
X24359Y89990D01*
X24293Y89954D01*
X24217Y89921D01*
X24140Y89896D01*
X24053Y89874D01*
X23962Y89859D01*
X23867Y89856D01*
X23860D01*
X23845D01*
X23820Y89859D01*
X23787Y89863D01*
X23747Y89867D01*
X23700Y89874D01*
X23649Y89888D01*
X23591Y89903D01*
X23529Y89921D01*
X23463Y89947D01*
X23398Y89976D01*
X23332Y90012D01*
X23263Y90056D01*
X23197Y90103D01*
X23132Y90161D01*
X23070Y90227D01*
X23066Y90231D01*
X23055Y90245D01*
X23041Y90267D01*
X23019Y90300D01*
X22994Y90340D01*
X22968Y90387D01*
X22939Y90445D01*
X22906Y90514D01*
X22877Y90591D01*
X22848Y90675D01*
X22822Y90769D01*
X22797Y90875D01*
X22775Y90988D01*
X22761Y91111D01*
X22750Y91246D01*
X22746Y91388D01*
Y91461D01*
X22750Y91512D01*
X22753Y91574D01*
X22761Y91643D01*
X22768Y91723D01*
X22775Y91810D01*
X22790Y91898D01*
X22808Y91989D01*
X22826Y92083D01*
X22852Y92174D01*
X22877Y92265D01*
X22914Y92349D01*
X22950Y92429D01*
X22994Y92502D01*
X22997Y92506D01*
X23005Y92516D01*
X23019Y92538D01*
X23037Y92560D01*
X23066Y92589D01*
X23096Y92626D01*
X23132Y92662D01*
X23176Y92702D01*
X23223Y92742D01*
X23278Y92786D01*
X23336Y92826D01*
X23401Y92866D01*
X23470Y92906D01*
X23547Y92942D01*
X23627Y92975D01*
X23714Y93004D01*
X23882Y92094D01*
X23878D01*
X23871Y92091D01*
X23860Y92087D01*
X23845Y92083D01*
X23809Y92065D01*
X23762Y92043D01*
X23711Y92010D01*
X23656Y91974D01*
X23605Y91927D01*
X23558Y91869D01*
X23554Y91861D01*
X23547Y91850D01*
X23539Y91839D01*
X23532Y91821D01*
X23521Y91803D01*
X23499Y91752D01*
X23478Y91686D01*
X23460Y91606D01*
X23445Y91512D01*
X23441Y91406D01*
Y91344D01*
X23445Y91312D01*
X23449Y91275D01*
Y91239D01*
X23456Y91195D01*
X23467Y91104D01*
X23489Y91013D01*
X23514Y90929D01*
X23532Y90893D01*
X23550Y90860D01*
X23554Y90857D01*
X23565Y90842D01*
X23580Y90828D01*
X23601Y90806D01*
X23630Y90788D01*
X23663Y90769D01*
X23703Y90755D01*
X23747Y90751D01*
X23751D01*
X23765D01*
X23783Y90755D01*
X23805Y90762D01*
X23834Y90773D01*
X23864Y90791D01*
X23893Y90813D01*
X23922Y90846D01*
X23925Y90853D01*
X23933Y90864D01*
X23940Y90878D01*
X23947Y90900D01*
X23962Y90929D01*
X23976Y90962D01*
X23991Y91006D01*
X24009Y91061D01*
X24027Y91122D01*
X24053Y91195D01*
X24075Y91279D01*
X24100Y91377D01*
X24129Y91486D01*
X24158Y91606D01*
X24177Y91676D01*
X24191Y91745D01*
Y91748D01*
X24195Y91752D01*
Y91763D01*
X24198Y91777D01*
X24209Y91818D01*
X24224Y91869D01*
X24238Y91934D01*
X24260Y92007D01*
X24282Y92083D01*
X24311Y92171D01*
X24373Y92345D01*
X24409Y92436D01*
X24446Y92524D01*
X24486Y92611D01*
X24530Y92687D01*
X24573Y92760D01*
X24621Y92822D01*
X24624Y92826D01*
X24632Y92837D01*
X24646Y92851D01*
X24668Y92870D01*
X24693Y92895D01*
X24726Y92921D01*
X24763Y92946D01*
X24806Y92975D01*
X24857Y93004D01*
X24908Y93030D01*
X24966Y93059D01*
X25032Y93081D01*
X25101Y93099D01*
X25174Y93113D01*
X25254Y93124D01*
X25338Y93128D01*
X25345D01*
X25359D01*
X25385Y93124D01*
D02*
G37*
G36*
X24934Y86856D02*
X24937D01*
X24952D01*
X24974Y86860D01*
X25003D01*
X25039Y86863D01*
X25083Y86871D01*
X25127Y86878D01*
X25177Y86889D01*
X25287Y86914D01*
X25341Y86933D01*
X25396Y86954D01*
X25451Y86984D01*
X25505Y87013D01*
X25556Y87046D01*
X25603Y87086D01*
X25607Y87089D01*
X25614Y87097D01*
X25625Y87107D01*
X25640Y87126D01*
X25658Y87147D01*
X25680Y87177D01*
X25698Y87206D01*
X25720Y87242D01*
X25745Y87278D01*
X25764Y87322D01*
X25804Y87417D01*
X25818Y87471D01*
X25829Y87526D01*
X25836Y87584D01*
X25840Y87646D01*
Y87668D01*
X25836Y87686D01*
X25833Y87726D01*
X25826Y87781D01*
X25811Y87839D01*
X25789Y87905D01*
X25760Y87967D01*
X25720Y88028D01*
Y88032D01*
X25713Y88036D01*
X25694Y88054D01*
X25665Y88083D01*
X25622Y88116D01*
X25567Y88156D01*
X25498Y88196D01*
X25418Y88232D01*
X25319Y88265D01*
X25480Y89226D01*
X25487Y89222D01*
X25501Y89219D01*
X25531Y89208D01*
X25567Y89189D01*
X25611Y89171D01*
X25662Y89146D01*
X25720Y89117D01*
X25778Y89080D01*
X25844Y89044D01*
X25909Y89000D01*
X25978Y88949D01*
X26044Y88898D01*
X26109Y88840D01*
X26175Y88778D01*
X26233Y88709D01*
X26288Y88636D01*
X26291Y88633D01*
X26299Y88618D01*
X26313Y88596D01*
X26331Y88563D01*
X26350Y88523D01*
X26375Y88480D01*
X26397Y88421D01*
X26422Y88360D01*
X26448Y88290D01*
X26473Y88218D01*
X26499Y88134D01*
X26517Y88046D01*
X26535Y87952D01*
X26550Y87850D01*
X26557Y87744D01*
X26561Y87635D01*
Y87595D01*
X26557Y87570D01*
Y87544D01*
X26553Y87515D01*
X26550Y87479D01*
X26542Y87399D01*
X26528Y87311D01*
X26510Y87209D01*
X26484Y87100D01*
X26452Y86987D01*
X26408Y86871D01*
X26360Y86754D01*
X26299Y86638D01*
X26230Y86525D01*
X26146Y86419D01*
X26051Y86317D01*
X25942Y86226D01*
X25935Y86223D01*
X25920Y86212D01*
X25891Y86194D01*
X25851Y86172D01*
X25804Y86143D01*
X25745Y86114D01*
X25676Y86081D01*
X25596Y86048D01*
X25509Y86012D01*
X25414Y85979D01*
X25312Y85950D01*
X25199Y85924D01*
X25083Y85899D01*
X24956Y85881D01*
X24821Y85870D01*
X24682Y85866D01*
X24679D01*
X24672D01*
X24661D01*
X24643D01*
X24621Y85870D01*
X24595D01*
X24566D01*
X24533Y85874D01*
X24457Y85881D01*
X24370Y85892D01*
X24271Y85906D01*
X24166Y85924D01*
X24053Y85950D01*
X23936Y85983D01*
X23820Y86019D01*
X23700Y86066D01*
X23583Y86121D01*
X23470Y86183D01*
X23365Y86256D01*
X23263Y86339D01*
X23256Y86347D01*
X23241Y86361D01*
X23216Y86387D01*
X23183Y86423D01*
X23143Y86470D01*
X23099Y86529D01*
X23052Y86594D01*
X23005Y86667D01*
X22957Y86751D01*
X22910Y86842D01*
X22866Y86940D01*
X22826Y87046D01*
X22793Y87158D01*
X22768Y87278D01*
X22753Y87406D01*
X22746Y87541D01*
Y87577D01*
X22750Y87595D01*
Y87617D01*
X22753Y87675D01*
X22761Y87744D01*
X22775Y87821D01*
X22790Y87912D01*
X22812Y88007D01*
X22841Y88105D01*
X22877Y88210D01*
X22921Y88316D01*
X22972Y88425D01*
X23034Y88531D01*
X23106Y88633D01*
X23190Y88731D01*
X23285Y88822D01*
X23292Y88826D01*
X23310Y88844D01*
X23343Y88866D01*
X23387Y88895D01*
X23445Y88931D01*
X23514Y88971D01*
X23598Y89011D01*
X23692Y89055D01*
X23802Y89099D01*
X23925Y89142D01*
X24060Y89179D01*
X24209Y89215D01*
X24370Y89240D01*
X24544Y89262D01*
X24734Y89273D01*
X24934Y89277D01*
Y86856D01*
D02*
G37*
G36*
X26477Y84385D02*
X25381Y83653D01*
X25374Y83649D01*
X25356Y83635D01*
X25327Y83617D01*
X25287Y83591D01*
X25239Y83558D01*
X25188Y83522D01*
X25130Y83482D01*
X25068Y83438D01*
X24945Y83347D01*
X24883Y83304D01*
X24821Y83260D01*
X24766Y83220D01*
X24719Y83180D01*
X24675Y83144D01*
X24643Y83114D01*
X24635Y83107D01*
X24617Y83089D01*
X24591Y83060D01*
X24559Y83023D01*
X24522Y82976D01*
X24490Y82925D01*
X24457Y82871D01*
X24431Y82809D01*
X24428Y82801D01*
X24424Y82790D01*
X24420Y82780D01*
X24417Y82761D01*
X24413Y82739D01*
X24406Y82714D01*
X24402Y82685D01*
X24395Y82652D01*
X24391Y82616D01*
X24388Y82572D01*
X24380Y82525D01*
X24377Y82477D01*
Y82423D01*
X24373Y82361D01*
Y82095D01*
X26477D01*
Y81080D01*
X21439D01*
Y83293D01*
X21443Y83347D01*
Y83416D01*
X21447Y83493D01*
X21450Y83577D01*
X21457Y83668D01*
X21465Y83762D01*
X21472Y83857D01*
X21497Y84053D01*
X21512Y84145D01*
X21530Y84232D01*
X21552Y84316D01*
X21578Y84388D01*
Y84392D01*
X21585Y84403D01*
X21592Y84425D01*
X21603Y84450D01*
X21618Y84479D01*
X21640Y84516D01*
X21661Y84556D01*
X21687Y84600D01*
X21720Y84647D01*
X21756Y84694D01*
X21796Y84741D01*
X21840Y84792D01*
X21887Y84840D01*
X21942Y84887D01*
X22000Y84931D01*
X22062Y84974D01*
X22065Y84978D01*
X22076Y84985D01*
X22098Y84996D01*
X22124Y85011D01*
X22156Y85025D01*
X22193Y85044D01*
X22240Y85065D01*
X22291Y85087D01*
X22346Y85105D01*
X22408Y85127D01*
X22473Y85145D01*
X22542Y85164D01*
X22615Y85175D01*
X22691Y85185D01*
X22768Y85193D01*
X22852Y85196D01*
X22859D01*
X22877D01*
X22906Y85193D01*
X22946D01*
X22994Y85185D01*
X23052Y85178D01*
X23114Y85167D01*
X23183Y85156D01*
X23256Y85138D01*
X23332Y85116D01*
X23408Y85087D01*
X23489Y85054D01*
X23565Y85018D01*
X23645Y84971D01*
X23718Y84920D01*
X23791Y84861D01*
X23794Y84858D01*
X23805Y84847D01*
X23823Y84825D01*
X23849Y84800D01*
X23878Y84763D01*
X23911Y84723D01*
X23947Y84672D01*
X23987Y84614D01*
X24027Y84545D01*
X24064Y84472D01*
X24104Y84392D01*
X24140Y84301D01*
X24177Y84203D01*
X24206Y84097D01*
X24231Y83984D01*
X24253Y83864D01*
X24257Y83868D01*
X24260Y83879D01*
X24271Y83897D01*
X24286Y83919D01*
X24304Y83948D01*
X24326Y83981D01*
X24351Y84017D01*
X24377Y84057D01*
X24442Y84145D01*
X24515Y84236D01*
X24595Y84326D01*
X24679Y84410D01*
X24682Y84414D01*
X24690Y84421D01*
X24704Y84432D01*
X24723Y84450D01*
X24748Y84472D01*
X24781Y84497D01*
X24821Y84527D01*
X24868Y84563D01*
X24919Y84603D01*
X24977Y84647D01*
X25047Y84694D01*
X25119Y84745D01*
X25203Y84800D01*
X25290Y84858D01*
X25389Y84923D01*
X25494Y84989D01*
X26477Y85604D01*
Y84385D01*
D02*
G37*
G36*
X25134Y78615D02*
X24169D01*
Y80512D01*
X25134D01*
Y78615D01*
D02*
G37*
G36*
X26477Y76959D02*
X25381Y76227D01*
X25374Y76224D01*
X25356Y76209D01*
X25327Y76191D01*
X25287Y76166D01*
X25239Y76133D01*
X25188Y76096D01*
X25130Y76056D01*
X25068Y76013D01*
X24945Y75922D01*
X24883Y75878D01*
X24821Y75834D01*
X24766Y75794D01*
X24719Y75754D01*
X24675Y75718D01*
X24643Y75689D01*
X24635Y75682D01*
X24617Y75663D01*
X24591Y75634D01*
X24559Y75598D01*
X24522Y75550D01*
X24490Y75499D01*
X24457Y75445D01*
X24431Y75383D01*
X24428Y75376D01*
X24424Y75365D01*
X24420Y75354D01*
X24417Y75336D01*
X24413Y75314D01*
X24406Y75288D01*
X24402Y75259D01*
X24395Y75226D01*
X24391Y75190D01*
X24388Y75146D01*
X24380Y75099D01*
X24377Y75052D01*
Y74997D01*
X24373Y74935D01*
Y74669D01*
X26477D01*
Y73654D01*
X21439D01*
Y75867D01*
X21443Y75922D01*
Y75991D01*
X21447Y76067D01*
X21450Y76151D01*
X21457Y76242D01*
X21465Y76337D01*
X21472Y76431D01*
X21497Y76628D01*
X21512Y76719D01*
X21530Y76806D01*
X21552Y76890D01*
X21578Y76963D01*
Y76966D01*
X21585Y76977D01*
X21592Y76999D01*
X21603Y77025D01*
X21618Y77054D01*
X21640Y77090D01*
X21661Y77130D01*
X21687Y77174D01*
X21720Y77221D01*
X21756Y77268D01*
X21796Y77316D01*
X21840Y77367D01*
X21887Y77414D01*
X21942Y77461D01*
X22000Y77505D01*
X22062Y77549D01*
X22065Y77552D01*
X22076Y77560D01*
X22098Y77571D01*
X22124Y77585D01*
X22156Y77600D01*
X22193Y77618D01*
X22240Y77640D01*
X22291Y77662D01*
X22346Y77680D01*
X22408Y77702D01*
X22473Y77720D01*
X22542Y77738D01*
X22615Y77749D01*
X22691Y77760D01*
X22768Y77767D01*
X22852Y77771D01*
X22859D01*
X22877D01*
X22906Y77767D01*
X22946D01*
X22994Y77760D01*
X23052Y77753D01*
X23114Y77742D01*
X23183Y77731D01*
X23256Y77713D01*
X23332Y77691D01*
X23408Y77662D01*
X23489Y77629D01*
X23565Y77592D01*
X23645Y77545D01*
X23718Y77494D01*
X23791Y77436D01*
X23794Y77432D01*
X23805Y77421D01*
X23823Y77399D01*
X23849Y77374D01*
X23878Y77338D01*
X23911Y77298D01*
X23947Y77247D01*
X23987Y77188D01*
X24027Y77119D01*
X24064Y77047D01*
X24104Y76966D01*
X24140Y76875D01*
X24177Y76777D01*
X24206Y76671D01*
X24231Y76559D01*
X24253Y76439D01*
X24257Y76442D01*
X24260Y76453D01*
X24271Y76471D01*
X24286Y76493D01*
X24304Y76522D01*
X24326Y76555D01*
X24351Y76591D01*
X24377Y76631D01*
X24442Y76719D01*
X24515Y76810D01*
X24595Y76901D01*
X24679Y76985D01*
X24682Y76988D01*
X24690Y76995D01*
X24704Y77006D01*
X24723Y77025D01*
X24748Y77047D01*
X24781Y77072D01*
X24821Y77101D01*
X24868Y77138D01*
X24919Y77178D01*
X24977Y77221D01*
X25047Y77268D01*
X25119Y77320D01*
X25203Y77374D01*
X25290Y77432D01*
X25389Y77498D01*
X25494Y77563D01*
X26477Y78179D01*
Y76959D01*
D02*
G37*
G36*
Y71339D02*
Y70243D01*
X21439Y68445D01*
Y69544D01*
X25167Y70822D01*
X21439Y72052D01*
Y73133D01*
X26477Y71339D01*
D02*
G37*
G36*
Y67309D02*
X25334Y66873D01*
Y64856D01*
X26477Y64441D01*
Y63364D01*
X21439Y65318D01*
Y66400D01*
X26477Y68416D01*
Y67309D01*
D02*
G37*
G36*
X162898Y22474D02*
X164270D01*
Y21895D01*
X162898D01*
Y20523D01*
X162315D01*
Y21895D01*
X160943D01*
Y22474D01*
X162315D01*
Y23854D01*
X162898D01*
Y22474D01*
D02*
G37*
%LPC*%
G36*
X258984Y29345D02*
X258303Y27478D01*
X259683D01*
X258984Y29345D01*
D02*
G37*
G36*
X157454Y34187D02*
X157448D01*
X157443D01*
X157410D01*
X157366D01*
X157301Y34181D01*
X157224Y34176D01*
X157131Y34170D01*
X157033Y34159D01*
X156929Y34143D01*
X156706Y34105D01*
X156591Y34078D01*
X156482Y34039D01*
X156372Y34001D01*
X156269Y33957D01*
X156176Y33903D01*
X156094Y33843D01*
X156089Y33837D01*
X156078Y33826D01*
X156056Y33810D01*
X156028Y33783D01*
X155996Y33750D01*
X155963Y33706D01*
X155925Y33663D01*
X155887Y33608D01*
X155848Y33548D01*
X155810Y33482D01*
X155777Y33411D01*
X155745Y33335D01*
X155717Y33253D01*
X155695Y33166D01*
X155684Y33073D01*
X155679Y32975D01*
Y32926D01*
X155684Y32887D01*
X155690Y32844D01*
X155701Y32794D01*
X155712Y32734D01*
X155728Y32674D01*
X155750Y32609D01*
X155783Y32538D01*
X155816Y32467D01*
X155854Y32396D01*
X155903Y32319D01*
X155957Y32248D01*
X156023Y32177D01*
X156094Y32112D01*
X156099Y32107D01*
X156110Y32096D01*
X156138Y32079D01*
X156170Y32057D01*
X156214Y32030D01*
X156269Y32003D01*
X156329Y31970D01*
X156400Y31943D01*
X156482Y31910D01*
X156574Y31877D01*
X156673Y31850D01*
X156782Y31823D01*
X156902Y31801D01*
X157033Y31784D01*
X157170Y31773D01*
X157317Y31768D01*
X157328D01*
X157355D01*
X157399D01*
X157459Y31773D01*
X157530D01*
X157612Y31779D01*
X157705Y31790D01*
X157803Y31801D01*
X158010Y31828D01*
X158218Y31872D01*
X158322Y31899D01*
X158414Y31932D01*
X158502Y31964D01*
X158584Y32008D01*
X158589Y32014D01*
X158606Y32025D01*
X158633Y32046D01*
X158671Y32074D01*
X158715Y32107D01*
X158764Y32150D01*
X158813Y32205D01*
X158862Y32259D01*
X158917Y32325D01*
X158966Y32401D01*
X159015Y32483D01*
X159059Y32571D01*
X159092Y32663D01*
X159124Y32762D01*
X159141Y32871D01*
X159146Y32985D01*
Y33007D01*
X159141Y33035D01*
Y33067D01*
X159135Y33111D01*
X159124Y33160D01*
X159113Y33215D01*
X159092Y33280D01*
X159070Y33340D01*
X159042Y33411D01*
X159010Y33482D01*
X158966Y33553D01*
X158922Y33624D01*
X158862Y33695D01*
X158802Y33766D01*
X158726Y33832D01*
X158720Y33837D01*
X158704Y33848D01*
X158682Y33865D01*
X158644Y33886D01*
X158600Y33914D01*
X158546Y33946D01*
X158480Y33974D01*
X158409Y34012D01*
X158322Y34045D01*
X158229Y34072D01*
X158125Y34105D01*
X158010Y34132D01*
X157885Y34154D01*
X157748Y34170D01*
X157606Y34181D01*
X157454Y34187D01*
D02*
G37*
G36*
X154827Y27607D02*
X154822D01*
X154811D01*
X154789D01*
X154762Y27602D01*
X154729D01*
X154696Y27597D01*
X154609Y27580D01*
X154511Y27558D01*
X154407Y27520D01*
X154309Y27471D01*
X154216Y27400D01*
X154210D01*
X154205Y27389D01*
X154178Y27362D01*
X154139Y27318D01*
X154090Y27253D01*
X154041Y27171D01*
X153992Y27072D01*
X153948Y26958D01*
X153916Y26827D01*
Y26805D01*
X153910Y26783D01*
Y26756D01*
X153905Y26717D01*
Y26674D01*
X153899Y26619D01*
Y26472D01*
X153894Y26384D01*
Y26281D01*
X153888Y26160D01*
Y24528D01*
X155805D01*
Y25828D01*
X155799Y25915D01*
Y26122D01*
X155794Y26237D01*
X155783Y26472D01*
X155777Y26586D01*
X155766Y26696D01*
X155755Y26794D01*
X155745Y26887D01*
X155734Y26963D01*
X155717Y27023D01*
Y27029D01*
X155712Y27034D01*
X155701Y27067D01*
X155674Y27116D01*
X155641Y27182D01*
X155597Y27247D01*
X155543Y27318D01*
X155477Y27389D01*
X155395Y27449D01*
X155384Y27455D01*
X155351Y27476D01*
X155302Y27498D01*
X155237Y27531D01*
X155155Y27558D01*
X155057Y27586D01*
X154947Y27602D01*
X154827Y27607D01*
D02*
G37*
G36*
X154876Y6069D02*
X154870D01*
X154859D01*
X154837D01*
X154810Y6064D01*
X154777D01*
X154745Y6058D01*
X154657Y6042D01*
X154559Y6020D01*
X154455Y5982D01*
X154357Y5933D01*
X154264Y5862D01*
X154259D01*
X154253Y5851D01*
X154226Y5824D01*
X154188Y5780D01*
X154139Y5714D01*
X154089Y5632D01*
X154040Y5534D01*
X153997Y5420D01*
X153964Y5288D01*
Y5267D01*
X153958Y5245D01*
Y5218D01*
X153953Y5179D01*
Y5136D01*
X153947Y5081D01*
Y4933D01*
X153942Y4846D01*
Y4742D01*
X153937Y4622D01*
Y2990D01*
X155853D01*
Y4289D01*
X155848Y4377D01*
Y4584D01*
X155842Y4699D01*
X155831Y4933D01*
X155826Y5048D01*
X155815Y5157D01*
X155804Y5256D01*
X155793Y5348D01*
X155782Y5425D01*
X155766Y5485D01*
Y5490D01*
X155760Y5496D01*
X155749Y5529D01*
X155722Y5578D01*
X155689Y5643D01*
X155646Y5709D01*
X155591Y5780D01*
X155525Y5851D01*
X155444Y5911D01*
X155433Y5916D01*
X155400Y5938D01*
X155351Y5960D01*
X155285Y5993D01*
X155203Y6020D01*
X155105Y6047D01*
X154996Y6064D01*
X154876Y6069D01*
D02*
G37*
G36*
X249178Y7501D02*
X248326D01*
Y2499D01*
X249626D01*
X249686Y2505D01*
X249751D01*
X249822Y2510D01*
X249975Y2516D01*
X250128Y2532D01*
X250270Y2548D01*
X250336Y2559D01*
X250390Y2570D01*
X250396D01*
X250407Y2576D01*
X250428Y2581D01*
X250450Y2587D01*
X250483Y2598D01*
X250521Y2614D01*
X250609Y2647D01*
X250707Y2685D01*
X250805Y2740D01*
X250909Y2805D01*
X251007Y2881D01*
X251013Y2887D01*
X251018Y2892D01*
X251029Y2903D01*
X251051Y2925D01*
X251067Y2947D01*
X251095Y2980D01*
X251122Y3013D01*
X251149Y3056D01*
X251182Y3105D01*
X251215Y3160D01*
X251247Y3220D01*
X251280Y3286D01*
X251313Y3356D01*
X251346Y3438D01*
X251378Y3520D01*
X251406Y3613D01*
Y3619D01*
X251411Y3635D01*
X251422Y3668D01*
X251433Y3706D01*
X251444Y3755D01*
X251455Y3821D01*
X251471Y3892D01*
X251488Y3979D01*
X251499Y4072D01*
X251515Y4175D01*
X251526Y4285D01*
X251542Y4410D01*
X251548Y4541D01*
X251559Y4683D01*
X251564Y4836D01*
Y4995D01*
Y5006D01*
Y5033D01*
Y5076D01*
Y5136D01*
X251559Y5213D01*
Y5295D01*
X251553Y5388D01*
X251542Y5491D01*
X251537Y5595D01*
X251526Y5704D01*
X251499Y5928D01*
X251477Y6037D01*
X251460Y6147D01*
X251433Y6245D01*
X251406Y6338D01*
Y6343D01*
X251400Y6359D01*
X251389Y6381D01*
X251378Y6414D01*
X251362Y6452D01*
X251340Y6502D01*
X251297Y6605D01*
X251231Y6725D01*
X251160Y6846D01*
X251073Y6960D01*
X250974Y7069D01*
X250969Y7075D01*
X250963Y7080D01*
X250947Y7097D01*
X250925Y7113D01*
X250898Y7135D01*
X250865Y7157D01*
X250783Y7211D01*
X250680Y7271D01*
X250559Y7331D01*
X250417Y7381D01*
X250265Y7424D01*
X250259D01*
X250248Y7430D01*
X250226D01*
X250199Y7435D01*
X250161Y7441D01*
X250112Y7446D01*
X250057Y7457D01*
X249986Y7463D01*
X249910Y7468D01*
X249817Y7479D01*
X249713Y7484D01*
X249599Y7490D01*
X249473Y7495D01*
X249331D01*
X249178Y7501D01*
D02*
G37*
G36*
X6459Y38946D02*
X6455D01*
X6448D01*
X6434D01*
X6415Y38942D01*
X6393D01*
X6372Y38938D01*
X6313Y38928D01*
X6248Y38913D01*
X6179Y38888D01*
X6113Y38855D01*
X6051Y38807D01*
X6048D01*
X6044Y38800D01*
X6026Y38782D01*
X6000Y38753D01*
X5968Y38709D01*
X5935Y38655D01*
X5902Y38589D01*
X5873Y38513D01*
X5851Y38425D01*
Y38411D01*
X5847Y38396D01*
Y38378D01*
X5844Y38352D01*
Y38323D01*
X5840Y38287D01*
Y38189D01*
X5836Y38130D01*
Y38061D01*
X5833Y37981D01*
Y36893D01*
X7111D01*
Y37759D01*
X7107Y37817D01*
Y37956D01*
X7103Y38032D01*
X7096Y38189D01*
X7092Y38265D01*
X7085Y38338D01*
X7078Y38403D01*
X7070Y38465D01*
X7063Y38516D01*
X7052Y38556D01*
Y38560D01*
X7049Y38563D01*
X7041Y38585D01*
X7023Y38618D01*
X7001Y38662D01*
X6972Y38706D01*
X6936Y38753D01*
X6892Y38800D01*
X6837Y38840D01*
X6830Y38844D01*
X6808Y38858D01*
X6776Y38873D01*
X6732Y38895D01*
X6677Y38913D01*
X6612Y38931D01*
X6539Y38942D01*
X6459Y38946D01*
D02*
G37*
G36*
X24344Y96145D02*
X24340D01*
X24326D01*
X24304Y96142D01*
X24275D01*
X24238Y96138D01*
X24198Y96131D01*
X24155Y96124D01*
X24107Y96113D01*
X24005Y96087D01*
X23900Y96047D01*
X23845Y96025D01*
X23798Y95996D01*
X23751Y95964D01*
X23707Y95927D01*
X23703Y95924D01*
X23696Y95916D01*
X23685Y95905D01*
X23671Y95891D01*
X23656Y95869D01*
X23638Y95847D01*
X23616Y95818D01*
X23594Y95785D01*
X23554Y95712D01*
X23518Y95629D01*
X23507Y95581D01*
X23496Y95530D01*
X23489Y95479D01*
X23485Y95425D01*
Y95396D01*
X23489Y95374D01*
X23492Y95345D01*
X23496Y95312D01*
X23503Y95279D01*
X23514Y95239D01*
X23543Y95159D01*
X23561Y95115D01*
X23583Y95072D01*
X23609Y95024D01*
X23641Y94984D01*
X23678Y94941D01*
X23718Y94901D01*
X23721Y94897D01*
X23729Y94893D01*
X23743Y94883D01*
X23762Y94868D01*
X23783Y94853D01*
X23812Y94835D01*
X23845Y94817D01*
X23882Y94799D01*
X23925Y94777D01*
X23973Y94759D01*
X24024Y94744D01*
X24078Y94726D01*
X24140Y94715D01*
X24202Y94704D01*
X24271Y94697D01*
X24344D01*
Y96145D01*
D02*
G37*
G36*
Y88319D02*
X24340D01*
X24326D01*
X24304Y88316D01*
X24275D01*
X24238Y88312D01*
X24198Y88305D01*
X24155Y88298D01*
X24107Y88287D01*
X24005Y88261D01*
X23900Y88221D01*
X23845Y88199D01*
X23798Y88170D01*
X23751Y88138D01*
X23707Y88101D01*
X23703Y88098D01*
X23696Y88090D01*
X23685Y88079D01*
X23671Y88065D01*
X23656Y88043D01*
X23638Y88021D01*
X23616Y87992D01*
X23594Y87959D01*
X23554Y87886D01*
X23518Y87803D01*
X23507Y87755D01*
X23496Y87704D01*
X23489Y87653D01*
X23485Y87599D01*
Y87570D01*
X23489Y87548D01*
X23492Y87519D01*
X23496Y87486D01*
X23503Y87453D01*
X23514Y87413D01*
X23543Y87333D01*
X23561Y87289D01*
X23583Y87246D01*
X23609Y87198D01*
X23641Y87158D01*
X23678Y87115D01*
X23718Y87075D01*
X23721Y87071D01*
X23729Y87067D01*
X23743Y87056D01*
X23762Y87042D01*
X23783Y87027D01*
X23812Y87009D01*
X23845Y86991D01*
X23882Y86973D01*
X23925Y86951D01*
X23973Y86933D01*
X24024Y86918D01*
X24078Y86900D01*
X24140Y86889D01*
X24202Y86878D01*
X24271Y86871D01*
X24344D01*
Y88319D01*
D02*
G37*
G36*
X22917Y84148D02*
X22914D01*
X22906D01*
X22892D01*
X22873Y84145D01*
X22852D01*
X22830Y84141D01*
X22772Y84130D01*
X22706Y84115D01*
X22637Y84090D01*
X22571Y84057D01*
X22509Y84010D01*
X22506D01*
X22502Y84003D01*
X22484Y83984D01*
X22458Y83955D01*
X22426Y83912D01*
X22393Y83857D01*
X22360Y83791D01*
X22331Y83715D01*
X22309Y83628D01*
Y83613D01*
X22306Y83599D01*
Y83580D01*
X22302Y83555D01*
Y83526D01*
X22298Y83489D01*
Y83391D01*
X22295Y83333D01*
Y83264D01*
X22291Y83183D01*
Y82095D01*
X23569D01*
Y82961D01*
X23565Y83020D01*
Y83158D01*
X23561Y83235D01*
X23554Y83391D01*
X23550Y83467D01*
X23543Y83540D01*
X23536Y83606D01*
X23529Y83668D01*
X23521Y83719D01*
X23510Y83759D01*
Y83762D01*
X23507Y83766D01*
X23499Y83788D01*
X23481Y83820D01*
X23460Y83864D01*
X23430Y83908D01*
X23394Y83955D01*
X23350Y84003D01*
X23296Y84043D01*
X23288Y84046D01*
X23267Y84061D01*
X23234Y84075D01*
X23190Y84097D01*
X23135Y84115D01*
X23070Y84133D01*
X22997Y84145D01*
X22917Y84148D01*
D02*
G37*
G36*
Y76723D02*
X22914D01*
X22906D01*
X22892D01*
X22873Y76719D01*
X22852D01*
X22830Y76715D01*
X22772Y76704D01*
X22706Y76690D01*
X22637Y76664D01*
X22571Y76631D01*
X22509Y76584D01*
X22506D01*
X22502Y76577D01*
X22484Y76559D01*
X22458Y76530D01*
X22426Y76486D01*
X22393Y76431D01*
X22360Y76366D01*
X22331Y76289D01*
X22309Y76202D01*
Y76187D01*
X22306Y76173D01*
Y76155D01*
X22302Y76129D01*
Y76100D01*
X22298Y76064D01*
Y75965D01*
X22295Y75907D01*
Y75838D01*
X22291Y75758D01*
Y74669D01*
X23569D01*
Y75536D01*
X23565Y75594D01*
Y75732D01*
X23561Y75809D01*
X23554Y75965D01*
X23550Y76042D01*
X23543Y76115D01*
X23536Y76180D01*
X23529Y76242D01*
X23521Y76293D01*
X23510Y76333D01*
Y76337D01*
X23507Y76340D01*
X23499Y76362D01*
X23481Y76395D01*
X23460Y76439D01*
X23430Y76482D01*
X23394Y76530D01*
X23350Y76577D01*
X23296Y76617D01*
X23288Y76621D01*
X23267Y76635D01*
X23234Y76650D01*
X23190Y76671D01*
X23135Y76690D01*
X23070Y76708D01*
X22997Y76719D01*
X22917Y76723D01*
D02*
G37*
G36*
X24482Y66545D02*
X22615Y65846D01*
X24482Y65166D01*
Y66545D01*
D02*
G37*
%LPD*%
D10*
X175500Y37250D02*
X174639Y37774D01*
X173724Y38196D01*
X172767Y38510D01*
X171781Y38714D01*
X170777Y38803D01*
X169770Y38777D01*
X168773Y38636D01*
X167798Y38383D01*
X166858Y38019D01*
X165966Y37551D01*
X165134Y36984D01*
X164371Y36325D01*
X163689Y35584D01*
X163096Y34770D01*
X162600Y33893D01*
X162207Y32965D01*
X161923Y31999D01*
X161750Y31006D01*
X161693Y30000D01*
X161750Y28995D01*
X161922Y28002D01*
X162207Y27036D01*
X162599Y26108D01*
X163095Y25231D01*
X163689Y24417D01*
X164371Y23675D01*
X165133Y23017D01*
X165966Y22450D01*
X166857Y21981D01*
X167797Y21618D01*
X168772Y21364D01*
X169769Y21223D01*
X170776Y21197D01*
X171780Y21286D01*
X172767Y21489D01*
X173724Y21804D01*
X174638Y22226D01*
X175499Y22749D01*
X175500Y17250D02*
X174639Y17774D01*
X173724Y18196D01*
X172767Y18510D01*
X171781Y18714D01*
X170777Y18803D01*
X169770Y18777D01*
X168773Y18636D01*
X167798Y18383D01*
X166858Y18019D01*
X165966Y17551D01*
X165134Y16984D01*
X164371Y16325D01*
X163689Y15584D01*
X163096Y14770D01*
X162600Y13893D01*
X162207Y12965D01*
X161923Y11999D01*
X161750Y11006D01*
X161693Y10000D01*
X161750Y8995D01*
X161922Y8002D01*
X162207Y7036D01*
X162599Y6108D01*
X163095Y5231D01*
X163689Y4417D01*
X164371Y3675D01*
X165133Y3017D01*
X165966Y2450D01*
X166857Y1981D01*
X167797Y1618D01*
X168772Y1364D01*
X169769Y1223D01*
X170776Y1197D01*
X171780Y1286D01*
X172767Y1489D01*
X173724Y1804D01*
X174638Y2226D01*
X175499Y2749D01*
X244572Y136819D02*
X244506Y137816D01*
X244307Y138795D01*
X243979Y139739D01*
X243528Y140631D01*
X242963Y141455D01*
X242292Y142196D01*
X241529Y142841D01*
X240687Y143379D01*
X239781Y143799D01*
X238826Y144095D01*
X237841Y144262D01*
X236842Y144295D01*
X235848Y144195D01*
X234876Y143963D01*
X233943Y143604D01*
X233067Y143124D01*
X232263Y142531D01*
X231544Y141837D01*
X230925Y141052D01*
X230416Y140193D01*
X230026Y139273D01*
X229762Y138309D01*
X229628Y137319D01*
Y136319D01*
X229762Y135329D01*
X230026Y134365D01*
X230416Y133445D01*
X230925Y132585D01*
X231544Y131801D01*
X232263Y131106D01*
X233067Y130514D01*
X233943Y130034D01*
X234876Y129674D01*
X235848Y129443D01*
X236842Y129343D01*
X237841Y129376D01*
X238826Y129542D01*
X239781Y129838D01*
X240687Y130259D01*
X241529Y130797D01*
X242292Y131442D01*
X242963Y132183D01*
X243528Y133007D01*
X243979Y133899D01*
X244307Y134843D01*
X244506Y135822D01*
X244572Y136819D01*
X38590D02*
X38523Y137816D01*
X38324Y138795D01*
X37996Y139740D01*
X37545Y140632D01*
X36979Y141456D01*
X36309Y142197D01*
X35546Y142842D01*
X34703Y143380D01*
X33797Y143801D01*
X32842Y144097D01*
X31857Y144263D01*
X30858Y144296D01*
X29863Y144196D01*
X28891Y143965D01*
X27959Y143605D01*
X27082Y143125D01*
X26278Y142532D01*
X25559Y141838D01*
X24940Y141053D01*
X24430Y140193D01*
X24040Y139273D01*
X23776Y138309D01*
X23643Y137319D01*
Y136319D01*
X23776Y135329D01*
X24040Y134365D01*
X24430Y133445D01*
X24940Y132585D01*
X25559Y131800D01*
X26278Y131105D01*
X27082Y130513D01*
X27959Y130032D01*
X28891Y129673D01*
X29864Y129441D01*
X30858Y129341D01*
X31857Y129375D01*
X32842Y129541D01*
X33797Y129837D01*
X34703Y130258D01*
X35546Y130796D01*
X36309Y131441D01*
X36979Y132182D01*
X37545Y133006D01*
X37996Y133898D01*
X38324Y134842D01*
X38523Y135822D01*
X38590Y136819D01*
X15000Y76500D02*
X15707Y76793D01*
X16000Y77500D01*
X10000D02*
X10293Y76793D01*
X11000Y76500D01*
Y86500D02*
X10293Y86207D01*
X10000Y85500D01*
X16000D02*
X15707Y86207D01*
X15000Y86500D01*
X175500Y35283D02*
Y37250D01*
Y22748D02*
Y24716D01*
Y15283D02*
Y17250D01*
Y2748D02*
Y4716D01*
X11000Y126000D02*
Y144000D01*
X257000Y126000D02*
Y144000D01*
X245000Y111000D02*
X266000D01*
X245000Y32000D02*
Y111000D01*
Y32000D02*
X266000D01*
Y100000D01*
Y111000D01*
X188400Y48144D02*
X235622Y48122D01*
Y1500D02*
Y48122D01*
X188378Y1500D02*
Y48122D01*
Y1500D02*
X235622Y1500D01*
X29500Y120000D02*
X39500D01*
Y117000D02*
Y120000D01*
X29500Y117000D02*
X39500D01*
X29500D02*
Y120000D01*
X9500Y117000D02*
Y120000D01*
Y117000D02*
X19500D01*
Y120000D01*
X9500D02*
X19500D01*
X36500Y9000D02*
Y13000D01*
X46500Y9000D02*
Y13000D01*
X11000Y126000D02*
X257000D01*
X140900Y23500D02*
X144900D01*
X149700Y11700D02*
Y17200D01*
X118300Y11700D02*
Y17200D01*
X123100Y23500D02*
X127100D01*
X17000Y50000D02*
Y57000D01*
X12000Y50000D02*
Y57000D01*
X17000D01*
X13000Y51000D02*
X16000D01*
X14500D02*
Y52000D01*
X10000Y50000D02*
Y57000D01*
X5000Y50000D02*
Y57000D01*
X10000D01*
X6000Y51000D02*
X9000D01*
X7500D02*
Y52000D01*
X76370Y10000D02*
Y20000D01*
Y10000D02*
X90370D01*
X76370Y20000D02*
X90370D01*
X11000Y76500D02*
X15000D01*
X16000Y77500D02*
Y85500D01*
X10000Y77500D02*
Y85500D01*
X11000Y86500D02*
X15000D01*
X6000Y92500D02*
X20000D01*
X6000Y70500D02*
Y92500D01*
Y70500D02*
X20000D01*
Y92500D01*
X85500Y42000D02*
Y51000D01*
X74500D02*
X85500D01*
X74500Y42000D02*
Y51000D01*
Y42000D02*
X85500D01*
X213977Y117400D02*
X225977D01*
Y115700D02*
Y117400D01*
X213977Y115700D02*
X225977D01*
X213977D02*
Y117400D01*
D11*
X261681Y106500D02*
X261236Y107423D01*
X260237Y107651D01*
X259436Y107012D01*
Y105988D01*
X260237Y105349D01*
X261236Y105577D01*
X261681Y106500D01*
D12*
X225780Y24500D02*
X225744Y25494D01*
X225636Y26483D01*
X225457Y27462D01*
X225209Y28425D01*
X224891Y29368D01*
X224506Y30286D01*
X224056Y31173D01*
X223543Y32026D01*
X222970Y32839D01*
X222340Y33609D01*
X221655Y34331D01*
X220921Y35002D01*
X220140Y35619D01*
X219316Y36177D01*
X218454Y36674D01*
X217559Y37108D01*
X216635Y37477D01*
X215686Y37777D01*
X214719Y38009D01*
X213737Y38170D01*
X212746Y38259D01*
X211751Y38277D01*
X210758Y38223D01*
X209771Y38098D01*
X208795Y37902D01*
X207837Y37635D01*
X206900Y37301D01*
X205989Y36900D01*
X205110Y36433D01*
X204267Y35905D01*
X203464Y35317D01*
X202706Y34673D01*
X201996Y33976D01*
X201338Y33230D01*
X200736Y32438D01*
X200193Y31604D01*
X199711Y30734D01*
X199293Y29831D01*
X198942Y28900D01*
X198658Y27946D01*
X198444Y26974D01*
X198301Y25990D01*
X198229Y24997D01*
Y24002D01*
X198301Y23010D01*
X198444Y22026D01*
X198658Y21054D01*
X198942Y20100D01*
X199293Y19169D01*
X199711Y18266D01*
X200193Y17396D01*
X200736Y16563D01*
X201338Y15770D01*
X201996Y15024D01*
X202706Y14327D01*
X203464Y13683D01*
X204267Y13095D01*
X205110Y12567D01*
X205989Y12100D01*
X206900Y11699D01*
X207837Y11365D01*
X208795Y11098D01*
X209771Y10902D01*
X210758Y10777D01*
X211751Y10723D01*
X212746Y10741D01*
X213737Y10830D01*
X214719Y10991D01*
X215686Y11223D01*
X216635Y11523D01*
X217559Y11892D01*
X218454Y12326D01*
X219316Y12823D01*
X220140Y13381D01*
X220921Y13998D01*
X221655Y14669D01*
X222340Y15391D01*
X222970Y16161D01*
X223543Y16974D01*
X224056Y17827D01*
X224506Y18714D01*
X224891Y19632D01*
X225209Y20574D01*
X225457Y21538D01*
X225636Y22517D01*
X225744Y23506D01*
X225780Y24500D01*
X101000Y18700D02*
X111500D01*
X101000Y16200D02*
Y18700D01*
Y16200D02*
X112500D01*
Y17700D01*
X111500Y18700D02*
X112500Y17700D01*
X39580Y107532D02*
Y111468D01*
X41548D01*
X42204Y110812D01*
Y109500D01*
X41548Y108844D01*
X39580D01*
X40892D02*
X42204Y107532D01*
X43516D02*
X44828D01*
X44172D01*
Y111468D01*
X43516Y110812D01*
X46796D02*
X47452Y111468D01*
X48764D01*
X49420Y110812D01*
Y108188D01*
X48764Y107532D01*
X47452D01*
X46796Y108188D01*
Y110812D01*
X207254Y96055D02*
X209072Y97104D01*
X210506Y96720D01*
X210121Y95286D01*
X208304Y94237D01*
X209667Y95024D01*
X208617Y96842D01*
X212150Y92822D02*
X212342Y93539D01*
X211818Y94448D01*
X211101Y94640D01*
X210646Y94377D01*
X210454Y93661D01*
X210979Y92752D01*
X210787Y92035D01*
X210332Y91772D01*
X209616Y91965D01*
X209091Y92873D01*
X209283Y93590D01*
X214179Y90358D02*
X213200Y91004D01*
X211766Y91388D01*
X210857Y90864D01*
X210665Y90147D01*
X211190Y89238D01*
X211907Y89046D01*
X212361Y89308D01*
X212553Y90025D01*
X211766Y91388D01*
X215299Y87368D02*
X215491Y88085D01*
X214966Y88994D01*
X214249Y89186D01*
X212432Y88137D01*
X212239Y87420D01*
X212764Y86511D01*
X213481Y86319D01*
X213551Y85148D02*
X214076Y84239D01*
X213814Y84693D01*
X216541Y86267D01*
X215824Y86459D01*
X217136Y84187D02*
X217852Y83995D01*
X218377Y83086D01*
X218185Y82369D01*
X216367Y81320D01*
X215650Y81512D01*
X215126Y82421D01*
X215318Y83138D01*
X217136Y84187D01*
X218710Y81460D02*
X219427Y81268D01*
X219952Y80359D01*
X219759Y79643D01*
X217942Y78593D01*
X217225Y78785D01*
X216700Y79694D01*
X216892Y80411D01*
X218710Y81460D01*
X220284Y78734D02*
X221001Y78542D01*
X221526Y77633D01*
X221334Y76916D01*
X220879Y76653D01*
X220162Y76846D01*
X219970Y76129D01*
X219516Y75866D01*
X218799Y76058D01*
X218274Y76967D01*
X218466Y77684D01*
X218921Y77947D01*
X219638Y77754D01*
X219830Y78471D01*
X220284Y78734D01*
X219638Y77754D02*
X220162Y76846D01*
X220950Y75482D02*
X221999Y73664D01*
X224937Y71725D02*
X223887Y73543D01*
X222524Y72755D01*
X223503Y72109D01*
X223765Y71654D01*
X223573Y70938D01*
X222664Y70413D01*
X221948Y70605D01*
X221423Y71514D01*
X221615Y72231D01*
X226511Y68998D02*
X225462Y70816D01*
X224098Y70029D01*
X225077Y69382D01*
X225340Y68928D01*
X225148Y68211D01*
X224239Y67686D01*
X223522Y67878D01*
X222997Y68787D01*
X223189Y69504D01*
X227631Y66009D02*
X227823Y66726D01*
X227298Y67635D01*
X226581Y67827D01*
X226127Y67564D01*
X225935Y66847D01*
X226460Y65939D01*
X226268Y65222D01*
X225813Y64959D01*
X225096Y65151D01*
X224571Y66060D01*
X224763Y66777D01*
X228610Y65362D02*
X229660Y63544D01*
X229135Y64453D01*
X226408Y62879D01*
X230184Y62635D02*
X230709Y61727D01*
X230447Y62181D01*
X227720Y60607D01*
X227458Y61061D01*
X227982Y60152D01*
X228769Y58789D02*
X231496Y60363D01*
X229819Y56971D01*
X232546Y58545D01*
X85844Y118812D02*
X85188Y119468D01*
X83876D01*
X83220Y118812D01*
Y116188D01*
X83876Y115532D01*
X85188D01*
X85844Y116188D01*
X87156Y118812D02*
X87812Y119468D01*
X89124D01*
X89780Y118812D01*
Y118156D01*
X89124Y117500D01*
X88468D01*
X89124D01*
X89780Y116844D01*
Y116188D01*
X89124Y115532D01*
X87812D01*
X87156Y116188D01*
X68080Y29532D02*
Y33468D01*
X70048D01*
X70704Y32812D01*
Y31500D01*
X70048Y30844D01*
X68080D01*
X69392D02*
X70704Y29532D01*
X72016D02*
X73328D01*
X72672D01*
Y33468D01*
X72016Y32812D01*
X77264Y29532D02*
Y33468D01*
X75296Y31500D01*
X77920D01*
X109860Y49877D02*
X109204Y50533D01*
X107892D01*
X107236Y49877D01*
Y47253D01*
X107892Y46597D01*
X109204D01*
X109860Y47253D01*
X111172Y46597D02*
X112484D01*
X111828D01*
Y50533D01*
X111172Y49877D01*
X114452Y46597D02*
X115764D01*
X115108D01*
Y50533D01*
X114452Y49877D01*
X49720Y25452D02*
Y21516D01*
X51688D01*
X52344Y22172D01*
Y24796D01*
X51688Y25452D01*
X49720D01*
X56280Y21516D02*
X53656D01*
X56280Y24140D01*
Y24796D01*
X55624Y25452D01*
X54312D01*
X53656Y24796D01*
X132032Y29312D02*
X131376Y29968D01*
X130064D01*
X129408Y29312D01*
Y26688D01*
X130064Y26032D01*
X131376D01*
X132032Y26688D01*
X133344Y26032D02*
Y29968D01*
X135968Y26032D01*
Y29968D01*
X137280Y26032D02*
X138592D01*
X137936D01*
Y29968D01*
X137280Y29312D01*
X156344Y122812D02*
X155688Y123468D01*
X154376D01*
X153720Y122812D01*
Y120188D01*
X154376Y119532D01*
X155688D01*
X156344Y120188D01*
X160280Y123468D02*
X158968Y122812D01*
X157656Y121500D01*
Y120188D01*
X158312Y119532D01*
X159624D01*
X160280Y120188D01*
Y120844D01*
X159624Y121500D01*
X157656D01*
X94720Y36532D02*
Y40468D01*
X96688D01*
X97344Y39812D01*
Y38500D01*
X96688Y37844D01*
X94720D01*
X96032D02*
X97344Y36532D01*
X100624D02*
Y40468D01*
X98656Y38500D01*
X101280D01*
X209270Y6654D02*
X208614Y7310D01*
X207302D01*
X206646Y6654D01*
Y5999D01*
X207302Y5342D01*
X208614D01*
X209270Y4687D01*
Y4031D01*
X208614Y3375D01*
X207302D01*
X206646Y4031D01*
X210582Y7310D02*
Y3375D01*
X211894Y4687D01*
X213206Y3375D01*
Y7310D01*
X217141Y3375D02*
X214517D01*
X217141Y5999D01*
Y6654D01*
X216485Y7310D01*
X215174D01*
X214517Y6654D01*
X10080Y101532D02*
Y105468D01*
X12048D01*
X12704Y104812D01*
Y103500D01*
X12048Y102844D01*
X10080D01*
X11392D02*
X12704Y101532D01*
X14016D02*
X15328D01*
X14672D01*
Y105468D01*
X14016Y104812D01*
X19920Y101532D02*
X17296D01*
X19920Y104156D01*
Y104812D01*
X19264Y105468D01*
X17952D01*
X17296Y104812D01*
X31370Y97032D02*
Y100968D01*
X33338D01*
X33994Y100312D01*
Y99000D01*
X33338Y98344D01*
X31370D01*
X32682D02*
X33994Y97032D01*
X35306Y97688D02*
X35961Y97032D01*
X37273D01*
X37929Y97688D01*
Y100312D01*
X37273Y100968D01*
X35961D01*
X35306Y100312D01*
Y99656D01*
X35961Y99000D01*
X37929D01*
X102720Y36532D02*
Y40468D01*
X104688D01*
X105344Y39812D01*
Y38500D01*
X104688Y37844D01*
X102720D01*
X104032D02*
X105344Y36532D01*
X106656Y40468D02*
X109280D01*
Y39812D01*
X106656Y37188D01*
Y36532D01*
X73071Y22032D02*
Y25968D01*
X75038D01*
X75694Y25312D01*
Y24000D01*
X75038Y23344D01*
X73071D01*
X74383D02*
X75694Y22032D01*
X77006Y25312D02*
X77662Y25968D01*
X78974D01*
X79630Y25312D01*
Y24656D01*
X78974Y24000D01*
X78318D01*
X78974D01*
X79630Y23344D01*
Y22688D01*
X78974Y22032D01*
X77662D01*
X77006Y22688D01*
X37704Y94417D02*
X37048Y95073D01*
X35736D01*
X35080Y94417D01*
Y91793D01*
X35736Y91137D01*
X37048D01*
X37704Y91793D01*
X39016Y91137D02*
X40328D01*
X39672D01*
Y95073D01*
X39016Y94417D01*
X44264Y91137D02*
Y95073D01*
X42296Y93105D01*
X44920D01*
X70304Y55418D02*
X69648Y56074D01*
X68336D01*
X67680Y55418D01*
Y52794D01*
X68336Y52138D01*
X69648D01*
X70304Y52794D01*
X71616Y52138D02*
X72928D01*
X72272D01*
Y56074D01*
X71616Y55418D01*
X77520Y56074D02*
X76208Y55418D01*
X74896Y54106D01*
Y52794D01*
X75552Y52138D01*
X76864D01*
X77520Y52794D01*
Y53450D01*
X76864Y54106D01*
X74896D01*
X208220Y109968D02*
Y106688D01*
X208876Y106032D01*
X210188D01*
X210844Y106688D01*
Y109968D01*
X214124Y106032D02*
Y109968D01*
X212156Y108000D01*
X214780D01*
X102168Y7968D02*
Y4032D01*
X104136D01*
X104792Y4688D01*
Y7312D01*
X104136Y7968D01*
X102168D01*
X106104D02*
X108728D01*
Y7312D01*
X106104Y4688D01*
Y4032D01*
X108728D01*
X110040D02*
X111352D01*
X110696D01*
Y7968D01*
X110040Y7312D01*
X179791Y118178D02*
X179135Y118834D01*
X177823D01*
X177167Y118178D01*
Y115554D01*
X177823Y114898D01*
X179135D01*
X179791Y115554D01*
X181103Y118834D02*
X183727D01*
Y118178D01*
X181103Y115554D01*
Y114898D01*
X20236Y107532D02*
Y111468D01*
X22204D01*
X22860Y110812D01*
Y109500D01*
X22204Y108844D01*
X20236D01*
X21548D02*
X22860Y107532D01*
X24172D02*
X25484D01*
X24828D01*
Y111468D01*
X24172Y110812D01*
X27452Y107532D02*
X28764D01*
X28108D01*
Y111468D01*
X27452Y110812D01*
X49876Y52532D02*
Y56468D01*
X51844D01*
X52500Y55812D01*
Y54500D01*
X51844Y53844D01*
X49876D01*
X51188D02*
X52500Y52532D01*
X53812D02*
X55124D01*
X54468D01*
Y56468D01*
X53812Y55812D01*
X184720Y78968D02*
Y75688D01*
X185376Y75032D01*
X186688D01*
X187344Y75688D01*
Y78968D01*
X188656Y78312D02*
X189312Y78968D01*
X190624D01*
X191280Y78312D01*
Y77656D01*
X190624Y77000D01*
X189968D01*
X190624D01*
X191280Y76344D01*
Y75688D01*
X190624Y75032D01*
X189312D01*
X188656Y75688D01*
X3220Y61968D02*
Y58032D01*
X5188D01*
X5844Y58688D01*
Y61312D01*
X5188Y61968D01*
X3220D01*
X7156Y61312D02*
X7812Y61968D01*
X9124D01*
X9780Y61312D01*
Y60656D01*
X9124Y60000D01*
X9780Y59344D01*
Y58688D01*
X9124Y58032D01*
X7812D01*
X7156Y58688D01*
Y59344D01*
X7812Y60000D01*
X7156Y60656D01*
Y61312D01*
X7812Y60000D02*
X9124D01*
X68220Y16968D02*
Y13032D01*
X70188D01*
X70844Y13688D01*
Y16312D01*
X70188Y16968D01*
X68220D01*
X72156D02*
X74780D01*
Y16312D01*
X72156Y13688D01*
Y13032D01*
X99220Y112682D02*
Y116618D01*
X101188D01*
X101844Y115962D01*
Y114650D01*
X101188Y113994D01*
X99220D01*
X100532D02*
X101844Y112682D01*
X105780Y116618D02*
X104468Y115962D01*
X103156Y114650D01*
Y113338D01*
X103812Y112682D01*
X105124D01*
X105780Y113338D01*
Y113994D01*
X105124Y114650D01*
X103156D01*
X68080Y35532D02*
Y39468D01*
X70048D01*
X70704Y38812D01*
Y37500D01*
X70048Y36844D01*
X68080D01*
X69392D02*
X70704Y35532D01*
X72016D02*
X73328D01*
X72672D01*
Y39468D01*
X72016Y38812D01*
X75296D02*
X75952Y39468D01*
X77264D01*
X77920Y38812D01*
Y38156D01*
X77264Y37500D01*
X76608D01*
X77264D01*
X77920Y36844D01*
Y36188D01*
X77264Y35532D01*
X75952D01*
X75296Y36188D01*
X80132Y40968D02*
Y40312D01*
X81444Y39000D01*
X82756Y40312D01*
Y40968D01*
X81444Y39000D02*
Y37032D01*
X84068D02*
X85380D01*
X84724D01*
Y40968D01*
X84068Y40312D01*
X14876Y130812D02*
X14220Y131468D01*
X12908D01*
X12252Y130812D01*
Y128188D01*
X12908Y127532D01*
X14220D01*
X14876Y128188D01*
X16188Y127532D02*
Y131468D01*
X18812Y127532D01*
Y131468D01*
X22092Y127532D02*
Y131468D01*
X20124Y129500D01*
X22748D01*
X195704Y118812D02*
X195048Y119468D01*
X193736D01*
X193080Y118812D01*
Y116188D01*
X193736Y115532D01*
X195048D01*
X195704Y116188D01*
X197016Y115532D02*
X198328D01*
X197672D01*
Y119468D01*
X197016Y118812D01*
X200296D02*
X200952Y119468D01*
X202264D01*
X202920Y118812D01*
Y118156D01*
X202264Y117500D01*
X202920Y116844D01*
Y116188D01*
X202264Y115532D01*
X200952D01*
X200296Y116188D01*
Y116844D01*
X200952Y117500D01*
X200296Y118156D01*
Y118812D01*
X200952Y117500D02*
X202264D01*
X63844Y50312D02*
X63188Y50968D01*
X61876D01*
X61220Y50312D01*
Y47688D01*
X61876Y47032D01*
X63188D01*
X63844Y47688D01*
X67780Y50968D02*
X65156D01*
Y49000D01*
X66468Y49656D01*
X67124D01*
X67780Y49000D01*
Y47688D01*
X67124Y47032D01*
X65812D01*
X65156Y47688D01*
X31590Y30968D02*
Y27688D01*
X32246Y27032D01*
X33558D01*
X34214Y27688D01*
Y30968D01*
X38150D02*
X35526D01*
Y29000D01*
X36838Y29656D01*
X37494D01*
X38150Y29000D01*
Y27688D01*
X37494Y27032D01*
X36182D01*
X35526Y27688D01*
X11032Y82812D02*
X10376Y83468D01*
X9064D01*
X8408Y82812D01*
Y82156D01*
X9064Y81500D01*
X10376D01*
X11032Y80844D01*
Y80188D01*
X10376Y79532D01*
X9064D01*
X8408Y80188D01*
X12344Y83468D02*
Y79532D01*
X13656Y80844D01*
X14968Y79532D01*
Y83468D01*
X16280Y79532D02*
X17592D01*
X16936D01*
Y83468D01*
X16280Y82812D01*
X101344Y62827D02*
X100688Y63483D01*
X99376D01*
X98720Y62827D01*
Y60203D01*
X99376Y59547D01*
X100688D01*
X101344Y60203D01*
X104624Y59547D02*
Y63483D01*
X102656Y61515D01*
X105280D01*
X12220Y61968D02*
Y58032D01*
X14188D01*
X14844Y58688D01*
Y61312D01*
X14188Y61968D01*
X12220D01*
X18780D02*
X17468Y61312D01*
X16156Y60000D01*
Y58688D01*
X16812Y58032D01*
X18124D01*
X18780Y58688D01*
Y59344D01*
X18124Y60000D01*
X16156D01*
X5844Y122688D02*
Y125312D01*
X5188Y125968D01*
X3876D01*
X3220Y125312D01*
Y122688D01*
X3876Y122032D01*
X5188D01*
X4532Y123344D02*
X5844Y122032D01*
X5188D02*
X5844Y122688D01*
X9780Y122032D02*
X7156D01*
X9780Y124656D01*
Y125312D01*
X9124Y125968D01*
X7812D01*
X7156Y125312D01*
X109204Y86215D02*
X108548Y86871D01*
X107236D01*
X106580Y86215D01*
Y83591D01*
X107236Y82935D01*
X108548D01*
X109204Y83591D01*
X110516Y82935D02*
X111828D01*
X111172D01*
Y86871D01*
X110516Y86215D01*
X116420Y82935D02*
X113796D01*
X116420Y85559D01*
Y86215D01*
X115764Y86871D01*
X114452D01*
X113796Y86215D01*
X189844Y60444D02*
X189188Y61100D01*
X187876D01*
X187220Y60444D01*
Y57820D01*
X187876Y57164D01*
X189188D01*
X189844Y57820D01*
X191156D02*
X191812Y57164D01*
X193124D01*
X193780Y57820D01*
Y60444D01*
X193124Y61100D01*
X191812D01*
X191156Y60444D01*
Y59788D01*
X191812Y59132D01*
X193780D01*
X86704Y55569D02*
X86048Y56225D01*
X84736D01*
X84080Y55569D01*
Y52945D01*
X84736Y52289D01*
X86048D01*
X86704Y52945D01*
X88016Y52289D02*
X89328D01*
X88672D01*
Y56225D01*
X88016Y55569D01*
X93920Y56225D02*
X91296D01*
Y54257D01*
X92608Y54913D01*
X93264D01*
X93920Y54257D01*
Y52945D01*
X93264Y52289D01*
X91952D01*
X91296Y52945D01*
X41344Y23873D02*
X38720D01*
Y21905D01*
X40032D01*
X38720D01*
Y19938D01*
X45280D02*
X42656D01*
X45280Y22561D01*
Y23217D01*
X44624Y23873D01*
X43312D01*
X42656Y23217D01*
X193844Y89823D02*
X193188Y90479D01*
X191876D01*
X191220Y89823D01*
Y87199D01*
X191876Y86543D01*
X193188D01*
X193844Y87199D01*
X195156Y89823D02*
X195812Y90479D01*
X197124D01*
X197780Y89823D01*
Y89167D01*
X197124Y88511D01*
X197780Y87855D01*
Y87199D01*
X197124Y86543D01*
X195812D01*
X195156Y87199D01*
Y87855D01*
X195812Y88511D01*
X195156Y89167D01*
Y89823D01*
X195812Y88511D02*
X197124D01*
X252876Y116312D02*
X252220Y116968D01*
X250908D01*
X250252Y116312D01*
Y113688D01*
X250908Y113032D01*
X252220D01*
X252876Y113688D01*
X254188Y113032D02*
Y116968D01*
X256812Y113032D01*
Y116968D01*
X258124Y116312D02*
X258780Y116968D01*
X260092D01*
X260748Y116312D01*
Y115656D01*
X260092Y115000D01*
X259436D01*
X260092D01*
X260748Y114344D01*
Y113688D01*
X260092Y113032D01*
X258780D01*
X258124Y113688D01*
X143506Y40312D02*
X142850Y40968D01*
X141538D01*
X140882Y40312D01*
Y37688D01*
X141538Y37032D01*
X142850D01*
X143506Y37688D01*
X144818Y37032D02*
X146130D01*
X145474D01*
Y40968D01*
X144818Y40312D01*
X148098D02*
X148754Y40968D01*
X150066D01*
X150722Y40312D01*
Y37688D01*
X150066Y37032D01*
X148754D01*
X148098Y37688D01*
Y40312D01*
X116204Y35812D02*
X115548Y36468D01*
X114236D01*
X113580Y35812D01*
Y33188D01*
X114236Y32532D01*
X115548D01*
X116204Y33188D01*
X117516Y32532D02*
X118828D01*
X118172D01*
Y36468D01*
X117516Y35812D01*
X120796D02*
X121452Y36468D01*
X122764D01*
X123420Y35812D01*
Y35156D01*
X122764Y34500D01*
X122108D01*
X122764D01*
X123420Y33844D01*
Y33188D01*
X122764Y32532D01*
X121452D01*
X120796Y33188D01*
X63000Y23468D02*
X60376D01*
Y21500D01*
X61688D01*
X60376D01*
Y19532D01*
X64312D02*
X65624D01*
X64968D01*
Y23468D01*
X64312Y22812D01*
X43204Y60812D02*
X42548Y61468D01*
X41236D01*
X40580Y60812D01*
Y58188D01*
X41236Y57532D01*
X42548D01*
X43204Y58188D01*
X44516Y57532D02*
X45828D01*
X45172D01*
Y61468D01*
X44516Y60812D01*
X47796Y58188D02*
X48452Y57532D01*
X49764D01*
X50420Y58188D01*
Y60812D01*
X49764Y61468D01*
X48452D01*
X47796Y60812D01*
Y60156D01*
X48452Y59500D01*
X50420D01*
X129882Y99251D02*
X129047Y95076D01*
X131552Y97581D02*
X127377Y96746D01*
X133639Y94659D02*
Y95494D01*
X132804Y96329D01*
X131969D01*
X130299Y94659D01*
Y93824D01*
X131134Y92989D01*
X131969D01*
X132804Y92154D02*
Y91319D01*
X133639Y90484D01*
X134474D01*
X136143Y92154D01*
Y92989D01*
X135309Y93824D01*
X134474D01*
X134056Y93407D01*
Y92572D01*
X135309Y91319D01*
X139066Y90067D02*
X137396Y91737D01*
X136143Y90484D01*
X137396Y90067D01*
X137813Y89650D01*
Y88815D01*
X136978Y87980D01*
X136143D01*
X135309Y88815D01*
Y89650D01*
X137396Y86727D02*
X138231Y85893D01*
X137813Y86310D01*
X140318Y88815D01*
X139483D01*
X140735Y83388D02*
X143240Y85893D01*
X140735D01*
X142405Y84223D01*
X143240Y80883D02*
X145745Y83388D01*
X143240D01*
X144910Y81718D01*
X146997Y82135D02*
X146162Y77961D01*
X148667Y80466D02*
X144492Y79631D01*
X149502D02*
X146997Y77126D01*
X148667Y75456D01*
X150754Y75874D02*
X152424Y74204D01*
X152006Y72117D02*
X152841Y71282D01*
X152424Y71699D01*
X154929Y74204D01*
X154094D01*
X156181Y72117D02*
X157016D01*
X157851Y71282D01*
Y70447D01*
X156181Y68777D01*
X155346D01*
X154511Y69612D01*
Y70447D01*
X156181Y72117D01*
X159103Y70030D02*
X160773Y68360D01*
X159938Y69195D01*
X157433Y66690D01*
X161190Y63768D02*
X162860Y65438D01*
Y66272D01*
X162025Y67107D01*
X161190D01*
X159520Y65438D01*
Y64603D01*
X160355Y63768D01*
X160773Y65020D02*
Y63350D01*
X160355Y63768D02*
X161190D01*
X161608Y62515D02*
X162443Y61681D01*
X162025Y62098D01*
X164530Y64603D01*
X163695D01*
X165782Y62515D02*
X166617D01*
X167452Y61681D01*
Y60846D01*
X165782Y59176D01*
X164947D01*
X164112Y60011D01*
Y60846D01*
X165782Y62515D01*
X168287Y60011D02*
X169122D01*
X169957Y59176D01*
Y58341D01*
X168287Y56671D01*
X167452D01*
X166617Y57506D01*
Y58341D01*
X168287Y60011D01*
X172461Y55836D02*
Y56671D01*
X171626Y57506D01*
X170791D01*
X169122Y55836D01*
Y55001D01*
X169957Y54167D01*
X170791D01*
X56344Y120312D02*
X55688Y120968D01*
X54376D01*
X53720Y120312D01*
Y117688D01*
X54376Y117032D01*
X55688D01*
X56344Y117688D01*
X60280Y117032D02*
X57656D01*
X60280Y119656D01*
Y120312D01*
X59624Y120968D01*
X58312D01*
X57656Y120312D01*
X237220Y64032D02*
Y67968D01*
X239188D01*
X239844Y67312D01*
Y66000D01*
X239188Y65344D01*
X237220D01*
X238532D02*
X239844Y64032D01*
X243780Y67968D02*
X241156D01*
Y66000D01*
X242468Y66656D01*
X243124D01*
X243780Y66000D01*
Y64688D01*
X243124Y64032D01*
X241812D01*
X241156Y64688D01*
X119241Y11532D02*
Y15468D01*
X120553Y14156D01*
X121865Y15468D01*
Y11532D01*
X123177D02*
X124489D01*
X123833D01*
Y14156D01*
X123177D01*
X129080D02*
X127112D01*
X126456Y13500D01*
Y12188D01*
X127112Y11532D01*
X129080D01*
X130392Y14156D02*
Y11532D01*
Y12844D01*
X131048Y13500D01*
X131704Y14156D01*
X132360D01*
X134984Y11532D02*
X136296D01*
X136952Y12188D01*
Y13500D01*
X136296Y14156D01*
X134984D01*
X134328Y13500D01*
Y12188D01*
X134984Y11532D01*
X138264Y15468D02*
Y12188D01*
X138920Y11532D01*
X140232D01*
X140887Y12188D01*
Y15468D01*
X144823Y14812D02*
X144167Y15468D01*
X142855D01*
X142200Y14812D01*
Y14156D01*
X142855Y13500D01*
X144167D01*
X144823Y12844D01*
Y12188D01*
X144167Y11532D01*
X142855D01*
X142200Y12188D01*
X146135Y15468D02*
Y11532D01*
X148103D01*
X148759Y12188D01*
Y12844D01*
X148103Y13500D01*
X146135D01*
X148103D01*
X148759Y14156D01*
Y14812D01*
X148103Y15468D01*
X146135D01*
X34500Y108188D02*
Y110812D01*
X33844Y111468D01*
X32532D01*
X31876Y110812D01*
Y108188D01*
X32532Y107532D01*
X33844D01*
X33188Y108844D02*
X34500Y107532D01*
X33844D02*
X34500Y108188D01*
X35812Y107532D02*
X37124D01*
X36468D01*
Y111468D01*
X35812Y110812D01*
X197276Y79268D02*
Y75988D01*
X197932Y75332D01*
X199244D01*
X199900Y75988D01*
Y79268D01*
X201212Y75332D02*
X202524D01*
X201868D01*
Y79268D01*
X201212Y78612D01*
X239000Y85812D02*
X238344Y86468D01*
X237032D01*
X236376Y85812D01*
Y83188D01*
X237032Y82532D01*
X238344D01*
X239000Y83188D01*
X240312Y82532D02*
X241624D01*
X240968D01*
Y86468D01*
X240312Y85812D01*
X55885Y97611D02*
X57554Y99281D01*
X59224D01*
Y97611D01*
X57554Y95941D01*
X58807Y97193D01*
X57137Y98863D01*
X60894Y97611D02*
X62564Y95941D01*
X61729Y96776D01*
X59224Y94271D01*
X60894Y92601D02*
X63399Y95106D01*
Y93436D01*
X65069D01*
X62564Y90931D01*
X67573D02*
X65903Y92601D01*
X63399Y90097D01*
X65069Y88427D01*
X64651Y91349D02*
X65486Y90514D01*
X69660Y88009D02*
Y88844D01*
X68826Y89679D01*
X67991D01*
X66321Y88009D01*
Y87174D01*
X67156Y86340D01*
X67991D01*
X68826Y87174D01*
X67991Y88009D01*
X68408Y85087D02*
X70078Y86757D01*
X71748D01*
Y85087D01*
X70078Y83417D01*
X71330Y84670D01*
X69660Y86340D01*
X73000Y84670D02*
X73835D01*
X74670Y83835D01*
Y83000D01*
X74252Y82583D01*
X73418D01*
X73000Y83000D01*
X73418Y82583D01*
Y81748D01*
X73000Y81330D01*
X72165D01*
X71330Y82165D01*
Y83000D01*
X75087Y78408D02*
X73418Y80078D01*
X76757D01*
X77175Y80495D01*
Y81330D01*
X76340Y82165D01*
X75505D01*
X78427Y80078D02*
X76340Y77991D01*
Y77156D01*
X77175Y76321D01*
X78009D01*
X80097Y78408D01*
X79679Y73816D02*
X82184Y76321D01*
X79679D01*
X81349Y74651D01*
X82184Y73816D02*
X83854Y72146D01*
X83436Y70059D02*
X85106Y71729D01*
X86776D01*
Y70059D01*
X85106Y68389D01*
X86358Y69642D01*
X84689Y71311D01*
X88446Y70059D02*
X86358Y67972D01*
Y67137D01*
X87193Y66302D01*
X88028D01*
X90115Y68389D01*
X191665Y26468D02*
X190353D01*
X191009D01*
Y23188D01*
X190353Y22532D01*
X189698D01*
X189041Y23188D01*
X192977Y26468D02*
Y22532D01*
X195601D01*
X199537Y25812D02*
X198881Y26468D01*
X197569D01*
X196913Y25812D01*
Y23188D01*
X197569Y22532D01*
X198881D01*
X199537Y23188D01*
X203473Y26468D02*
X202161D01*
X202817D01*
Y23188D01*
X202161Y22532D01*
X201505D01*
X200849Y23188D01*
X204784Y26468D02*
Y22532D01*
X207408D01*
X211344Y25812D02*
X210688Y26468D01*
X209376D01*
X208720Y25812D01*
Y23188D01*
X209376Y22532D01*
X210688D01*
X211344Y23188D01*
X215280Y26468D02*
X213968D01*
X214624D01*
Y23188D01*
X213968Y22532D01*
X213312D01*
X212656Y23188D01*
X216592Y26468D02*
Y22532D01*
X219215D01*
X223151Y25812D02*
X222495Y26468D01*
X221183D01*
X220527Y25812D01*
Y23188D01*
X221183Y22532D01*
X222495D01*
X223151Y23188D01*
X227087Y26468D02*
X225775D01*
X226431D01*
Y23188D01*
X225775Y22532D01*
X225119D01*
X224463Y23188D01*
X228399Y26468D02*
Y22532D01*
X231023D01*
X234959Y25812D02*
X234302Y26468D01*
X232991D01*
X232335Y25812D01*
Y23188D01*
X232991Y22532D01*
X234302D01*
X234959Y23188D01*
X73571Y4032D02*
Y7968D01*
X75538D01*
X76194Y7312D01*
Y6000D01*
X75538Y5344D01*
X73571D01*
X74883D02*
X76194Y4032D01*
X80130D02*
X77506D01*
X80130Y6656D01*
Y7312D01*
X79474Y7968D01*
X78162D01*
X77506Y7312D01*
X239704Y117812D02*
X239048Y118468D01*
X237736D01*
X237080Y117812D01*
Y115188D01*
X237736Y114532D01*
X239048D01*
X239704Y115188D01*
X241016Y114532D02*
X242328D01*
X241672D01*
Y118468D01*
X241016Y117812D01*
X244296Y118468D02*
X246920D01*
Y117812D01*
X244296Y115188D01*
Y114532D01*
X69820Y113863D02*
Y110583D01*
X70476Y109927D01*
X71788D01*
X72444Y110583D01*
Y113863D01*
X76380Y109927D02*
X73756D01*
X76380Y112551D01*
Y113207D01*
X75724Y113863D01*
X74412D01*
X73756Y113207D01*
D13*
X33886Y48709D02*
X33441Y49632D01*
X32442Y49860D01*
X31641Y49221D01*
Y48196D01*
X32442Y47557D01*
X33441Y47785D01*
X33886Y48709D01*
X209173Y59587D02*
X208729Y60510D01*
X207729Y60738D01*
X206928Y60099D01*
Y59074D01*
X207729Y58435D01*
X208729Y58663D01*
X209173Y59587D01*
X129234Y54653D02*
X128789Y55576D01*
X127790Y55804D01*
X126989Y55165D01*
Y54140D01*
X127790Y53501D01*
X128789Y53729D01*
X129234Y54653D01*
X59608Y97373D02*
X59163Y98297D01*
X58164Y98525D01*
X57363Y97886D01*
Y96861D01*
X58164Y96222D01*
X59163Y96450D01*
X59608Y97373D01*
D14*
X29492Y55000D02*
X28754Y55426D01*
Y54574D01*
X29492Y55000D01*
X202972Y51713D02*
X202234Y52139D01*
Y51286D01*
X202972Y51713D01*
X124214Y46385D02*
X123476Y46811D01*
Y45959D01*
X124214Y46385D01*
X50454Y102196D02*
X49716Y102622D01*
Y101770D01*
X50454Y102196D01*
D15*
X114394Y22000D02*
X113606D01*
X114394D01*
D16*
X66150Y8622D02*
Y11378D01*
X59850Y8622D02*
Y11378D01*
X28768Y33354D02*
X40972D01*
X28768Y52646D02*
X40972D01*
Y33354D02*
Y52646D01*
X28768Y33354D02*
Y52646D01*
X204055Y55650D02*
X235945D01*
X204055Y99350D02*
X235945D01*
X204055Y55650D02*
Y99350D01*
X235945Y55650D02*
Y99350D01*
X176084Y50716D02*
Y102684D01*
X124116Y50716D02*
Y102684D01*
X176084D01*
X124116Y50716D02*
X176084D01*
X54490Y65090D02*
X90710D01*
X54490Y101310D02*
X90710D01*
Y65090D02*
Y101310D01*
X54490Y65090D02*
Y101310D01*
X49949Y8425D02*
Y13543D01*
X56051Y8425D02*
Y13543D01*
X49949Y8425D02*
X56051D01*
D17*
X53000Y9508D02*
D03*
M02*
