M48
;Layer_Color=9474304
;FILE_FORMAT=2:5
INCH,TZ
;TYPE=PLATED
T1F00S00C0.01181
T2F00S00C0.01968
T4F00S00C0.03150
T6F00S00C0.03543
T7F00S00C0.03937
T8F00S00C0.04724
;TYPE=NON_PLATED
T9F00S00C0.03150
T10F00S00C0.10591
%
T01
X161258Y52500
X164867Y53614
X162500Y64000
X161914Y66693
X169132Y64476
X168594Y81342
X174499Y79401
X180000Y85589
X181409Y92637
X171059Y94319
X171128Y102000
X173000Y113000
X176000Y113047
X179000Y113034
X182911
X185000Y108601
X197101
X195000Y103500
X196000Y100500
X205929Y108136
X201003Y122669
X197820Y124881
X179000Y124500
X173000Y123500
X159974Y84088
X195975Y74920
X186500Y64000
X173068Y45689
X219561Y71082
X211500Y93000
X262000Y92500
Y86500
X275000Y76287
X247500Y68000
X251000Y32000
X286461Y13317
X248062Y110942
X247964Y136500
X190000Y159000
X159289Y113047
X150000
X149000Y102500
X146500Y100806
Y96279
X133000Y92000
X119968Y100446
X112500Y112000
X123876Y116061
X96901Y119857
X94000Y111000
X85000Y105499
X75881Y102350
X75000Y95000
X67000Y102350
Y86500
X72002Y81500
X78301
X86504Y91000
X92077Y95821
X102000Y96000
Y83910
X96972Y81646
X104000Y76846
X96972Y66000
X88861Y65361
X83000Y67000
X68146Y66825
X53591Y67290
X58264Y81000
X55756Y85000
X41181Y73526
X39224Y71529
X33231Y47109
X59500Y53000
X64307Y53602
X66342Y48506
X68500Y39500
X74167Y44748
X77000Y55768
X104000Y46000
X114875Y53574
X122804Y69649
X146000Y66264
X121500Y23468
X102252Y15934
X46216Y12000
X52324Y32500
X10314Y32129
X8500Y131000
X25824Y126157
X42586Y135536
X45649Y103740
X65507Y117261
X73000Y116500
X85653Y127875
X85100Y131500
T02
X173524Y19000
X244000Y38000
X220500Y123500
X194071Y111253
X145673Y40460
X121500Y34000
X101000
X104000Y31000
X43500Y34500
X39000Y60000
X40619Y68150
X49939Y73685
X45000Y109105
Y118000
X50500Y114000
X39500Y146293
X85000Y99000
T04
X289000Y59500
Y69500
Y79500
Y89500
Y99500
Y109500
Y119500
X299000Y114500
Y104500
Y94500
Y84500
Y74500
Y64500
Y54500
T06
X210000Y12000
Y22000
Y31000
Y41000
T07
X165100Y141732
Y151732
X175100
Y141732
X185100
Y151732
X195100
Y141732
X205100
Y151732
X215100
Y141732
X225100
Y151732
X235100
Y141732
X155100
X145100
X135100
X125100
X115100
X105100
X95100
X85100
X75100
Y151732
X85100
X95100
X105100
X115100
X125100
X135100
X145100
X155100
T08
X225394Y23658
Y43343
X274606
Y23658
T09
X164961Y23784
X145276
T10
X258092Y148819
X52108
M30
