G04*
G04 #@! TF.GenerationSoftware,Altium Limited,Altium Designer,21.0.8 (223)*
G04*
G04 Layer_Physical_Order=2*
G04 Layer_Color=16711680*
%FSLAX25Y25*%
%MOIN*%
G70*
G04*
G04 #@! TF.SameCoordinates,2EF03790-8CE4-4C01-AD20-2104E620BB3A*
G04*
G04*
G04 #@! TF.FilePolarity,Positive*
G04*
G01*
G75*
%ADD13C,0.00984*%
%ADD16C,0.00787*%
%ADD70C,0.01968*%
%ADD71C,0.01772*%
%ADD72C,0.09843*%
%ADD73C,0.10591*%
%ADD74C,0.07087*%
%ADD75R,0.07087X0.07087*%
%ADD76O,0.05709X0.07874*%
%ADD77O,0.04528X0.07087*%
%ADD78C,0.03150*%
%ADD79O,0.07874X0.05512*%
%ADD80C,0.01968*%
%ADD81C,0.02756*%
%ADD82C,0.05906*%
G36*
X280911Y161667D02*
X284050Y161042D01*
X287114Y160113D01*
X290071Y158888D01*
X292894Y157379D01*
X295556Y155600D01*
X298030Y153570D01*
X300294Y151306D01*
X302325Y148831D01*
X304103Y146170D01*
X305612Y143347D01*
X306837Y140389D01*
X307767Y137326D01*
X308391Y134186D01*
X308705Y131000D01*
X308705Y129400D01*
Y39517D01*
Y37917D01*
X308391Y34731D01*
X307767Y31591D01*
X306837Y28528D01*
X305612Y25571D01*
X304103Y22747D01*
X302325Y20086D01*
X300294Y17611D01*
X298030Y15348D01*
X295556Y13317D01*
X292894Y11539D01*
X290071Y10029D01*
X287114Y8804D01*
X284050Y7875D01*
X280911Y7251D01*
X277725Y6937D01*
X32472D01*
X29286Y7251D01*
X26147Y7875D01*
X23083Y8804D01*
X20126Y10029D01*
X17302Y11538D01*
X14641Y13317D01*
X12166Y15348D01*
X9903Y17611D01*
X7872Y20086D01*
X6094Y22747D01*
X4584Y25571D01*
X3359Y28528D01*
X2430Y31591D01*
X1806Y34731D01*
X1492Y37917D01*
Y39517D01*
X1492Y129263D01*
Y130871D01*
X1807Y134070D01*
X2434Y137223D01*
X3367Y140299D01*
X4597Y143269D01*
X6113Y146104D01*
X7899Y148776D01*
X9938Y151261D01*
X12211Y153534D01*
X14696Y155574D01*
X17369Y157360D01*
X20204Y158875D01*
X23174Y160105D01*
X26250Y161038D01*
X29403Y161665D01*
X32602Y161980D01*
X34209Y161980D01*
X276124Y161980D01*
X277725Y161980D01*
X280911Y161667D01*
D02*
G37*
%LPC*%
G36*
X190500Y160941D02*
Y159500D01*
X191941D01*
X191682Y160124D01*
X191124Y160682D01*
X190500Y160941D01*
D02*
G37*
G36*
X189500D02*
X188876Y160682D01*
X188318Y160124D01*
X188059Y159500D01*
X189500D01*
Y160941D01*
D02*
G37*
G36*
X191941Y158500D02*
X190500D01*
Y157059D01*
X191124Y157318D01*
X191682Y157876D01*
X191941Y158500D01*
D02*
G37*
G36*
X189500D02*
X188059D01*
X188318Y157876D01*
X188876Y157318D01*
X189500Y157059D01*
Y158500D01*
D02*
G37*
G36*
X235698Y156276D02*
X235600D01*
Y152232D01*
X239643D01*
Y152330D01*
X239334Y153486D01*
X238736Y154522D01*
X237890Y155368D01*
X236854Y155966D01*
X235698Y156276D01*
D02*
G37*
G36*
X234600D02*
X234502D01*
X233346Y155966D01*
X232310Y155368D01*
X231465Y154522D01*
X230866Y153486D01*
X230557Y152330D01*
Y152232D01*
X234600D01*
Y156276D01*
D02*
G37*
G36*
X225670Y156063D02*
X224530D01*
X223428Y155768D01*
X222441Y155198D01*
X221635Y154391D01*
X221064Y153404D01*
X220769Y152302D01*
Y151162D01*
X221064Y150061D01*
X221635Y149073D01*
X222441Y148267D01*
X223428Y147697D01*
X224530Y147402D01*
X225670D01*
X226772Y147697D01*
X227759Y148267D01*
X228565Y149073D01*
X229136Y150061D01*
X229431Y151162D01*
Y152302D01*
X229136Y153404D01*
X228565Y154391D01*
X227759Y155198D01*
X226772Y155768D01*
X225670Y156063D01*
D02*
G37*
G36*
X215670D02*
X214530D01*
X213428Y155768D01*
X212441Y155198D01*
X211635Y154391D01*
X211064Y153404D01*
X210769Y152302D01*
Y151162D01*
X211064Y150061D01*
X211635Y149073D01*
X212441Y148267D01*
X213428Y147697D01*
X214530Y147402D01*
X215670D01*
X216772Y147697D01*
X217759Y148267D01*
X218565Y149073D01*
X219136Y150061D01*
X219431Y151162D01*
Y152302D01*
X219136Y153404D01*
X218565Y154391D01*
X217759Y155198D01*
X216772Y155768D01*
X215670Y156063D01*
D02*
G37*
G36*
X205670D02*
X204530D01*
X203428Y155768D01*
X202441Y155198D01*
X201635Y154391D01*
X201064Y153404D01*
X200769Y152302D01*
Y151162D01*
X201064Y150061D01*
X201635Y149073D01*
X202441Y148267D01*
X203428Y147697D01*
X204530Y147402D01*
X205670D01*
X206772Y147697D01*
X207759Y148267D01*
X208565Y149073D01*
X209136Y150061D01*
X209431Y151162D01*
Y152302D01*
X209136Y153404D01*
X208565Y154391D01*
X207759Y155198D01*
X206772Y155768D01*
X205670Y156063D01*
D02*
G37*
G36*
X175670D02*
X174530D01*
X173428Y155768D01*
X172441Y155198D01*
X171635Y154391D01*
X171064Y153404D01*
X170769Y152302D01*
Y151162D01*
X171064Y150061D01*
X171635Y149073D01*
X172441Y148267D01*
X173428Y147697D01*
X174530Y147402D01*
X175670D01*
X176772Y147697D01*
X177759Y148267D01*
X178565Y149073D01*
X179136Y150061D01*
X179431Y151162D01*
Y152302D01*
X179136Y153404D01*
X178565Y154391D01*
X177759Y155198D01*
X176772Y155768D01*
X175670Y156063D01*
D02*
G37*
G36*
X165670D02*
X164530D01*
X163428Y155768D01*
X162441Y155198D01*
X161635Y154391D01*
X161064Y153404D01*
X160769Y152302D01*
Y151162D01*
X161064Y150061D01*
X161635Y149073D01*
X162441Y148267D01*
X163428Y147697D01*
X164530Y147402D01*
X165670D01*
X166772Y147697D01*
X167759Y148267D01*
X168565Y149073D01*
X169136Y150061D01*
X169431Y151162D01*
Y152302D01*
X169136Y153404D01*
X168565Y154391D01*
X167759Y155198D01*
X166772Y155768D01*
X165670Y156063D01*
D02*
G37*
G36*
X155670D02*
X154530D01*
X153428Y155768D01*
X152441Y155198D01*
X151635Y154391D01*
X151064Y153404D01*
X150769Y152302D01*
Y151162D01*
X151064Y150061D01*
X151635Y149073D01*
X152441Y148267D01*
X153428Y147697D01*
X154530Y147402D01*
X155670D01*
X156772Y147697D01*
X157759Y148267D01*
X158565Y149073D01*
X159136Y150061D01*
X159431Y151162D01*
Y152302D01*
X159136Y153404D01*
X158565Y154391D01*
X157759Y155198D01*
X156772Y155768D01*
X155670Y156063D01*
D02*
G37*
G36*
X145670D02*
X144530D01*
X143428Y155768D01*
X142441Y155198D01*
X141635Y154391D01*
X141064Y153404D01*
X140769Y152302D01*
Y151162D01*
X141064Y150061D01*
X141635Y149073D01*
X142441Y148267D01*
X143428Y147697D01*
X144530Y147402D01*
X145670D01*
X146772Y147697D01*
X147759Y148267D01*
X148565Y149073D01*
X149136Y150061D01*
X149431Y151162D01*
Y152302D01*
X149136Y153404D01*
X148565Y154391D01*
X147759Y155198D01*
X146772Y155768D01*
X145670Y156063D01*
D02*
G37*
G36*
X135670D02*
X134530D01*
X133428Y155768D01*
X132441Y155198D01*
X131635Y154391D01*
X131064Y153404D01*
X130769Y152302D01*
Y151162D01*
X131064Y150061D01*
X131635Y149073D01*
X132441Y148267D01*
X133428Y147697D01*
X134530Y147402D01*
X135670D01*
X136772Y147697D01*
X137759Y148267D01*
X138565Y149073D01*
X139136Y150061D01*
X139431Y151162D01*
Y152302D01*
X139136Y153404D01*
X138565Y154391D01*
X137759Y155198D01*
X136772Y155768D01*
X135670Y156063D01*
D02*
G37*
G36*
X125670D02*
X124530D01*
X123428Y155768D01*
X122441Y155198D01*
X121635Y154391D01*
X121064Y153404D01*
X120769Y152302D01*
Y151162D01*
X121064Y150061D01*
X121635Y149073D01*
X122441Y148267D01*
X123428Y147697D01*
X124530Y147402D01*
X125670D01*
X126772Y147697D01*
X127759Y148267D01*
X128565Y149073D01*
X129136Y150061D01*
X129431Y151162D01*
Y152302D01*
X129136Y153404D01*
X128565Y154391D01*
X127759Y155198D01*
X126772Y155768D01*
X125670Y156063D01*
D02*
G37*
G36*
X115670D02*
X114530D01*
X113428Y155768D01*
X112441Y155198D01*
X111635Y154391D01*
X111064Y153404D01*
X110769Y152302D01*
Y151162D01*
X111064Y150061D01*
X111635Y149073D01*
X112441Y148267D01*
X113428Y147697D01*
X114530Y147402D01*
X115670D01*
X116772Y147697D01*
X117759Y148267D01*
X118565Y149073D01*
X119136Y150061D01*
X119431Y151162D01*
Y152302D01*
X119136Y153404D01*
X118565Y154391D01*
X117759Y155198D01*
X116772Y155768D01*
X115670Y156063D01*
D02*
G37*
G36*
X105670D02*
X104530D01*
X103428Y155768D01*
X102441Y155198D01*
X101635Y154391D01*
X101064Y153404D01*
X100769Y152302D01*
Y151162D01*
X101064Y150061D01*
X101635Y149073D01*
X102441Y148267D01*
X103428Y147697D01*
X104530Y147402D01*
X105670D01*
X106772Y147697D01*
X107759Y148267D01*
X108565Y149073D01*
X109136Y150061D01*
X109431Y151162D01*
Y152302D01*
X109136Y153404D01*
X108565Y154391D01*
X107759Y155198D01*
X106772Y155768D01*
X105670Y156063D01*
D02*
G37*
G36*
X95670D02*
X94530D01*
X93428Y155768D01*
X92441Y155198D01*
X91635Y154391D01*
X91064Y153404D01*
X90769Y152302D01*
Y151162D01*
X91064Y150061D01*
X91635Y149073D01*
X92441Y148267D01*
X93428Y147697D01*
X94530Y147402D01*
X95670D01*
X96772Y147697D01*
X97759Y148267D01*
X98565Y149073D01*
X99136Y150061D01*
X99431Y151162D01*
Y152302D01*
X99136Y153404D01*
X98565Y154391D01*
X97759Y155198D01*
X96772Y155768D01*
X95670Y156063D01*
D02*
G37*
G36*
X85670D02*
X84530D01*
X83428Y155768D01*
X82441Y155198D01*
X81635Y154391D01*
X81064Y153404D01*
X80769Y152302D01*
Y151162D01*
X81064Y150061D01*
X81635Y149073D01*
X82441Y148267D01*
X83428Y147697D01*
X84530Y147402D01*
X85670D01*
X86772Y147697D01*
X87759Y148267D01*
X88565Y149073D01*
X89136Y150061D01*
X89431Y151162D01*
Y152302D01*
X89136Y153404D01*
X88565Y154391D01*
X87759Y155198D01*
X86772Y155768D01*
X85670Y156063D01*
D02*
G37*
G36*
X75670D02*
X74530D01*
X73428Y155768D01*
X72441Y155198D01*
X71635Y154391D01*
X71064Y153404D01*
X70769Y152302D01*
Y151162D01*
X71064Y150061D01*
X71635Y149073D01*
X72441Y148267D01*
X73428Y147697D01*
X74530Y147402D01*
X75670D01*
X76772Y147697D01*
X77759Y148267D01*
X78565Y149073D01*
X79136Y150061D01*
X79431Y151162D01*
Y152302D01*
X79136Y153404D01*
X78565Y154391D01*
X77759Y155198D01*
X76772Y155768D01*
X75670Y156063D01*
D02*
G37*
G36*
X239643Y151232D02*
X235600D01*
Y147189D01*
X235698D01*
X236854Y147499D01*
X237890Y148097D01*
X238736Y148943D01*
X239334Y149979D01*
X239643Y151134D01*
Y151232D01*
D02*
G37*
G36*
X234600D02*
X230557D01*
Y151134D01*
X230866Y149979D01*
X231465Y148943D01*
X232310Y148097D01*
X233346Y147499D01*
X234502Y147189D01*
X234600D01*
Y151232D01*
D02*
G37*
G36*
X195670Y156063D02*
X194530D01*
X193428Y155768D01*
X192441Y155198D01*
X191635Y154391D01*
X191064Y153404D01*
X190769Y152302D01*
Y151162D01*
X191064Y150061D01*
X191635Y149073D01*
X192441Y148267D01*
X193428Y147697D01*
X194530Y147402D01*
X195670D01*
X196772Y147697D01*
X197191Y147939D01*
X198796Y146334D01*
Y144868D01*
X198296Y144661D01*
X197759Y145198D01*
X196772Y145768D01*
X195670Y146063D01*
X194530D01*
X193428Y145768D01*
X192441Y145198D01*
X191704Y144461D01*
X191204Y144560D01*
Y146832D01*
X191204Y146832D01*
X191113Y147293D01*
X190851Y147684D01*
X190851Y147684D01*
X188894Y149642D01*
X189136Y150061D01*
X189431Y151162D01*
Y152302D01*
X189136Y153404D01*
X188565Y154391D01*
X187759Y155198D01*
X186772Y155768D01*
X185670Y156063D01*
X184530D01*
X183428Y155768D01*
X182441Y155198D01*
X181635Y154391D01*
X181064Y153404D01*
X180769Y152302D01*
Y151162D01*
X181064Y150061D01*
X181635Y149073D01*
X182441Y148267D01*
X183428Y147697D01*
X184530Y147402D01*
X185670D01*
X186772Y147697D01*
X187191Y147939D01*
X188796Y146334D01*
Y144868D01*
X188296Y144661D01*
X187759Y145198D01*
X186772Y145768D01*
X185670Y146063D01*
X184530D01*
X183428Y145768D01*
X182441Y145198D01*
X181635Y144391D01*
X181064Y143404D01*
X180769Y142302D01*
Y141162D01*
X181064Y140061D01*
X181635Y139073D01*
X182441Y138267D01*
X183428Y137697D01*
X184530Y137402D01*
X185040D01*
X185248Y136902D01*
X174314Y125968D01*
X174053Y125577D01*
X173668Y125371D01*
X173500Y125441D01*
Y123500D01*
Y121559D01*
X173545Y121578D01*
X173961Y121300D01*
Y119634D01*
X173961Y119634D01*
X174053Y119173D01*
X174314Y118782D01*
X174796Y118300D01*
Y114717D01*
X174296Y114510D01*
X174124Y114682D01*
X173500Y114941D01*
Y113000D01*
Y111059D01*
X174124Y111318D01*
X174674Y111868D01*
X174996Y111545D01*
X175648Y111276D01*
X176352D01*
X177004Y111545D01*
X177490Y112032D01*
X177498Y112031D01*
X177996Y111532D01*
X178648Y111263D01*
X179352D01*
X180004Y111532D01*
X180502Y112031D01*
X180685Y112472D01*
X181226D01*
X181409Y112031D01*
X181907Y111532D01*
X182559Y111263D01*
X183263D01*
X183915Y111532D01*
X184413Y112031D01*
X184683Y112682D01*
Y113103D01*
X195748Y124168D01*
X196238Y124070D01*
X196318Y123877D01*
X196816Y123379D01*
X197468Y123109D01*
X198172D01*
X198564Y123271D01*
X198708Y123205D01*
X198748Y123169D01*
X201003D01*
Y122169D01*
X199062D01*
X199321Y121545D01*
X199879Y120986D01*
X200477Y120739D01*
X200668Y120222D01*
X193863Y113418D01*
X193640D01*
X192845Y113088D01*
X192236Y112479D01*
X191906Y111683D01*
Y110822D01*
X192081Y110400D01*
X191747Y109900D01*
X186206D01*
X186004Y110103D01*
X185352Y110372D01*
X184648D01*
X183996Y110103D01*
X183498Y109604D01*
X183228Y108953D01*
Y108248D01*
X183498Y107597D01*
X183996Y107099D01*
X184648Y106829D01*
X185352D01*
X186004Y107099D01*
X186195Y107291D01*
X193365D01*
X194883Y105772D01*
X194676Y105272D01*
X194648D01*
X193996Y105002D01*
X193498Y104504D01*
X193228Y103852D01*
Y103148D01*
X193498Y102496D01*
X193996Y101998D01*
X194026Y101986D01*
X194212Y101368D01*
X194059Y101000D01*
X196000D01*
Y100500D01*
X196500D01*
Y98559D01*
X197124Y98818D01*
X197682Y99376D01*
X197795Y99648D01*
X198384Y99765D01*
X198572Y99577D01*
X198995Y99295D01*
X199495Y99195D01*
X206505D01*
X207005Y99295D01*
X207428Y99577D01*
X220274Y112424D01*
X246084D01*
X246321Y111924D01*
X246121Y111442D01*
X250002D01*
X249803Y111924D01*
X250039Y112424D01*
X270534D01*
X278056Y104902D01*
Y87252D01*
X278155Y86752D01*
X278438Y86329D01*
X281599Y83168D01*
Y79415D01*
X281698Y78916D01*
X281981Y78493D01*
X284567Y75907D01*
X284367Y75425D01*
X284245Y74500D01*
X284367Y73575D01*
X284724Y72713D01*
X285292Y71973D01*
X286032Y71405D01*
X286894Y71048D01*
X287819Y70926D01*
X290181D01*
X291106Y71048D01*
X291968Y71405D01*
X292708Y71973D01*
X293276Y72713D01*
X293633Y73575D01*
X293755Y74500D01*
X293633Y75425D01*
X293276Y76287D01*
X292708Y77027D01*
X291968Y77595D01*
X291106Y77952D01*
X290181Y78074D01*
X287819D01*
X286894Y77952D01*
X286412Y77752D01*
X284208Y79956D01*
Y82652D01*
X284708Y82751D01*
X284724Y82713D01*
X285292Y81973D01*
X286032Y81405D01*
X286894Y81048D01*
X287819Y80926D01*
X290181D01*
X291106Y81048D01*
X291968Y81405D01*
X292708Y81973D01*
X293276Y82713D01*
X293633Y83575D01*
X293755Y84500D01*
X293633Y85425D01*
X293276Y86287D01*
X292708Y87027D01*
X291968Y87595D01*
X291106Y87952D01*
X290181Y88074D01*
X287819D01*
X286894Y87952D01*
X286412Y87752D01*
X282436Y91727D01*
Y101677D01*
X282898Y101869D01*
X283371Y101396D01*
Y97644D01*
X283470Y97145D01*
X283753Y96721D01*
X284567Y95907D01*
X284367Y95425D01*
X284245Y94500D01*
X284367Y93575D01*
X284724Y92713D01*
X285292Y91973D01*
X286032Y91405D01*
X286894Y91048D01*
X287819Y90926D01*
X290181D01*
X291106Y91048D01*
X291968Y91405D01*
X292708Y91973D01*
X293276Y92713D01*
X293633Y93575D01*
X293755Y94500D01*
X293633Y95425D01*
X293276Y96287D01*
X292708Y97027D01*
X291968Y97595D01*
X291106Y97952D01*
X290181Y98074D01*
X287819D01*
X286894Y97952D01*
X286412Y97752D01*
X285980Y98184D01*
Y100885D01*
X286480Y101219D01*
X286894Y101048D01*
X287819Y100926D01*
X290181D01*
X291106Y101048D01*
X291968Y101405D01*
X292708Y101973D01*
X293276Y102713D01*
X293633Y103575D01*
X293755Y104500D01*
X293633Y105425D01*
X293276Y106287D01*
X292708Y107027D01*
X291968Y107595D01*
X291106Y107952D01*
X290181Y108074D01*
X287819D01*
X286894Y107952D01*
X286412Y107752D01*
X274198Y119966D01*
X273775Y120249D01*
X273276Y120348D01*
X216842D01*
X216343Y120249D01*
X215919Y119966D01*
X205862Y109908D01*
X205577D01*
X204926Y109638D01*
X204428Y109140D01*
X204158Y108489D01*
Y107784D01*
X204428Y107133D01*
X204926Y106634D01*
X204969Y106617D01*
X205085Y106093D01*
X204833Y105805D01*
X201742D01*
X198872Y108674D01*
Y108953D01*
X198603Y109604D01*
X198104Y110103D01*
X197453Y110372D01*
X196748D01*
X196559Y110294D01*
X196545Y110303D01*
X196270Y110715D01*
X207248Y121694D01*
X219244D01*
X219273Y121664D01*
X220069Y121335D01*
X220931D01*
X221727Y121664D01*
X221756Y121694D01*
X278071D01*
X284364Y115401D01*
X284245Y114500D01*
X284367Y113575D01*
X284724Y112713D01*
X285292Y111973D01*
X286032Y111405D01*
X286894Y111048D01*
X287819Y110926D01*
X290181D01*
X291106Y111048D01*
X291968Y111405D01*
X292708Y111973D01*
X293276Y112713D01*
X293633Y113575D01*
X293755Y114500D01*
X293633Y115425D01*
X293276Y116287D01*
X292708Y117027D01*
X291968Y117595D01*
X291106Y117952D01*
X290181Y118074D01*
X287819D01*
X286918Y117955D01*
X280096Y124777D01*
X279510Y125169D01*
X278819Y125306D01*
X221756D01*
X221727Y125336D01*
X220931Y125665D01*
X220069D01*
X219273Y125336D01*
X219244Y125306D01*
X206539D01*
X205990Y125855D01*
X205567Y126138D01*
X205068Y126237D01*
X198969D01*
X198824Y126383D01*
X198631Y126463D01*
X198533Y126953D01*
X205951Y134372D01*
X205951Y134372D01*
X206213Y134762D01*
X206304Y135223D01*
X206304Y135223D01*
Y137572D01*
X206772Y137697D01*
X207759Y138267D01*
X208565Y139073D01*
X209136Y140061D01*
X209431Y141162D01*
Y142302D01*
X209136Y143404D01*
X208565Y144391D01*
X207759Y145198D01*
X206772Y145768D01*
X205670Y146063D01*
X204530D01*
X203428Y145768D01*
X202441Y145198D01*
X201704Y144461D01*
X201204Y144560D01*
Y146832D01*
X201204Y146832D01*
X201113Y147293D01*
X200851Y147684D01*
X200851Y147684D01*
X198894Y149642D01*
X199136Y150061D01*
X199431Y151162D01*
Y152302D01*
X199136Y153404D01*
X198565Y154391D01*
X197759Y155198D01*
X196772Y155768D01*
X195670Y156063D01*
D02*
G37*
G36*
X258691Y154902D02*
X257493D01*
X256318Y154668D01*
X255211Y154209D01*
X254215Y153544D01*
X253367Y152696D01*
X252702Y151700D01*
X252243Y150593D01*
X252010Y149418D01*
Y148220D01*
X252243Y147045D01*
X252702Y145938D01*
X253367Y144941D01*
X254215Y144094D01*
X255211Y143429D01*
X256318Y142970D01*
X257493Y142736D01*
X258691D01*
X259866Y142970D01*
X260973Y143429D01*
X261970Y144094D01*
X262817Y144941D01*
X263482Y145938D01*
X263941Y147045D01*
X264175Y148220D01*
Y149418D01*
X263941Y150593D01*
X263482Y151700D01*
X262817Y152696D01*
X261970Y153544D01*
X260973Y154209D01*
X259866Y154668D01*
X258691Y154902D01*
D02*
G37*
G36*
X52707D02*
X51509D01*
X50334Y154668D01*
X49227Y154209D01*
X48230Y153544D01*
X47383Y152696D01*
X46718Y151700D01*
X46259Y150593D01*
X46025Y149418D01*
Y148220D01*
X46259Y147045D01*
X46718Y145938D01*
X47383Y144941D01*
X48230Y144094D01*
X49227Y143429D01*
X50334Y142970D01*
X51509Y142736D01*
X52707D01*
X53882Y142970D01*
X54989Y143429D01*
X55985Y144094D01*
X56833Y144941D01*
X57498Y145938D01*
X57957Y147045D01*
X58191Y148220D01*
Y149418D01*
X57957Y150593D01*
X57498Y151700D01*
X56833Y152696D01*
X55985Y153544D01*
X54989Y154209D01*
X53882Y154668D01*
X52707Y154902D01*
D02*
G37*
G36*
X235670Y146063D02*
X234530D01*
X233428Y145768D01*
X232441Y145198D01*
X231635Y144391D01*
X231064Y143404D01*
X230769Y142302D01*
Y141162D01*
X231064Y140061D01*
X231635Y139073D01*
X232441Y138267D01*
X233428Y137697D01*
X234530Y137402D01*
X235670D01*
X236772Y137697D01*
X237759Y138267D01*
X238565Y139073D01*
X239136Y140061D01*
X239431Y141162D01*
Y142302D01*
X239136Y143404D01*
X238565Y144391D01*
X237759Y145198D01*
X236772Y145768D01*
X235670Y146063D01*
D02*
G37*
G36*
X225670D02*
X224530D01*
X223428Y145768D01*
X222441Y145198D01*
X221635Y144391D01*
X221064Y143404D01*
X220769Y142302D01*
Y141162D01*
X221064Y140061D01*
X221635Y139073D01*
X222441Y138267D01*
X223428Y137697D01*
X224530Y137402D01*
X225670D01*
X226772Y137697D01*
X227759Y138267D01*
X228565Y139073D01*
X229136Y140061D01*
X229431Y141162D01*
Y142302D01*
X229136Y143404D01*
X228565Y144391D01*
X227759Y145198D01*
X226772Y145768D01*
X225670Y146063D01*
D02*
G37*
G36*
X215670D02*
X214530D01*
X213428Y145768D01*
X212441Y145198D01*
X211635Y144391D01*
X211064Y143404D01*
X210769Y142302D01*
Y141162D01*
X211064Y140061D01*
X211635Y139073D01*
X212441Y138267D01*
X213428Y137697D01*
X214530Y137402D01*
X215670D01*
X216772Y137697D01*
X217759Y138267D01*
X218565Y139073D01*
X219136Y140061D01*
X219431Y141162D01*
Y142302D01*
X219136Y143404D01*
X218565Y144391D01*
X217759Y145198D01*
X216772Y145768D01*
X215670Y146063D01*
D02*
G37*
G36*
X175670D02*
X174530D01*
X173428Y145768D01*
X172441Y145198D01*
X171635Y144391D01*
X171064Y143404D01*
X170769Y142302D01*
Y141162D01*
X171064Y140061D01*
X171635Y139073D01*
X172441Y138267D01*
X173428Y137697D01*
X174530Y137402D01*
X175670D01*
X176772Y137697D01*
X177759Y138267D01*
X178565Y139073D01*
X179136Y140061D01*
X179431Y141162D01*
Y142302D01*
X179136Y143404D01*
X178565Y144391D01*
X177759Y145198D01*
X176772Y145768D01*
X175670Y146063D01*
D02*
G37*
G36*
X165670D02*
X164530D01*
X163428Y145768D01*
X162441Y145198D01*
X161635Y144391D01*
X161064Y143404D01*
X160769Y142302D01*
Y141162D01*
X161064Y140061D01*
X161635Y139073D01*
X162441Y138267D01*
X163428Y137697D01*
X164530Y137402D01*
X165670D01*
X166772Y137697D01*
X167759Y138267D01*
X168565Y139073D01*
X169136Y140061D01*
X169431Y141162D01*
Y142302D01*
X169136Y143404D01*
X168565Y144391D01*
X167759Y145198D01*
X166772Y145768D01*
X165670Y146063D01*
D02*
G37*
G36*
X155670D02*
X154530D01*
X153428Y145768D01*
X152441Y145198D01*
X151635Y144391D01*
X151064Y143404D01*
X150769Y142302D01*
Y141162D01*
X151064Y140061D01*
X151635Y139073D01*
X152441Y138267D01*
X153428Y137697D01*
X154530Y137402D01*
X155670D01*
X156772Y137697D01*
X157759Y138267D01*
X158565Y139073D01*
X159136Y140061D01*
X159431Y141162D01*
Y142302D01*
X159136Y143404D01*
X158565Y144391D01*
X157759Y145198D01*
X156772Y145768D01*
X155670Y146063D01*
D02*
G37*
G36*
X145670D02*
X144530D01*
X143428Y145768D01*
X142441Y145198D01*
X141635Y144391D01*
X141064Y143404D01*
X140769Y142302D01*
Y141162D01*
X141064Y140061D01*
X141635Y139073D01*
X142441Y138267D01*
X143428Y137697D01*
X144530Y137402D01*
X145670D01*
X146772Y137697D01*
X147759Y138267D01*
X148565Y139073D01*
X149136Y140061D01*
X149431Y141162D01*
Y142302D01*
X149136Y143404D01*
X148565Y144391D01*
X147759Y145198D01*
X146772Y145768D01*
X145670Y146063D01*
D02*
G37*
G36*
X135670D02*
X134530D01*
X133428Y145768D01*
X132441Y145198D01*
X131635Y144391D01*
X131064Y143404D01*
X130769Y142302D01*
Y141162D01*
X131064Y140061D01*
X131635Y139073D01*
X132441Y138267D01*
X133428Y137697D01*
X134530Y137402D01*
X135670D01*
X136772Y137697D01*
X137759Y138267D01*
X138565Y139073D01*
X139136Y140061D01*
X139431Y141162D01*
Y142302D01*
X139136Y143404D01*
X138565Y144391D01*
X137759Y145198D01*
X136772Y145768D01*
X135670Y146063D01*
D02*
G37*
G36*
X125670D02*
X124530D01*
X123428Y145768D01*
X122441Y145198D01*
X121635Y144391D01*
X121064Y143404D01*
X120769Y142302D01*
Y141162D01*
X121064Y140061D01*
X121635Y139073D01*
X122441Y138267D01*
X123428Y137697D01*
X124530Y137402D01*
X125670D01*
X126772Y137697D01*
X127759Y138267D01*
X128565Y139073D01*
X129136Y140061D01*
X129431Y141162D01*
Y142302D01*
X129136Y143404D01*
X128565Y144391D01*
X127759Y145198D01*
X126772Y145768D01*
X125670Y146063D01*
D02*
G37*
G36*
X115670D02*
X114530D01*
X113428Y145768D01*
X112441Y145198D01*
X111635Y144391D01*
X111064Y143404D01*
X110769Y142302D01*
Y141162D01*
X111064Y140061D01*
X111635Y139073D01*
X112441Y138267D01*
X113428Y137697D01*
X114530Y137402D01*
X115670D01*
X116772Y137697D01*
X117759Y138267D01*
X118565Y139073D01*
X119136Y140061D01*
X119431Y141162D01*
Y142302D01*
X119136Y143404D01*
X118565Y144391D01*
X117759Y145198D01*
X116772Y145768D01*
X115670Y146063D01*
D02*
G37*
G36*
X39931Y148459D02*
X39069D01*
X38273Y148129D01*
X37664Y147520D01*
X37335Y146724D01*
Y145863D01*
X37664Y145067D01*
X38273Y144458D01*
X39069Y144128D01*
X39111D01*
X48516Y134723D01*
X49102Y134331D01*
X49793Y134194D01*
X99368D01*
X100059Y134331D01*
X100645Y134723D01*
X103579Y137656D01*
X104530Y137402D01*
X105670D01*
X106772Y137697D01*
X107759Y138267D01*
X108565Y139073D01*
X109136Y140061D01*
X109431Y141162D01*
Y142302D01*
X109136Y143404D01*
X108565Y144391D01*
X107759Y145198D01*
X106772Y145768D01*
X105670Y146063D01*
X104530D01*
X103428Y145768D01*
X102441Y145198D01*
X101635Y144391D01*
X101064Y143404D01*
X100769Y142302D01*
Y141162D01*
X101024Y140211D01*
X98620Y137806D01*
X97882D01*
X97834Y137986D01*
X97799Y138306D01*
X98565Y139073D01*
X99136Y140061D01*
X99431Y141162D01*
Y142302D01*
X99136Y143404D01*
X98565Y144391D01*
X97759Y145198D01*
X96772Y145768D01*
X95670Y146063D01*
X94530D01*
X93428Y145768D01*
X92441Y145198D01*
X91635Y144391D01*
X91064Y143404D01*
X90769Y142302D01*
Y141162D01*
X91064Y140061D01*
X91635Y139073D01*
X92401Y138306D01*
X92366Y137986D01*
X92317Y137806D01*
X87883D01*
X87834Y137986D01*
X87799Y138306D01*
X88565Y139073D01*
X89136Y140061D01*
X89431Y141162D01*
Y142302D01*
X89136Y143404D01*
X88565Y144391D01*
X87759Y145198D01*
X86772Y145768D01*
X85670Y146063D01*
X84530D01*
X83428Y145768D01*
X82441Y145198D01*
X81635Y144391D01*
X81064Y143404D01*
X80769Y142302D01*
Y141162D01*
X81064Y140061D01*
X81635Y139073D01*
X82401Y138306D01*
X82366Y137986D01*
X82318Y137806D01*
X77882D01*
X77834Y137986D01*
X77799Y138306D01*
X78565Y139073D01*
X79136Y140061D01*
X79431Y141162D01*
Y142302D01*
X79136Y143404D01*
X78565Y144391D01*
X77759Y145198D01*
X76772Y145768D01*
X75670Y146063D01*
X74530D01*
X73428Y145768D01*
X72441Y145198D01*
X71635Y144391D01*
X71064Y143404D01*
X70769Y142302D01*
Y141162D01*
X71064Y140061D01*
X71635Y139073D01*
X72401Y138306D01*
X72366Y137986D01*
X72317Y137806D01*
X50542D01*
X41665Y146683D01*
Y146724D01*
X41336Y147520D01*
X40727Y148129D01*
X39931Y148459D01*
D02*
G37*
G36*
X248464Y138441D02*
Y137000D01*
X249904D01*
X249646Y137624D01*
X249088Y138182D01*
X248464Y138441D01*
D02*
G37*
G36*
X247464D02*
X246840Y138182D01*
X246282Y137624D01*
X246023Y137000D01*
X247464D01*
Y138441D01*
D02*
G37*
G36*
X43086Y137477D02*
Y136036D01*
X44527D01*
X44268Y136660D01*
X43710Y137218D01*
X43086Y137477D01*
D02*
G37*
G36*
X42086D02*
X41462Y137218D01*
X40904Y136660D01*
X40645Y136036D01*
X42086D01*
Y137477D01*
D02*
G37*
G36*
X249904Y136000D02*
X248464D01*
Y134559D01*
X249088Y134818D01*
X249646Y135376D01*
X249904Y136000D01*
D02*
G37*
G36*
X247464D02*
X246023D01*
X246282Y135376D01*
X246840Y134818D01*
X247464Y134559D01*
Y136000D01*
D02*
G37*
G36*
X21151Y149811D02*
X19794D01*
X19695Y149791D01*
X19595D01*
X18264Y149527D01*
X18171Y149488D01*
X18073Y149469D01*
X16819Y148949D01*
X16735Y148893D01*
X16642Y148855D01*
X15514Y148101D01*
X15443Y148030D01*
X15360Y147974D01*
X14400Y147014D01*
X14344Y146931D01*
X14273Y146860D01*
X13519Y145731D01*
X13481Y145639D01*
X13425Y145555D01*
X12905Y144301D01*
X12886Y144203D01*
X12847Y144110D01*
X12583Y142779D01*
Y142679D01*
X12563Y142580D01*
Y141223D01*
X12583Y141124D01*
Y141024D01*
X12847Y139693D01*
X12886Y139600D01*
X12905Y139502D01*
X13425Y138248D01*
X13481Y138164D01*
X13519Y138072D01*
X14273Y136943D01*
X14344Y136872D01*
X14400Y136789D01*
X15360Y135829D01*
X15443Y135773D01*
X15514Y135702D01*
X16643Y134948D01*
X16735Y134910D01*
X16819Y134854D01*
X18073Y134335D01*
X18171Y134315D01*
X18264Y134277D01*
X19595Y134012D01*
X19695D01*
X19794Y133992D01*
X21151D01*
X21249Y134012D01*
X21350D01*
X22681Y134277D01*
X22774Y134315D01*
X22872Y134335D01*
X24126Y134854D01*
X24210Y134910D01*
X24302Y134948D01*
X25431Y135702D01*
X25502Y135773D01*
X25585Y135829D01*
X26545Y136789D01*
X26601Y136872D01*
X26672Y136943D01*
X27426Y138072D01*
X27464Y138164D01*
X27520Y138248D01*
X28039Y139502D01*
X28059Y139600D01*
X28097Y139693D01*
X28362Y141024D01*
Y141124D01*
X28382Y141223D01*
Y142580D01*
X28362Y142679D01*
Y142779D01*
X28097Y144110D01*
X28059Y144203D01*
X28039Y144301D01*
X27520Y145555D01*
X27464Y145639D01*
X27426Y145731D01*
X26672Y146860D01*
X26601Y146931D01*
X26545Y147014D01*
X25585Y147974D01*
X25502Y148030D01*
X25431Y148101D01*
X24302Y148855D01*
X24210Y148893D01*
X24126Y148949D01*
X22872Y149469D01*
X22774Y149488D01*
X22681Y149527D01*
X21350Y149791D01*
X21249D01*
X21151Y149811D01*
D02*
G37*
G36*
X290403Y149810D02*
X289046D01*
X288947Y149791D01*
X288847D01*
X287516Y149526D01*
X287423Y149487D01*
X287325Y149468D01*
X286071Y148948D01*
X285987Y148893D01*
X285894Y148854D01*
X284766Y148100D01*
X284695Y148029D01*
X284612Y147973D01*
X283652Y147014D01*
X283596Y146930D01*
X283525Y146859D01*
X282771Y145731D01*
X282733Y145638D01*
X282677Y145554D01*
X282157Y144301D01*
X282138Y144202D01*
X282099Y144109D01*
X281835Y142778D01*
Y142678D01*
X281815Y142579D01*
Y141222D01*
X281835Y141124D01*
Y141023D01*
X282099Y139692D01*
X282138Y139599D01*
X282157Y139501D01*
X282677Y138247D01*
X282733Y138164D01*
X282771Y138071D01*
X283525Y136942D01*
X283596Y136871D01*
X283652Y136788D01*
X284612Y135828D01*
X284695Y135772D01*
X284766Y135701D01*
X285894Y134947D01*
X285987Y134909D01*
X286071Y134853D01*
X287325Y134334D01*
X287423Y134314D01*
X287516Y134276D01*
X288847Y134011D01*
X288947D01*
X289046Y133991D01*
X290403D01*
X290501Y134011D01*
X290602D01*
X291933Y134276D01*
X292026Y134314D01*
X292124Y134334D01*
X293378Y134853D01*
X293462Y134909D01*
X293554Y134947D01*
X294683Y135701D01*
X294754Y135772D01*
X294837Y135828D01*
X295797Y136788D01*
X295853Y136871D01*
X295924Y136942D01*
X296678Y138071D01*
X296716Y138164D01*
X296772Y138247D01*
X297291Y139501D01*
X297311Y139599D01*
X297349Y139692D01*
X297614Y141023D01*
Y141124D01*
X297634Y141222D01*
Y142579D01*
X297614Y142678D01*
Y142778D01*
X297349Y144109D01*
X297311Y144202D01*
X297291Y144301D01*
X296772Y145554D01*
X296716Y145638D01*
X296678Y145731D01*
X295924Y146859D01*
X295853Y146930D01*
X295797Y147014D01*
X294837Y147973D01*
X294754Y148029D01*
X294683Y148100D01*
X293554Y148854D01*
X293462Y148893D01*
X293378Y148948D01*
X292124Y149468D01*
X292026Y149487D01*
X291933Y149526D01*
X290602Y149791D01*
X290501D01*
X290403Y149810D01*
D02*
G37*
G36*
X44527Y135036D02*
X43086D01*
Y133596D01*
X43710Y133854D01*
X44268Y134412D01*
X44527Y135036D01*
D02*
G37*
G36*
X42086D02*
X40645D01*
X40904Y134412D01*
X41462Y133854D01*
X42086Y133596D01*
Y135036D01*
D02*
G37*
G36*
X9000Y132941D02*
Y131500D01*
X10441D01*
X10182Y132124D01*
X9624Y132682D01*
X9000Y132941D01*
D02*
G37*
G36*
X8000D02*
X7376Y132682D01*
X6818Y132124D01*
X6559Y131500D01*
X8000D01*
Y132941D01*
D02*
G37*
G36*
X10441Y130500D02*
X9000D01*
Y129059D01*
X9624Y129318D01*
X10182Y129876D01*
X10441Y130500D01*
D02*
G37*
G36*
X8000D02*
X6559D01*
X6818Y129876D01*
X7376Y129318D01*
X8000Y129059D01*
Y130500D01*
D02*
G37*
G36*
X26324Y128098D02*
Y126657D01*
X27765D01*
X27506Y127281D01*
X26948Y127840D01*
X26324Y128098D01*
D02*
G37*
G36*
X25324D02*
X24700Y127840D01*
X24142Y127281D01*
X23883Y126657D01*
X25324D01*
Y128098D01*
D02*
G37*
G36*
X27765Y125657D02*
X26324D01*
Y124217D01*
X26948Y124475D01*
X27506Y125033D01*
X27765Y125657D01*
D02*
G37*
G36*
X25324D02*
X23883D01*
X24142Y125033D01*
X24700Y124475D01*
X25324Y124217D01*
Y125657D01*
D02*
G37*
G36*
X172500Y125441D02*
X171876Y125182D01*
X171318Y124624D01*
X171059Y124000D01*
X172500D01*
Y125441D01*
D02*
G37*
G36*
Y123000D02*
X171059D01*
X171318Y122376D01*
X171876Y121818D01*
X172500Y121559D01*
Y123000D01*
D02*
G37*
G36*
X97401Y121798D02*
Y120357D01*
X98842D01*
X98583Y120981D01*
X98025Y121539D01*
X97401Y121798D01*
D02*
G37*
G36*
X96401D02*
X95777Y121539D01*
X95219Y120981D01*
X94960Y120357D01*
X96401D01*
Y121798D01*
D02*
G37*
G36*
X300181Y123288D02*
X299500D01*
Y120000D01*
X303904D01*
X303840Y120481D01*
X303462Y121394D01*
X302860Y122179D01*
X302075Y122781D01*
X301162Y123159D01*
X300181Y123288D01*
D02*
G37*
G36*
X298500D02*
X297819D01*
X296838Y123159D01*
X295925Y122781D01*
X295140Y122179D01*
X294538Y121394D01*
X294160Y120481D01*
X294096Y120000D01*
X298500D01*
Y123288D01*
D02*
G37*
G36*
X98842Y119357D02*
X97401D01*
Y117916D01*
X98025Y118175D01*
X98583Y118733D01*
X98842Y119357D01*
D02*
G37*
G36*
X96401D02*
X94960D01*
X95219Y118733D01*
X95777Y118175D01*
X96401Y117916D01*
Y119357D01*
D02*
G37*
G36*
X73500Y118441D02*
Y117000D01*
X74941D01*
X74682Y117624D01*
X74124Y118182D01*
X73500Y118441D01*
D02*
G37*
G36*
X72500D02*
X71876Y118182D01*
X71318Y117624D01*
X71059Y117000D01*
X72500D01*
Y118441D01*
D02*
G37*
G36*
X124376Y118001D02*
Y116561D01*
X125816D01*
X125558Y117185D01*
X125000Y117743D01*
X124376Y118001D01*
D02*
G37*
G36*
X123376D02*
X122752Y117743D01*
X122193Y117185D01*
X121935Y116561D01*
X123376D01*
Y118001D01*
D02*
G37*
G36*
X303904Y119000D02*
X299500D01*
Y115712D01*
X300181D01*
X301162Y115841D01*
X302075Y116219D01*
X302860Y116821D01*
X303462Y117606D01*
X303840Y118519D01*
X303904Y119000D01*
D02*
G37*
G36*
X298500D02*
X294096D01*
X294160Y118519D01*
X294538Y117606D01*
X295140Y116821D01*
X295925Y116219D01*
X296838Y115841D01*
X297819Y115712D01*
X298500D01*
Y119000D01*
D02*
G37*
G36*
X74941Y116000D02*
X73500D01*
Y114559D01*
X74124Y114818D01*
X74682Y115376D01*
X74941Y116000D01*
D02*
G37*
G36*
X72500D02*
X71059D01*
X71318Y115376D01*
X71876Y114818D01*
X72500Y114559D01*
Y116000D01*
D02*
G37*
G36*
X125816Y115561D02*
X124376D01*
Y114120D01*
X125000Y114378D01*
X125558Y114937D01*
X125816Y115561D01*
D02*
G37*
G36*
X123376D02*
X121935D01*
X122193Y114937D01*
X122752Y114378D01*
X123376Y114120D01*
Y115561D01*
D02*
G37*
G36*
X159789Y114988D02*
Y113547D01*
X161230D01*
X160971Y114171D01*
X160413Y114729D01*
X159789Y114988D01*
D02*
G37*
G36*
X158789D02*
X158165Y114729D01*
X157607Y114171D01*
X157348Y113547D01*
X158789D01*
Y114988D01*
D02*
G37*
G36*
X150500D02*
Y113547D01*
X151941D01*
X151682Y114171D01*
X151124Y114729D01*
X150500Y114988D01*
D02*
G37*
G36*
X149500D02*
X148876Y114729D01*
X148318Y114171D01*
X148059Y113547D01*
X149500D01*
Y114988D01*
D02*
G37*
G36*
X172500Y114941D02*
X171876Y114682D01*
X171318Y114124D01*
X171059Y113500D01*
X172500D01*
Y114941D01*
D02*
G37*
G36*
X45431Y120165D02*
X44569D01*
X43773Y119836D01*
X43644Y119706D01*
X19242D01*
X18589Y119576D01*
X18035Y119206D01*
X6636Y107807D01*
X6266Y107254D01*
X6137Y106601D01*
Y55899D01*
X6266Y55246D01*
X6636Y54693D01*
X45193Y16136D01*
X45746Y15766D01*
X46399Y15637D01*
X94101D01*
X94754Y15766D01*
X95307Y16136D01*
X95965Y16794D01*
X98000D01*
X98653Y16924D01*
X99206Y17294D01*
X114207Y32294D01*
X120144D01*
X120273Y32164D01*
X121069Y31835D01*
X121931D01*
X122727Y32164D01*
X123336Y32773D01*
X123665Y33569D01*
Y34431D01*
X123336Y35227D01*
X122727Y35836D01*
X121931Y36165D01*
X121069D01*
X120273Y35836D01*
X120144Y35706D01*
X113500D01*
X112847Y35576D01*
X112294Y35206D01*
X97293Y20206D01*
X96414D01*
X96223Y20668D01*
X104389Y28835D01*
X104431D01*
X105227Y29164D01*
X105836Y29773D01*
X106165Y30569D01*
Y31431D01*
X105836Y32227D01*
X105227Y32836D01*
X104431Y33165D01*
X103569D01*
X103483Y33130D01*
X103130Y33483D01*
X103165Y33569D01*
Y34431D01*
X102836Y35227D01*
X102227Y35836D01*
X101431Y36165D01*
X100569D01*
X99773Y35836D01*
X99164Y35227D01*
X98835Y34431D01*
Y34389D01*
X89008Y24562D01*
X49492D01*
X42083Y31972D01*
X42366Y32396D01*
X43000Y32133D01*
Y34000D01*
X41133D01*
X41396Y33366D01*
X40972Y33083D01*
X15062Y58992D01*
Y103252D01*
X19109Y107299D01*
X43744D01*
X43773Y107270D01*
X44569Y106940D01*
X45431D01*
X46227Y107270D01*
X46836Y107879D01*
X47165Y108675D01*
Y109536D01*
X46836Y110332D01*
X46227Y110941D01*
X45431Y111270D01*
X44569D01*
X43773Y110941D01*
X43744Y110912D01*
X19119D01*
X18928Y111373D01*
X19748Y112194D01*
X49244D01*
X49273Y112164D01*
X50069Y111835D01*
X50931D01*
X51727Y112164D01*
X52336Y112773D01*
X52665Y113569D01*
Y114431D01*
X52336Y115227D01*
X51727Y115836D01*
X50931Y116165D01*
X50069D01*
X49273Y115836D01*
X49244Y115806D01*
X46569D01*
X46369Y116306D01*
X46836Y116773D01*
X47165Y117569D01*
Y118431D01*
X46836Y119227D01*
X46227Y119836D01*
X45431Y120165D01*
D02*
G37*
G36*
X161230Y112547D02*
X159789D01*
Y111107D01*
X160413Y111365D01*
X160971Y111923D01*
X161230Y112547D01*
D02*
G37*
G36*
X158789D02*
X157348D01*
X157607Y111923D01*
X158165Y111365D01*
X158789Y111107D01*
Y112547D01*
D02*
G37*
G36*
X151941D02*
X150500D01*
Y111107D01*
X151124Y111365D01*
X151682Y111923D01*
X151941Y112547D01*
D02*
G37*
G36*
X149500D02*
X148059D01*
X148318Y111923D01*
X148876Y111365D01*
X149500Y111107D01*
Y112547D01*
D02*
G37*
G36*
X172500Y112500D02*
X171059D01*
X171318Y111876D01*
X171876Y111318D01*
X172500Y111059D01*
Y112500D01*
D02*
G37*
G36*
X300181Y113288D02*
X299500D01*
Y110000D01*
X303904D01*
X303840Y110480D01*
X303462Y111394D01*
X302860Y112179D01*
X302075Y112781D01*
X301162Y113159D01*
X300181Y113288D01*
D02*
G37*
G36*
X298500D02*
X297819D01*
X296838Y113159D01*
X295925Y112781D01*
X295140Y112179D01*
X294538Y111394D01*
X294160Y110480D01*
X294096Y110000D01*
X298500D01*
Y113288D01*
D02*
G37*
G36*
X250002Y110442D02*
X248562D01*
Y109001D01*
X249186Y109260D01*
X249744Y109818D01*
X250002Y110442D01*
D02*
G37*
G36*
X247562D02*
X246121D01*
X246379Y109818D01*
X246938Y109260D01*
X247562Y109001D01*
Y110442D01*
D02*
G37*
G36*
X85500Y107440D02*
Y105999D01*
X86941D01*
X86682Y106623D01*
X86124Y107181D01*
X85500Y107440D01*
D02*
G37*
G36*
X84500D02*
X83876Y107181D01*
X83318Y106623D01*
X83059Y105999D01*
X84500D01*
Y107440D01*
D02*
G37*
G36*
X303904Y109000D02*
X299500D01*
Y105712D01*
X300181D01*
X301162Y105841D01*
X302075Y106219D01*
X302860Y106821D01*
X303462Y107606D01*
X303840Y108519D01*
X303904Y109000D01*
D02*
G37*
G36*
X298500D02*
X294096D01*
X294160Y108519D01*
X294538Y107606D01*
X295140Y106821D01*
X295925Y106219D01*
X296838Y105841D01*
X297819Y105712D01*
X298500D01*
Y109000D01*
D02*
G37*
G36*
X65859Y119033D02*
X65154D01*
X64503Y118763D01*
X64005Y118265D01*
X63735Y117614D01*
Y117193D01*
X58468Y111926D01*
X58207Y111535D01*
X58116Y111075D01*
X58116Y111075D01*
Y110200D01*
X52860Y104944D01*
X46950D01*
X46652Y105242D01*
X46001Y105512D01*
X45296D01*
X44645Y105242D01*
X44147Y104744D01*
X43877Y104093D01*
Y103388D01*
X44147Y102737D01*
X44645Y102238D01*
X45296Y101969D01*
X46001D01*
X46652Y102238D01*
X46950Y102536D01*
X53359D01*
X53359Y102536D01*
X53820Y102628D01*
X54211Y102889D01*
X60172Y108849D01*
X60432Y109240D01*
X60524Y109701D01*
Y110576D01*
X65438Y115490D01*
X65859D01*
X66510Y115759D01*
X67009Y116258D01*
X67278Y116909D01*
Y117614D01*
X67009Y118265D01*
X66510Y118763D01*
X65859Y119033D01*
D02*
G37*
G36*
X86941Y104999D02*
X85500D01*
Y103559D01*
X86124Y103817D01*
X86682Y104375D01*
X86941Y104999D01*
D02*
G37*
G36*
X84500D02*
X83059D01*
X83318Y104375D01*
X83876Y103817D01*
X84500Y103559D01*
Y104999D01*
D02*
G37*
G36*
X76381Y104290D02*
Y102850D01*
X77821D01*
X77563Y103474D01*
X77005Y104032D01*
X76381Y104290D01*
D02*
G37*
G36*
X75381D02*
X74757Y104032D01*
X74199Y103474D01*
X73940Y102850D01*
X75381D01*
Y104290D01*
D02*
G37*
G36*
X67500D02*
Y102850D01*
X68941D01*
X68682Y103474D01*
X68124Y104032D01*
X67500Y104290D01*
D02*
G37*
G36*
X66500D02*
X65876Y104032D01*
X65318Y103474D01*
X65059Y102850D01*
X66500D01*
Y104290D01*
D02*
G37*
G36*
X171628Y103941D02*
Y102500D01*
X173068D01*
X172810Y103124D01*
X172252Y103682D01*
X171628Y103941D01*
D02*
G37*
G36*
X170628D02*
X170004Y103682D01*
X169446Y103124D01*
X169187Y102500D01*
X170628D01*
Y103941D01*
D02*
G37*
G36*
X120468Y102386D02*
Y100946D01*
X121909D01*
X121650Y101570D01*
X121092Y102128D01*
X120468Y102386D01*
D02*
G37*
G36*
X119468D02*
X118844Y102128D01*
X118286Y101570D01*
X118028Y100946D01*
X119468D01*
Y102386D01*
D02*
G37*
G36*
X173068Y101500D02*
X171628D01*
Y100059D01*
X172252Y100318D01*
X172810Y100876D01*
X173068Y101500D01*
D02*
G37*
G36*
X170628D02*
X169187D01*
X169446Y100876D01*
X170004Y100318D01*
X170628Y100059D01*
Y101500D01*
D02*
G37*
G36*
X300181Y103288D02*
X299500D01*
Y100000D01*
X303904D01*
X303840Y100480D01*
X303462Y101394D01*
X302860Y102179D01*
X302075Y102781D01*
X301162Y103159D01*
X300181Y103288D01*
D02*
G37*
G36*
X298500D02*
X297819D01*
X296838Y103159D01*
X295925Y102781D01*
X295140Y102179D01*
X294538Y101394D01*
X294160Y100480D01*
X294096Y100000D01*
X298500D01*
Y103288D01*
D02*
G37*
G36*
X85452Y133272D02*
X84748D01*
X84096Y133002D01*
X83598Y132504D01*
X83328Y131852D01*
Y131148D01*
X83598Y130496D01*
X84096Y129998D01*
X84469Y129843D01*
X84525Y129700D01*
X84544Y129271D01*
X84151Y128878D01*
X83881Y128227D01*
Y127523D01*
X84151Y126871D01*
X84649Y126373D01*
X85300Y126103D01*
X86005D01*
X86656Y126373D01*
X86974Y126691D01*
X120106D01*
X144083Y102714D01*
Y102339D01*
X144083Y102339D01*
X144175Y101878D01*
X144436Y101487D01*
X144739Y101184D01*
X144728Y101159D01*
Y100454D01*
X144998Y99803D01*
X145496Y99304D01*
X146148Y99035D01*
X146852D01*
X147504Y99304D01*
X148002Y99803D01*
X148232Y100359D01*
X148648Y100728D01*
X149352D01*
X150004Y100998D01*
X150502Y101496D01*
X150772Y102148D01*
Y102852D01*
X150502Y103504D01*
X150004Y104002D01*
X149352Y104272D01*
X148931D01*
X120852Y132352D01*
X120461Y132613D01*
X120000Y132704D01*
X120000Y132704D01*
X86401D01*
X86104Y133002D01*
X85452Y133272D01*
D02*
G37*
G36*
X195500Y100000D02*
X194059D01*
X194318Y99376D01*
X194876Y98818D01*
X195500Y98559D01*
Y100000D01*
D02*
G37*
G36*
X121909Y99946D02*
X120468D01*
Y98505D01*
X121092Y98764D01*
X121650Y99322D01*
X121909Y99946D01*
D02*
G37*
G36*
X119468D02*
X118028D01*
X118286Y99322D01*
X118844Y98764D01*
X119468Y98505D01*
Y99946D01*
D02*
G37*
G36*
X94352Y112772D02*
X93648D01*
X92996Y112502D01*
X92498Y112004D01*
X92228Y111352D01*
Y110648D01*
X92498Y109996D01*
X92695Y109799D01*
Y103540D01*
X87627Y98472D01*
X87610Y98476D01*
X87165Y98717D01*
Y99431D01*
X86836Y100227D01*
X86227Y100836D01*
X85431Y101165D01*
X84569D01*
X83773Y100836D01*
X83242Y100305D01*
X77336D01*
X77142Y100805D01*
X77563Y101226D01*
X77821Y101850D01*
X73940D01*
X74199Y101226D01*
X74620Y100805D01*
X74426Y100305D01*
X68455D01*
X68261Y100805D01*
X68682Y101226D01*
X68941Y101850D01*
X65059D01*
X65318Y101226D01*
X65739Y100805D01*
X65545Y100305D01*
X65507D01*
X65007Y100205D01*
X64584Y99923D01*
X61466Y96805D01*
X45522D01*
X45485Y96944D01*
X44993Y97796D01*
X44297Y98493D01*
X43444Y98985D01*
X42492Y99240D01*
X41508D01*
X40556Y98985D01*
X39704Y98493D01*
X39007Y97796D01*
X38515Y96944D01*
X38260Y95992D01*
Y95008D01*
X38515Y94056D01*
X39007Y93204D01*
X39704Y92507D01*
X40556Y92015D01*
X41508Y91760D01*
X42492D01*
X43444Y92015D01*
X44297Y92507D01*
X44993Y93204D01*
X45485Y94056D01*
X45522Y94195D01*
X62007D01*
X62506Y94295D01*
X62929Y94577D01*
X66047Y97695D01*
X80488D01*
X80679Y97233D01*
X77154Y93709D01*
X76730Y93992D01*
X76941Y94500D01*
X75500D01*
Y93059D01*
X76008Y93270D01*
X76291Y92846D01*
X69115Y85669D01*
X68691Y85953D01*
X68772Y86148D01*
Y86852D01*
X68502Y87504D01*
X68004Y88002D01*
X67352Y88272D01*
X66648D01*
X65996Y88002D01*
X65498Y87504D01*
X65228Y86852D01*
Y86573D01*
X60345Y81690D01*
X59855Y81788D01*
X59766Y82004D01*
X59267Y82502D01*
X58616Y82772D01*
X57911D01*
X57260Y82502D01*
X57063Y82305D01*
X47040D01*
X45413Y83932D01*
X45485Y84056D01*
X45740Y85008D01*
Y85992D01*
X45485Y86944D01*
X44993Y87796D01*
X44824Y87966D01*
X45015Y88428D01*
X50483D01*
X53984Y84927D01*
Y84648D01*
X54254Y83996D01*
X54752Y83498D01*
X55404Y83228D01*
X56108D01*
X56760Y83498D01*
X57258Y83996D01*
X57528Y84648D01*
Y85352D01*
X57258Y86004D01*
X56760Y86502D01*
X56108Y86772D01*
X55829D01*
X51946Y90655D01*
X51523Y90938D01*
X51024Y91037D01*
X37232D01*
X36733Y90938D01*
X36310Y90655D01*
X34202Y88547D01*
X33444Y88985D01*
X32492Y89240D01*
X31508D01*
X30556Y88985D01*
X29704Y88493D01*
X29007Y87796D01*
X28515Y86944D01*
X28486Y86835D01*
X27986Y86901D01*
Y89641D01*
X30432Y92087D01*
X30556Y92015D01*
X31508Y91760D01*
X32492D01*
X33444Y92015D01*
X34297Y92507D01*
X34993Y93204D01*
X35485Y94056D01*
X35740Y95008D01*
Y95992D01*
X35485Y96944D01*
X34993Y97796D01*
X34297Y98493D01*
X33444Y98985D01*
X32492Y99240D01*
X31508D01*
X30556Y98985D01*
X29704Y98493D01*
X29007Y97796D01*
X28515Y96944D01*
X28260Y95992D01*
Y95008D01*
X28515Y94056D01*
X28587Y93932D01*
X25759Y91104D01*
X25476Y90680D01*
X25376Y90181D01*
Y88077D01*
X24877Y87913D01*
X24296Y88493D01*
X23444Y88985D01*
X22492Y89240D01*
X21508D01*
X20556Y88985D01*
X19703Y88493D01*
X19007Y87796D01*
X18515Y86944D01*
X18260Y85992D01*
Y85008D01*
X18515Y84056D01*
X19007Y83204D01*
X19703Y82507D01*
X20556Y82015D01*
X21508Y81760D01*
X22492D01*
X23204Y81951D01*
X30077Y75077D01*
X30501Y74795D01*
X31000Y74695D01*
X39206D01*
X39540Y74195D01*
X39409Y73879D01*
Y73301D01*
X38872D01*
X38221Y73031D01*
X37723Y72533D01*
X37453Y71882D01*
Y71177D01*
X37723Y70525D01*
X38221Y70027D01*
X38522Y69902D01*
X38603Y69497D01*
X38252Y68650D01*
X40619D01*
Y68150D01*
X41119D01*
Y65783D01*
X41966Y66134D01*
X42635Y66803D01*
X42757Y67097D01*
X43347Y67214D01*
X43476Y67085D01*
X43476Y67085D01*
X43867Y66824D01*
X43974Y66803D01*
X57728Y53048D01*
Y52648D01*
X57998Y51996D01*
X58496Y51498D01*
X59148Y51228D01*
X59852D01*
X60504Y51498D01*
X61002Y51996D01*
X61272Y52648D01*
Y52920D01*
X61772Y53127D01*
X61922Y52977D01*
X61922Y52977D01*
X62312Y52716D01*
X62773Y52624D01*
X62773Y52624D01*
X62795D01*
X62806Y52599D01*
X63304Y52100D01*
X63955Y51831D01*
X64660D01*
X64853Y51911D01*
X65269Y51633D01*
Y49938D01*
X64840Y49510D01*
X64571Y48859D01*
Y48154D01*
X64840Y47503D01*
X65339Y47004D01*
X65990Y46735D01*
X66695D01*
X67346Y47004D01*
X67844Y47503D01*
X68114Y48154D01*
Y48859D01*
X67844Y49510D01*
X67677Y49677D01*
Y55985D01*
X68139Y56177D01*
X68925Y55390D01*
Y41770D01*
X68427Y41272D01*
X68148D01*
X67496Y41002D01*
X66998Y40504D01*
X66728Y39852D01*
Y39148D01*
X66998Y38496D01*
X67496Y37998D01*
X68148Y37728D01*
X68852D01*
X69504Y37998D01*
X70002Y38496D01*
X70272Y39148D01*
Y39427D01*
X71152Y40307D01*
X71435Y40731D01*
X71535Y41230D01*
Y44882D01*
X71996Y45074D01*
X72395Y44675D01*
Y44396D01*
X72665Y43744D01*
X73163Y43246D01*
X73814Y42976D01*
X74519D01*
X75170Y43246D01*
X75669Y43744D01*
X75939Y44396D01*
Y45100D01*
X75669Y45752D01*
X75170Y46250D01*
X74519Y46520D01*
X74240D01*
X73306Y47454D01*
Y80299D01*
X73504Y80496D01*
X73773Y81148D01*
Y81852D01*
X73504Y82504D01*
X73005Y83002D01*
X72481Y83219D01*
X72288Y83734D01*
X74474Y85920D01*
X74863Y85601D01*
X74795Y85499D01*
X74695Y85000D01*
Y63500D01*
X74795Y63001D01*
X75077Y62577D01*
X96578Y41078D01*
X97001Y40795D01*
X97500Y40695D01*
X106500D01*
X106999Y40795D01*
X107422Y41078D01*
X115922Y49578D01*
X116205Y50001D01*
X116305Y50500D01*
Y52498D01*
X116377Y52570D01*
X116647Y53222D01*
Y53926D01*
X116377Y54577D01*
X115878Y55076D01*
X115227Y55346D01*
X114522D01*
X113871Y55076D01*
X113373Y54577D01*
X113103Y53926D01*
Y53222D01*
X113373Y52570D01*
X113695Y52248D01*
Y51040D01*
X105960Y43305D01*
X98040D01*
X77305Y64040D01*
Y79315D01*
X77720Y79593D01*
X77801Y79559D01*
Y81500D01*
Y83441D01*
X77720Y83407D01*
X77305Y83685D01*
Y84460D01*
X84020Y91175D01*
X84520Y90968D01*
Y90605D01*
X84822Y89876D01*
X85380Y89318D01*
X86004Y89059D01*
Y91000D01*
X86504D01*
Y91500D01*
X88445D01*
X88186Y92124D01*
X87628Y92682D01*
X86898Y92984D01*
X86536D01*
X86329Y93484D01*
X89899Y97054D01*
X90323Y96770D01*
X90136Y96321D01*
X91577D01*
Y97761D01*
X91127Y97575D01*
X90844Y97999D01*
X94923Y102077D01*
X95205Y102501D01*
X95305Y103000D01*
Y109799D01*
X95502Y109996D01*
X95772Y110648D01*
Y111352D01*
X95502Y112004D01*
X95004Y112502D01*
X94352Y112772D01*
D02*
G37*
G36*
X147000Y98219D02*
Y96779D01*
X148441D01*
X148182Y97403D01*
X147624Y97961D01*
X147000Y98219D01*
D02*
G37*
G36*
X146000D02*
X145376Y97961D01*
X144818Y97403D01*
X144559Y96779D01*
X146000D01*
Y98219D01*
D02*
G37*
G36*
X92577Y97761D02*
Y96321D01*
X94017D01*
X93759Y96945D01*
X93201Y97503D01*
X92577Y97761D01*
D02*
G37*
G36*
X22520Y99453D02*
X22500D01*
Y96000D01*
X25953D01*
Y96020D01*
X25683Y97026D01*
X25163Y97927D01*
X24427Y98663D01*
X23526Y99183D01*
X22520Y99453D01*
D02*
G37*
G36*
X21500D02*
X21480D01*
X20474Y99183D01*
X19573Y98663D01*
X18837Y97927D01*
X18317Y97026D01*
X18047Y96020D01*
Y96000D01*
X21500D01*
Y99453D01*
D02*
G37*
G36*
X303904Y99000D02*
X299500D01*
Y95712D01*
X300181D01*
X301162Y95841D01*
X302075Y96219D01*
X302860Y96821D01*
X303462Y97606D01*
X303840Y98519D01*
X303904Y99000D01*
D02*
G37*
G36*
X298500D02*
X294096D01*
X294160Y98519D01*
X294538Y97606D01*
X295140Y96821D01*
X295925Y96219D01*
X296838Y95841D01*
X297819Y95712D01*
X298500D01*
Y99000D01*
D02*
G37*
G36*
X75500Y96941D02*
Y95500D01*
X76941D01*
X76682Y96124D01*
X76124Y96682D01*
X75500Y96941D01*
D02*
G37*
G36*
X74500D02*
X73876Y96682D01*
X73318Y96124D01*
X73059Y95500D01*
X74500D01*
Y96941D01*
D02*
G37*
G36*
X171559Y96260D02*
Y94819D01*
X173000D01*
X172741Y95443D01*
X172183Y96001D01*
X171559Y96260D01*
D02*
G37*
G36*
X170559D02*
X169935Y96001D01*
X169377Y95443D01*
X169119Y94819D01*
X170559D01*
Y96260D01*
D02*
G37*
G36*
X148441Y95779D02*
X147000D01*
Y94338D01*
X147624Y94597D01*
X148182Y95155D01*
X148441Y95779D01*
D02*
G37*
G36*
X146000D02*
X144559D01*
X144818Y95155D01*
X145376Y94597D01*
X146000Y94338D01*
Y95779D01*
D02*
G37*
G36*
X94017Y95321D02*
X92577D01*
Y93880D01*
X93201Y94138D01*
X93759Y94697D01*
X94017Y95321D01*
D02*
G37*
G36*
X91577D02*
X90136D01*
X90395Y94697D01*
X90953Y94138D01*
X91577Y93880D01*
Y95321D01*
D02*
G37*
G36*
X212000Y94941D02*
Y93500D01*
X213441D01*
X213182Y94124D01*
X212624Y94682D01*
X212000Y94941D01*
D02*
G37*
G36*
X211000D02*
X210376Y94682D01*
X209818Y94124D01*
X209559Y93500D01*
X211000D01*
Y94941D01*
D02*
G37*
G36*
X181909Y94578D02*
Y93137D01*
X183350D01*
X183091Y93761D01*
X182533Y94319D01*
X181909Y94578D01*
D02*
G37*
G36*
X180909D02*
X180285Y94319D01*
X179727Y93761D01*
X179469Y93137D01*
X180909D01*
Y94578D01*
D02*
G37*
G36*
X74500Y94500D02*
X73059D01*
X73318Y93876D01*
X73876Y93318D01*
X74500Y93059D01*
Y94500D01*
D02*
G37*
G36*
X262500Y94441D02*
Y93000D01*
X263941D01*
X263682Y93624D01*
X263124Y94182D01*
X262500Y94441D01*
D02*
G37*
G36*
X261500D02*
X260876Y94182D01*
X260318Y93624D01*
X260059Y93000D01*
X261500D01*
Y94441D01*
D02*
G37*
G36*
X133500Y93941D02*
Y92500D01*
X134941D01*
X134682Y93124D01*
X134124Y93682D01*
X133500Y93941D01*
D02*
G37*
G36*
X132500D02*
X131876Y93682D01*
X131318Y93124D01*
X131059Y92500D01*
X132500D01*
Y93941D01*
D02*
G37*
G36*
X173000Y93819D02*
X171559D01*
Y92378D01*
X172183Y92637D01*
X172741Y93195D01*
X173000Y93819D01*
D02*
G37*
G36*
X170559D02*
X169119D01*
X169377Y93195D01*
X169935Y92637D01*
X170559Y92378D01*
Y93819D01*
D02*
G37*
G36*
X25953Y95000D02*
X22500D01*
Y91547D01*
X22520D01*
X23526Y91817D01*
X24427Y92337D01*
X25163Y93073D01*
X25683Y93974D01*
X25953Y94980D01*
Y95000D01*
D02*
G37*
G36*
X21500D02*
X18047D01*
Y94980D01*
X18317Y93974D01*
X18837Y93073D01*
X19573Y92337D01*
X20474Y91817D01*
X21480Y91547D01*
X21500D01*
Y95000D01*
D02*
G37*
G36*
X213441Y92500D02*
X212000D01*
Y91059D01*
X212624Y91318D01*
X213182Y91876D01*
X213441Y92500D01*
D02*
G37*
G36*
X211000D02*
X209559D01*
X209818Y91876D01*
X210376Y91318D01*
X211000Y91059D01*
Y92500D01*
D02*
G37*
G36*
X183350Y92137D02*
X181909D01*
Y90696D01*
X182533Y90955D01*
X183091Y91513D01*
X183350Y92137D01*
D02*
G37*
G36*
X180909D02*
X179469D01*
X179727Y91513D01*
X180285Y90955D01*
X180909Y90696D01*
Y92137D01*
D02*
G37*
G36*
X263941Y92000D02*
X262500D01*
Y90559D01*
X263124Y90818D01*
X263682Y91376D01*
X263941Y92000D01*
D02*
G37*
G36*
X261500D02*
X260059D01*
X260318Y91376D01*
X260876Y90818D01*
X261500Y90559D01*
Y92000D01*
D02*
G37*
G36*
X134941Y91500D02*
X133500D01*
Y90059D01*
X134124Y90318D01*
X134682Y90876D01*
X134941Y91500D01*
D02*
G37*
G36*
X132500D02*
X131059D01*
X131318Y90876D01*
X131876Y90318D01*
X132500Y90059D01*
Y91500D01*
D02*
G37*
G36*
X300181Y93288D02*
X299500D01*
Y90000D01*
X303904D01*
X303840Y90481D01*
X303462Y91394D01*
X302860Y92179D01*
X302075Y92781D01*
X301162Y93159D01*
X300181Y93288D01*
D02*
G37*
G36*
X298500D02*
X297819D01*
X296838Y93159D01*
X295925Y92781D01*
X295140Y92179D01*
X294538Y91394D01*
X294160Y90481D01*
X294096Y90000D01*
X298500D01*
Y93288D01*
D02*
G37*
G36*
X88445Y90500D02*
X87004D01*
Y89059D01*
X87628Y89318D01*
X88186Y89876D01*
X88445Y90500D01*
D02*
G37*
G36*
X180500Y87529D02*
Y86089D01*
X181941D01*
X181682Y86712D01*
X181124Y87271D01*
X180500Y87529D01*
D02*
G37*
G36*
X179500D02*
X178876Y87271D01*
X178318Y86712D01*
X178059Y86089D01*
X179500D01*
Y87529D01*
D02*
G37*
G36*
X303904Y89000D02*
X299500D01*
Y85712D01*
X300181D01*
X301162Y85841D01*
X302075Y86219D01*
X302860Y86821D01*
X303462Y87606D01*
X303840Y88520D01*
X303904Y89000D01*
D02*
G37*
G36*
X298500D02*
X294096D01*
X294160Y88520D01*
X294538Y87606D01*
X295140Y86821D01*
X295925Y86219D01*
X296838Y85841D01*
X297819Y85712D01*
X298500D01*
Y89000D01*
D02*
G37*
G36*
X160474Y86029D02*
Y84588D01*
X161914D01*
X161656Y85212D01*
X161098Y85771D01*
X160474Y86029D01*
D02*
G37*
G36*
X159474D02*
X158850Y85771D01*
X158291Y85212D01*
X158033Y84588D01*
X159474D01*
Y86029D01*
D02*
G37*
G36*
X102500Y85851D02*
Y84410D01*
X103941D01*
X103682Y85034D01*
X103124Y85592D01*
X102500Y85851D01*
D02*
G37*
G36*
X101500D02*
X100876Y85592D01*
X100318Y85034D01*
X100059Y84410D01*
X101500D01*
Y85851D01*
D02*
G37*
G36*
X181941Y85088D02*
X180500D01*
Y83648D01*
X181124Y83906D01*
X181682Y84465D01*
X181941Y85088D01*
D02*
G37*
G36*
X179500D02*
X178059D01*
X178318Y84465D01*
X178876Y83906D01*
X179500Y83648D01*
Y85088D01*
D02*
G37*
G36*
X161914Y83588D02*
X160474D01*
Y82148D01*
X161098Y82406D01*
X161656Y82964D01*
X161914Y83588D01*
D02*
G37*
G36*
X159474D02*
X158033D01*
X158291Y82964D01*
X158850Y82406D01*
X159474Y82148D01*
Y83588D01*
D02*
G37*
G36*
X78801Y83441D02*
Y82000D01*
X80241D01*
X79983Y82624D01*
X79425Y83182D01*
X78801Y83441D01*
D02*
G37*
G36*
X169094Y83283D02*
Y81842D01*
X170535D01*
X170276Y82466D01*
X169718Y83024D01*
X169094Y83283D01*
D02*
G37*
G36*
X168094D02*
X167470Y83024D01*
X166912Y82466D01*
X166653Y81842D01*
X168094D01*
Y83283D01*
D02*
G37*
G36*
X300181Y83288D02*
X299500D01*
Y80000D01*
X303904D01*
X303840Y80480D01*
X303462Y81394D01*
X302860Y82179D01*
X302075Y82781D01*
X301162Y83159D01*
X300181Y83288D01*
D02*
G37*
G36*
X298500D02*
X297819D01*
X296838Y83159D01*
X295925Y82781D01*
X295140Y82179D01*
X294538Y81394D01*
X294160Y80480D01*
X294096Y80000D01*
X298500D01*
Y83288D01*
D02*
G37*
G36*
X174999Y81342D02*
Y79901D01*
X176440D01*
X176181Y80525D01*
X175623Y81084D01*
X174999Y81342D01*
D02*
G37*
G36*
X173999D02*
X173375Y81084D01*
X172817Y80525D01*
X172559Y79901D01*
X173999D01*
Y81342D01*
D02*
G37*
G36*
X80241Y81000D02*
X78801D01*
Y79559D01*
X79425Y79818D01*
X79983Y80376D01*
X80241Y81000D01*
D02*
G37*
G36*
X170535Y80842D02*
X169094D01*
Y79401D01*
X169718Y79660D01*
X170276Y80218D01*
X170535Y80842D01*
D02*
G37*
G36*
X168094D02*
X166653D01*
X166912Y80218D01*
X167470Y79660D01*
X168094Y79401D01*
Y80842D01*
D02*
G37*
G36*
X176440Y78901D02*
X174999D01*
Y77461D01*
X175623Y77719D01*
X176181Y78277D01*
X176440Y78901D01*
D02*
G37*
G36*
X173999D02*
X172559D01*
X172817Y78277D01*
X173375Y77719D01*
X173999Y77461D01*
Y78901D01*
D02*
G37*
G36*
X275500Y78228D02*
Y76787D01*
X276941D01*
X276682Y77411D01*
X276124Y77969D01*
X275500Y78228D01*
D02*
G37*
G36*
X274500D02*
X273876Y77969D01*
X273318Y77411D01*
X273059Y76787D01*
X274500D01*
Y78228D01*
D02*
G37*
G36*
X303904Y79000D02*
X299500D01*
Y75712D01*
X300181D01*
X301162Y75841D01*
X302075Y76219D01*
X302860Y76821D01*
X303462Y77606D01*
X303840Y78519D01*
X303904Y79000D01*
D02*
G37*
G36*
X298500D02*
X294096D01*
X294160Y78519D01*
X294538Y77606D01*
X295140Y76821D01*
X295925Y76219D01*
X296838Y75841D01*
X297819Y75712D01*
X298500D01*
Y79000D01*
D02*
G37*
G36*
X196475Y76861D02*
Y75420D01*
X197915D01*
X197657Y76044D01*
X197099Y76603D01*
X196475Y76861D01*
D02*
G37*
G36*
X195475D02*
X194851Y76603D01*
X194293Y76044D01*
X194034Y75420D01*
X195475D01*
Y76861D01*
D02*
G37*
G36*
X276941Y75787D02*
X275500D01*
Y74346D01*
X276124Y74605D01*
X276682Y75163D01*
X276941Y75787D01*
D02*
G37*
G36*
X274500D02*
X273059D01*
X273318Y75163D01*
X273876Y74605D01*
X274500Y74346D01*
Y75787D01*
D02*
G37*
G36*
X197915Y74420D02*
X196475D01*
Y72980D01*
X197099Y73238D01*
X197657Y73796D01*
X197915Y74420D01*
D02*
G37*
G36*
X195475D02*
X194034D01*
X194293Y73796D01*
X194851Y73238D01*
X195475Y72980D01*
Y74420D01*
D02*
G37*
G36*
X220061Y73023D02*
Y71582D01*
X221502D01*
X221244Y72206D01*
X220685Y72764D01*
X220061Y73023D01*
D02*
G37*
G36*
X219061D02*
X218437Y72764D01*
X217879Y72206D01*
X217621Y71582D01*
X219061D01*
Y73023D01*
D02*
G37*
G36*
X123304Y71590D02*
Y70149D01*
X124745D01*
X124486Y70773D01*
X123928Y71332D01*
X123304Y71590D01*
D02*
G37*
G36*
X122304D02*
X121680Y71332D01*
X121122Y70773D01*
X120864Y70149D01*
X122304D01*
Y71590D01*
D02*
G37*
G36*
X300181Y73288D02*
X299500D01*
Y70000D01*
X303904D01*
X303840Y70481D01*
X303462Y71394D01*
X302860Y72179D01*
X302075Y72781D01*
X301162Y73159D01*
X300181Y73288D01*
D02*
G37*
G36*
X298500D02*
X297819D01*
X296838Y73159D01*
X295925Y72781D01*
X295140Y72179D01*
X294538Y71394D01*
X294160Y70481D01*
X294096Y70000D01*
X298500D01*
Y73288D01*
D02*
G37*
G36*
X221502Y70582D02*
X220061D01*
Y69141D01*
X220685Y69400D01*
X221244Y69958D01*
X221502Y70582D01*
D02*
G37*
G36*
X219061D02*
X217621D01*
X217879Y69958D01*
X218437Y69400D01*
X219061Y69141D01*
Y70582D01*
D02*
G37*
G36*
X124745Y69149D02*
X123304D01*
Y67709D01*
X123928Y67967D01*
X124486Y68525D01*
X124745Y69149D01*
D02*
G37*
G36*
X122304D02*
X120864D01*
X121122Y68525D01*
X121680Y67967D01*
X122304Y67709D01*
Y69149D01*
D02*
G37*
G36*
X83500Y68941D02*
Y67500D01*
X84941D01*
X84682Y68124D01*
X84124Y68682D01*
X83500Y68941D01*
D02*
G37*
G36*
X82500D02*
X81876Y68682D01*
X81318Y68124D01*
X81059Y67500D01*
X82500D01*
Y68941D01*
D02*
G37*
G36*
X146500Y68204D02*
Y66764D01*
X147941D01*
X147682Y67388D01*
X147124Y67946D01*
X146500Y68204D01*
D02*
G37*
G36*
X97472Y67941D02*
Y66500D01*
X98913D01*
X98655Y67124D01*
X98096Y67682D01*
X97472Y67941D01*
D02*
G37*
G36*
X96472D02*
X95848Y67682D01*
X95290Y67124D01*
X95032Y66500D01*
X96472D01*
Y67941D01*
D02*
G37*
G36*
X262352Y88272D02*
X261648D01*
X260996Y88002D01*
X260498Y87504D01*
X260228Y86852D01*
Y86573D01*
X246578Y72922D01*
X246295Y72499D01*
X246195Y72000D01*
Y69201D01*
X245998Y69004D01*
X245728Y68352D01*
Y67648D01*
X245998Y66996D01*
X246496Y66498D01*
X247148Y66228D01*
X247852D01*
X248504Y66498D01*
X249002Y66996D01*
X249272Y67648D01*
Y68352D01*
X249002Y69004D01*
X248805Y69201D01*
Y71460D01*
X262073Y84728D01*
X262352D01*
X263004Y84998D01*
X263502Y85496D01*
X263772Y86148D01*
Y86852D01*
X263502Y87504D01*
X263004Y88002D01*
X262352Y88272D01*
D02*
G37*
G36*
X89361Y67301D02*
Y65861D01*
X90801D01*
X90543Y66485D01*
X89985Y67043D01*
X89361Y67301D01*
D02*
G37*
G36*
X88361D02*
X87737Y67043D01*
X87178Y66485D01*
X86920Y65861D01*
X88361D01*
Y67301D01*
D02*
G37*
G36*
X40119Y67650D02*
X38252D01*
X38603Y66803D01*
X39272Y66134D01*
X40119Y65783D01*
Y67650D01*
D02*
G37*
G36*
X303904Y69000D02*
X299500D01*
Y65712D01*
X300181D01*
X301162Y65841D01*
X302075Y66219D01*
X302860Y66821D01*
X303462Y67606D01*
X303840Y68520D01*
X303904Y69000D01*
D02*
G37*
G36*
X298500D02*
X294096D01*
X294160Y68520D01*
X294538Y67606D01*
X295140Y66821D01*
X295925Y66219D01*
X296838Y65841D01*
X297819Y65712D01*
X298500D01*
Y69000D01*
D02*
G37*
G36*
X84941Y66500D02*
X83500D01*
Y65059D01*
X84124Y65318D01*
X84682Y65876D01*
X84941Y66500D01*
D02*
G37*
G36*
X82500D02*
X81059D01*
X81318Y65876D01*
X81876Y65318D01*
X82500Y65059D01*
Y66500D01*
D02*
G37*
G36*
X169632Y66417D02*
Y64976D01*
X171072D01*
X170814Y65600D01*
X170255Y66158D01*
X169632Y66417D01*
D02*
G37*
G36*
X187000Y65941D02*
Y64500D01*
X188441D01*
X188182Y65124D01*
X187624Y65682D01*
X187000Y65941D01*
D02*
G37*
G36*
X186000D02*
X185376Y65682D01*
X184818Y65124D01*
X184559Y64500D01*
X186000D01*
Y65941D01*
D02*
G37*
G36*
X98913Y65500D02*
X97472D01*
Y64059D01*
X98096Y64318D01*
X98655Y64876D01*
X98913Y65500D01*
D02*
G37*
G36*
X96472D02*
X95032D01*
X95290Y64876D01*
X95848Y64318D01*
X96472Y64059D01*
Y65500D01*
D02*
G37*
G36*
X90801Y64861D02*
X89361D01*
Y63420D01*
X89985Y63678D01*
X90543Y64237D01*
X90801Y64861D01*
D02*
G37*
G36*
X88361D02*
X86920D01*
X87178Y64237D01*
X87737Y63678D01*
X88361Y63420D01*
Y64861D01*
D02*
G37*
G36*
X112852Y113772D02*
X112148D01*
X111496Y113502D01*
X110998Y113004D01*
X110728Y112352D01*
Y111648D01*
X110998Y110996D01*
X111195Y110799D01*
Y95500D01*
X111295Y95001D01*
X111577Y94577D01*
X142791Y63364D01*
X142626Y62822D01*
X142540Y62805D01*
X108423Y96922D01*
X107999Y97205D01*
X107500Y97305D01*
X103201D01*
X103004Y97502D01*
X102352Y97772D01*
X101648D01*
X100996Y97502D01*
X100498Y97004D01*
X100228Y96352D01*
Y95648D01*
X100498Y94996D01*
X100996Y94498D01*
X101648Y94228D01*
X102352D01*
X103004Y94498D01*
X103201Y94695D01*
X106960D01*
X118242Y83413D01*
X118051Y82951D01*
X104200D01*
X103923Y83366D01*
X103941Y83410D01*
X100059D01*
X100077Y83366D01*
X99800Y82951D01*
X98173D01*
X97976Y83148D01*
X97325Y83418D01*
X96620D01*
X95969Y83148D01*
X95470Y82650D01*
X95201Y81998D01*
Y81294D01*
X95470Y80642D01*
X95969Y80144D01*
X96620Y79874D01*
X97325D01*
X97976Y80144D01*
X98173Y80342D01*
X118601D01*
X140408Y58534D01*
X140832Y58251D01*
X141331Y58152D01*
X157957D01*
X158456Y58251D01*
X158879Y58534D01*
X162300Y61955D01*
X162429Y61938D01*
X162609Y61410D01*
X156196Y54997D01*
X155913Y54574D01*
X155814Y54075D01*
Y51576D01*
X155913Y51077D01*
X156196Y50653D01*
X159271Y47578D01*
X159695Y47295D01*
X160194Y47195D01*
X171115D01*
X171337Y46695D01*
X171128Y46189D01*
X175009D01*
X174800Y46695D01*
X175022Y47195D01*
X188135D01*
X188634Y47295D01*
X188880Y47459D01*
X197751D01*
X197943Y46997D01*
X175493Y24547D01*
X175101Y23961D01*
X174964Y23270D01*
Y22995D01*
X173134Y21165D01*
X173093D01*
X172297Y20836D01*
X171688Y20227D01*
X171358Y19431D01*
Y18569D01*
X171688Y17773D01*
X171701Y17761D01*
X171418Y17337D01*
X171226Y17416D01*
X170874Y17462D01*
Y13457D01*
X173666D01*
Y14236D01*
X173554Y15088D01*
X173225Y15882D01*
X172824Y16405D01*
X173030Y16734D01*
X173124Y16835D01*
X173954D01*
X174750Y17164D01*
X175359Y17773D01*
X175689Y18569D01*
Y18611D01*
X178047Y20969D01*
X178439Y21555D01*
X178576Y22246D01*
Y22522D01*
X200748Y44694D01*
X206862D01*
X207069Y44194D01*
X206535Y43659D01*
X205964Y42672D01*
X205669Y41570D01*
Y40430D01*
X205964Y39328D01*
X206535Y38341D01*
X207341Y37535D01*
X208328Y36964D01*
X209430Y36669D01*
X210570D01*
X211672Y36964D01*
X212659Y37535D01*
X213465Y38341D01*
X214036Y39328D01*
X214331Y40430D01*
Y41570D01*
X214036Y42672D01*
X213465Y43659D01*
X213276Y43849D01*
X213440Y44391D01*
X213564Y44416D01*
X216522Y41458D01*
Y40943D01*
X216659Y40252D01*
X217051Y39666D01*
X221994Y34723D01*
X222580Y34331D01*
X223271Y34194D01*
X242000D01*
X242691Y34331D01*
X243277Y34723D01*
X244389Y35835D01*
X244431D01*
X245227Y36164D01*
X245836Y36773D01*
X246165Y37569D01*
Y38431D01*
X245836Y39227D01*
X245227Y39836D01*
X244431Y40165D01*
X243569D01*
X242773Y39836D01*
X242164Y39227D01*
X241835Y38431D01*
Y38389D01*
X241252Y37806D01*
X228222D01*
X228088Y38306D01*
X228899Y38774D01*
X229962Y39837D01*
X230713Y41139D01*
X230954Y42038D01*
X269046D01*
X269287Y41139D01*
X270038Y39837D01*
X271101Y38774D01*
X272403Y38023D01*
X273855Y37634D01*
X275358D01*
X276810Y38023D01*
X278112Y38774D01*
X279174Y39837D01*
X279926Y41139D01*
X280315Y42591D01*
Y44094D01*
X279926Y45546D01*
X279174Y46848D01*
X278112Y47911D01*
X276810Y48662D01*
X275358Y49051D01*
X273855D01*
X272403Y48662D01*
X271101Y47911D01*
X270038Y46848D01*
X269287Y45546D01*
X269046Y44647D01*
X230954D01*
X230713Y45546D01*
X229962Y46848D01*
X228899Y47911D01*
X227597Y48662D01*
X226145Y49051D01*
X224642D01*
X223190Y48662D01*
X223185Y48659D01*
X222159Y49686D01*
X221736Y49969D01*
X221236Y50068D01*
X188399D01*
X187900Y49969D01*
X187653Y49805D01*
X160734D01*
X160353Y50186D01*
X160636Y50609D01*
X160758Y50559D01*
Y52000D01*
X159317D01*
X159367Y51879D01*
X158943Y51596D01*
X158423Y52116D01*
Y53535D01*
X166966Y62077D01*
X167249Y62501D01*
X167306Y62788D01*
X167800Y62969D01*
X167834Y62967D01*
X168008Y62794D01*
X168631Y62535D01*
Y64476D01*
Y66417D01*
X168008Y66158D01*
X167848Y65999D01*
X167348Y66206D01*
Y66413D01*
X167249Y66913D01*
X166966Y67336D01*
X164423Y69879D01*
X163999Y70162D01*
X163500Y70261D01*
X160957D01*
X160458Y70162D01*
X160034Y69879D01*
X154460Y64305D01*
X147554D01*
X147347Y64805D01*
X147682Y65140D01*
X147941Y65764D01*
X146000D01*
Y66264D01*
X145500D01*
Y68204D01*
X144876Y67946D01*
X144318Y67388D01*
X144016Y66659D01*
Y66536D01*
X143516Y66329D01*
X113805Y96040D01*
Y110799D01*
X114002Y110996D01*
X114272Y111648D01*
Y112352D01*
X114002Y113004D01*
X113504Y113502D01*
X112852Y113772D01*
D02*
G37*
G36*
X171072Y63976D02*
X169632D01*
Y62535D01*
X170255Y62794D01*
X170814Y63352D01*
X171072Y63976D01*
D02*
G37*
G36*
X188441Y63500D02*
X187000D01*
Y62059D01*
X187624Y62318D01*
X188182Y62876D01*
X188441Y63500D01*
D02*
G37*
G36*
X186000D02*
X184559D01*
X184818Y62876D01*
X185376Y62318D01*
X186000Y62059D01*
Y63500D01*
D02*
G37*
G36*
X290181Y68074D02*
X287819D01*
X286894Y67952D01*
X286032Y67595D01*
X285292Y67027D01*
X284724Y66287D01*
X284367Y65425D01*
X284245Y64500D01*
X284367Y63575D01*
X284724Y62713D01*
X285292Y61973D01*
X286032Y61405D01*
X286894Y61048D01*
X287819Y60926D01*
X290181D01*
X291106Y61048D01*
X291968Y61405D01*
X292708Y61973D01*
X293276Y62713D01*
X293633Y63575D01*
X293755Y64500D01*
X293633Y65425D01*
X293276Y66287D01*
X292708Y67027D01*
X291968Y67595D01*
X291106Y67952D01*
X290181Y68074D01*
D02*
G37*
G36*
X39500Y62367D02*
Y60500D01*
X41367D01*
X41016Y61347D01*
X40347Y62016D01*
X39500Y62367D01*
D02*
G37*
G36*
X38500D02*
X37653Y62016D01*
X36984Y61347D01*
X36633Y60500D01*
X38500D01*
Y62367D01*
D02*
G37*
G36*
X300181Y63288D02*
X299500D01*
Y60000D01*
X303904D01*
X303840Y60480D01*
X303462Y61394D01*
X302860Y62179D01*
X302075Y62781D01*
X301162Y63159D01*
X300181Y63288D01*
D02*
G37*
G36*
X298500D02*
X297819D01*
X296838Y63159D01*
X295925Y62781D01*
X295140Y62179D01*
X294538Y61394D01*
X294160Y60480D01*
X294096Y60000D01*
X298500D01*
Y63288D01*
D02*
G37*
G36*
X41367Y59500D02*
X39500D01*
Y57633D01*
X40347Y57984D01*
X41016Y58653D01*
X41367Y59500D01*
D02*
G37*
G36*
X38500D02*
X36633D01*
X36984Y58653D01*
X37653Y57984D01*
X38500Y57633D01*
Y59500D01*
D02*
G37*
G36*
X77500Y57708D02*
Y56268D01*
X78941D01*
X78682Y56892D01*
X78124Y57450D01*
X77500Y57708D01*
D02*
G37*
G36*
X76500D02*
X75876Y57450D01*
X75318Y56892D01*
X75059Y56268D01*
X76500D01*
Y57708D01*
D02*
G37*
G36*
X303904Y59000D02*
X299500D01*
Y55712D01*
X300181D01*
X301162Y55841D01*
X302075Y56219D01*
X302860Y56821D01*
X303462Y57606D01*
X303840Y58520D01*
X303904Y59000D01*
D02*
G37*
G36*
X298500D02*
X294096D01*
X294160Y58520D01*
X294538Y57606D01*
X295140Y56821D01*
X295925Y56219D01*
X296838Y55841D01*
X297819Y55712D01*
X298500D01*
Y59000D01*
D02*
G37*
G36*
X164367Y55554D02*
X163743Y55296D01*
X163185Y54738D01*
X162994Y54277D01*
X162421Y54143D01*
X162381Y54182D01*
X161758Y54441D01*
Y52500D01*
Y50559D01*
X162381Y50818D01*
X162940Y51376D01*
X163131Y51837D01*
X163704Y51971D01*
X163743Y51932D01*
X164367Y51673D01*
Y53614D01*
Y55554D01*
D02*
G37*
G36*
X165367D02*
Y54114D01*
X166807D01*
X166549Y54738D01*
X165991Y55296D01*
X165367Y55554D01*
D02*
G37*
G36*
X78941Y55268D02*
X77500D01*
Y53827D01*
X78124Y54086D01*
X78682Y54644D01*
X78941Y55268D01*
D02*
G37*
G36*
X76500D02*
X75059D01*
X75318Y54644D01*
X75876Y54086D01*
X76500Y53827D01*
Y55268D01*
D02*
G37*
G36*
X160758Y54441D02*
X160134Y54182D01*
X159575Y53624D01*
X159317Y53000D01*
X160758D01*
Y54441D01*
D02*
G37*
G36*
X166807Y53114D02*
X165367D01*
Y51673D01*
X165991Y51932D01*
X166549Y52490D01*
X166807Y53114D01*
D02*
G37*
G36*
X290181Y58074D02*
X287819D01*
X286894Y57952D01*
X286032Y57595D01*
X285292Y57027D01*
X284724Y56287D01*
X284367Y55425D01*
X284245Y54500D01*
X284367Y53575D01*
X284724Y52713D01*
X285292Y51973D01*
X286032Y51405D01*
X286894Y51048D01*
X287819Y50926D01*
X290181D01*
X291106Y51048D01*
X291968Y51405D01*
X292708Y51973D01*
X293276Y52713D01*
X293633Y53575D01*
X293755Y54500D01*
X293633Y55425D01*
X293276Y56287D01*
X292708Y57027D01*
X291968Y57595D01*
X291106Y57952D01*
X290181Y58074D01*
D02*
G37*
G36*
X33731Y49050D02*
Y47609D01*
X35172D01*
X34913Y48234D01*
X34355Y48792D01*
X33731Y49050D01*
D02*
G37*
G36*
X32731D02*
X32107Y48792D01*
X31549Y48234D01*
X31290Y47609D01*
X32731D01*
Y49050D01*
D02*
G37*
G36*
X35172Y46610D02*
X33731D01*
Y45169D01*
X34355Y45427D01*
X34913Y45985D01*
X35172Y46610D01*
D02*
G37*
G36*
X32731D02*
X31290D01*
X31549Y45985D01*
X32107Y45427D01*
X32731Y45169D01*
Y46610D01*
D02*
G37*
G36*
X104352Y78618D02*
X103648D01*
X102996Y78348D01*
X102498Y77850D01*
X102228Y77199D01*
Y76494D01*
X102498Y75843D01*
X102695Y75646D01*
Y47201D01*
X102498Y47004D01*
X102228Y46352D01*
Y45648D01*
X102498Y44996D01*
X102996Y44498D01*
X103648Y44228D01*
X104352D01*
X105004Y44498D01*
X105502Y44996D01*
X105772Y45648D01*
Y46352D01*
X105502Y47004D01*
X105305Y47201D01*
Y75646D01*
X105502Y75843D01*
X105772Y76494D01*
Y77199D01*
X105502Y77850D01*
X105004Y78348D01*
X104352Y78618D01*
D02*
G37*
G36*
X175009Y45189D02*
X173568D01*
Y43749D01*
X174193Y44007D01*
X174751Y44565D01*
X175009Y45189D01*
D02*
G37*
G36*
X172569D02*
X171128D01*
X171386Y44565D01*
X171944Y44007D01*
X172569Y43749D01*
Y45189D01*
D02*
G37*
G36*
X146172Y42827D02*
Y40960D01*
X148039D01*
X147688Y41807D01*
X147020Y42476D01*
X146172Y42827D01*
D02*
G37*
G36*
X145173D02*
X144325Y42476D01*
X143657Y41807D01*
X143306Y40960D01*
X145173D01*
Y42827D01*
D02*
G37*
G36*
X148039Y39960D02*
X146172D01*
Y38093D01*
X147020Y38444D01*
X147688Y39113D01*
X148039Y39960D01*
D02*
G37*
G36*
X145173D02*
X143306D01*
X143657Y39113D01*
X144325Y38444D01*
X145173Y38093D01*
Y39960D01*
D02*
G37*
G36*
X44000Y36867D02*
Y35000D01*
X45867D01*
X45516Y35847D01*
X44847Y36516D01*
X44000Y36867D01*
D02*
G37*
G36*
X43000D02*
X42153Y36516D01*
X41484Y35847D01*
X41133Y35000D01*
X43000D01*
Y36867D01*
D02*
G37*
G36*
X52824Y34441D02*
Y33000D01*
X54265D01*
X54006Y33624D01*
X53448Y34182D01*
X52824Y34441D01*
D02*
G37*
G36*
X51824D02*
X51200Y34182D01*
X50642Y33624D01*
X50383Y33000D01*
X51824D01*
Y34441D01*
D02*
G37*
G36*
X10814Y34069D02*
Y32629D01*
X12254D01*
X11996Y33253D01*
X11438Y33811D01*
X10814Y34069D01*
D02*
G37*
G36*
X9814D02*
X9190Y33811D01*
X8631Y33253D01*
X8373Y32629D01*
X9814D01*
Y34069D01*
D02*
G37*
G36*
X251500Y33941D02*
Y32500D01*
X252941D01*
X252682Y33124D01*
X252124Y33682D01*
X251500Y33941D01*
D02*
G37*
G36*
X250500D02*
X249876Y33682D01*
X249318Y33124D01*
X249059Y32500D01*
X250500D01*
Y33941D01*
D02*
G37*
G36*
X45867Y34000D02*
X44000D01*
Y32133D01*
X44847Y32484D01*
X45516Y33153D01*
X45867Y34000D01*
D02*
G37*
G36*
X214543Y35543D02*
X210500D01*
Y31500D01*
X214543D01*
Y35543D01*
D02*
G37*
G36*
X209500D02*
X205457D01*
Y31500D01*
X209500D01*
Y35543D01*
D02*
G37*
G36*
X54265Y32000D02*
X52824D01*
Y30559D01*
X53448Y30818D01*
X54006Y31376D01*
X54265Y32000D01*
D02*
G37*
G36*
X51824D02*
X50383D01*
X50642Y31376D01*
X51200Y30818D01*
X51824Y30559D01*
Y32000D01*
D02*
G37*
G36*
X12254Y31629D02*
X10814D01*
Y30188D01*
X11438Y30446D01*
X11996Y31005D01*
X12254Y31629D01*
D02*
G37*
G36*
X9814D02*
X8373D01*
X8631Y31005D01*
X9190Y30446D01*
X9814Y30188D01*
Y31629D01*
D02*
G37*
G36*
X252941Y31500D02*
X251500D01*
Y30059D01*
X252124Y30318D01*
X252682Y30876D01*
X252941Y31500D01*
D02*
G37*
G36*
X250500D02*
X249059D01*
X249318Y30876D01*
X249876Y30318D01*
X250500Y30059D01*
Y31500D01*
D02*
G37*
G36*
X170283Y32822D02*
Y28417D01*
X173671D01*
Y29000D01*
X173539Y30006D01*
X173150Y30944D01*
X172532Y31749D01*
X171727Y32367D01*
X170790Y32755D01*
X170283Y32822D01*
D02*
G37*
G36*
X169283D02*
X168777Y32755D01*
X167840Y32367D01*
X167034Y31749D01*
X166417Y30944D01*
X166028Y30006D01*
X165896Y29000D01*
Y28417D01*
X169283D01*
Y32822D01*
D02*
G37*
G36*
X140953D02*
Y28417D01*
X144340D01*
Y29000D01*
X144208Y30006D01*
X143819Y30944D01*
X143202Y31749D01*
X142397Y32367D01*
X141459Y32755D01*
X140953Y32822D01*
D02*
G37*
G36*
X139953D02*
X139447Y32755D01*
X138509Y32367D01*
X137704Y31749D01*
X137086Y30944D01*
X136698Y30006D01*
X136565Y29000D01*
Y28417D01*
X139953D01*
Y32822D01*
D02*
G37*
G36*
X169283Y27417D02*
X165896D01*
Y26835D01*
X165953Y26398D01*
X165557Y26093D01*
X165430Y26146D01*
X164491D01*
X163623Y25786D01*
X162958Y25122D01*
X162598Y24253D01*
Y23314D01*
X162958Y22445D01*
X163623Y21781D01*
X164491Y21421D01*
X165430D01*
X166299Y21781D01*
X166963Y22445D01*
X167298Y23253D01*
X167763Y23527D01*
X167840Y23468D01*
X168777Y23079D01*
X169283Y23013D01*
Y27417D01*
D02*
G37*
G36*
X275189Y29579D02*
X275106D01*
Y24158D01*
X280528D01*
Y24241D01*
X280300Y25385D01*
X279854Y26462D01*
X279206Y27432D01*
X278381Y28257D01*
X277411Y28905D01*
X276333Y29351D01*
X275189Y29579D01*
D02*
G37*
G36*
X225977D02*
X225894D01*
Y24158D01*
X231315D01*
Y24241D01*
X231087Y25385D01*
X230641Y26462D01*
X229993Y27432D01*
X229168Y28257D01*
X228199Y28905D01*
X227121Y29351D01*
X225977Y29579D01*
D02*
G37*
G36*
X224894D02*
X224811D01*
X223667Y29351D01*
X222589Y28905D01*
X221619Y28257D01*
X220794Y27432D01*
X220146Y26462D01*
X219700Y25385D01*
X219472Y24241D01*
Y24158D01*
X224894D01*
Y29579D01*
D02*
G37*
G36*
X274106D02*
X274023D01*
X272879Y29351D01*
X271801Y28905D01*
X270832Y28257D01*
X270007Y27432D01*
X269359Y26462D01*
X268913Y25385D01*
X268685Y24241D01*
Y24158D01*
X274106D01*
Y29579D01*
D02*
G37*
G36*
X122000Y25409D02*
Y23968D01*
X123441D01*
X123182Y24592D01*
X122624Y25150D01*
X122000Y25409D01*
D02*
G37*
G36*
X121000D02*
X120376Y25150D01*
X119818Y24592D01*
X119559Y23968D01*
X121000D01*
Y25409D01*
D02*
G37*
G36*
X173671Y27417D02*
X170283D01*
Y23013D01*
X170790Y23079D01*
X171727Y23468D01*
X172532Y24086D01*
X173150Y24891D01*
X173539Y25828D01*
X173671Y26835D01*
Y27417D01*
D02*
G37*
G36*
X139953D02*
X136565D01*
Y26835D01*
X136698Y25828D01*
X137086Y24891D01*
X137704Y24086D01*
X138509Y23468D01*
X139447Y23079D01*
X139953Y23013D01*
Y27417D01*
D02*
G37*
G36*
X214543Y30500D02*
X210000D01*
X205457D01*
Y26457D01*
Y22500D01*
X210000D01*
X214543D01*
Y26457D01*
Y30500D01*
D02*
G37*
G36*
X123441Y22968D02*
X122000D01*
Y21527D01*
X122624Y21786D01*
X123182Y22344D01*
X123441Y22968D01*
D02*
G37*
G36*
X121000D02*
X119559D01*
X119818Y22344D01*
X120376Y21786D01*
X121000Y21527D01*
Y22968D01*
D02*
G37*
G36*
X144340Y27417D02*
X140953D01*
Y23013D01*
X141459Y23079D01*
X142397Y23468D01*
X142473Y23527D01*
X142938Y23253D01*
X143273Y22445D01*
X143938Y21781D01*
X144806Y21421D01*
X145746D01*
X146614Y21781D01*
X147278Y22445D01*
X147638Y23314D01*
Y24253D01*
X147278Y25122D01*
X146614Y25786D01*
X145746Y26146D01*
X144806D01*
X144679Y26093D01*
X144283Y26398D01*
X144340Y26835D01*
Y27417D01*
D02*
G37*
G36*
X290403Y34925D02*
X289046D01*
X288947Y34905D01*
X288847D01*
X287516Y34641D01*
X287423Y34602D01*
X287325Y34583D01*
X286071Y34063D01*
X285987Y34008D01*
X285894Y33969D01*
X284766Y33215D01*
X284695Y33144D01*
X284612Y33088D01*
X283652Y32129D01*
X283596Y32045D01*
X283525Y31974D01*
X282771Y30846D01*
X282733Y30753D01*
X282677Y30670D01*
X282157Y29416D01*
X282138Y29317D01*
X282099Y29224D01*
X281835Y27893D01*
Y27793D01*
X281815Y27694D01*
Y26337D01*
X281835Y26239D01*
Y26138D01*
X282099Y24807D01*
X282138Y24714D01*
X282157Y24616D01*
X282677Y23362D01*
X282733Y23279D01*
X282771Y23186D01*
X283525Y22057D01*
X283596Y21986D01*
X283652Y21903D01*
X284612Y20943D01*
X284695Y20887D01*
X284766Y20816D01*
X285894Y20062D01*
X285987Y20024D01*
X286071Y19968D01*
X287325Y19449D01*
X287423Y19429D01*
X287516Y19391D01*
X288847Y19126D01*
X288947D01*
X289046Y19106D01*
X290403D01*
X290501Y19126D01*
X290602D01*
X291933Y19391D01*
X292026Y19429D01*
X292124Y19449D01*
X293378Y19968D01*
X293462Y20024D01*
X293554Y20062D01*
X294683Y20816D01*
X294754Y20887D01*
X294837Y20943D01*
X295797Y21903D01*
X295853Y21986D01*
X295924Y22057D01*
X296678Y23186D01*
X296716Y23279D01*
X296772Y23362D01*
X297291Y24616D01*
X297311Y24714D01*
X297349Y24807D01*
X297614Y26138D01*
Y26239D01*
X297634Y26337D01*
Y27694D01*
X297614Y27793D01*
Y27893D01*
X297349Y29224D01*
X297311Y29317D01*
X297291Y29416D01*
X296772Y30670D01*
X296716Y30753D01*
X296678Y30846D01*
X295924Y31974D01*
X295853Y32045D01*
X295797Y32129D01*
X294837Y33088D01*
X294754Y33144D01*
X294683Y33215D01*
X293554Y33969D01*
X293462Y34008D01*
X293378Y34063D01*
X292124Y34583D01*
X292026Y34602D01*
X291933Y34641D01*
X290602Y34905D01*
X290501D01*
X290403Y34925D01*
D02*
G37*
G36*
X21151D02*
X19794D01*
X19695Y34905D01*
X19595D01*
X18264Y34641D01*
X18171Y34602D01*
X18073Y34583D01*
X16819Y34063D01*
X16735Y34008D01*
X16642Y33969D01*
X15514Y33215D01*
X15443Y33144D01*
X15360Y33088D01*
X14400Y32129D01*
X14344Y32045D01*
X14273Y31974D01*
X13519Y30846D01*
X13481Y30753D01*
X13425Y30670D01*
X12905Y29416D01*
X12886Y29317D01*
X12847Y29224D01*
X12583Y27893D01*
Y27793D01*
X12563Y27694D01*
Y26337D01*
X12583Y26239D01*
Y26138D01*
X12847Y24807D01*
X12886Y24714D01*
X12905Y24616D01*
X13425Y23362D01*
X13481Y23279D01*
X13519Y23186D01*
X14273Y22057D01*
X14344Y21986D01*
X14400Y21903D01*
X15360Y20943D01*
X15443Y20887D01*
X15514Y20816D01*
X16643Y20062D01*
X16735Y20024D01*
X16819Y19968D01*
X18073Y19449D01*
X18171Y19429D01*
X18264Y19391D01*
X19595Y19126D01*
X19695D01*
X19794Y19106D01*
X21151D01*
X21249Y19126D01*
X21350D01*
X22681Y19391D01*
X22774Y19429D01*
X22872Y19449D01*
X24126Y19968D01*
X24210Y20024D01*
X24302Y20062D01*
X25431Y20816D01*
X25502Y20887D01*
X25585Y20943D01*
X26545Y21903D01*
X26601Y21986D01*
X26672Y22057D01*
X27426Y23186D01*
X27464Y23279D01*
X27520Y23362D01*
X28039Y24616D01*
X28059Y24714D01*
X28097Y24807D01*
X28362Y26138D01*
Y26239D01*
X28382Y26337D01*
Y27694D01*
X28362Y27793D01*
Y27893D01*
X28097Y29224D01*
X28059Y29317D01*
X28039Y29416D01*
X27520Y30670D01*
X27464Y30753D01*
X27426Y30846D01*
X26672Y31974D01*
X26601Y32045D01*
X26545Y32129D01*
X25585Y33088D01*
X25502Y33144D01*
X25431Y33215D01*
X24302Y33969D01*
X24210Y34008D01*
X24126Y34063D01*
X22872Y34583D01*
X22774Y34602D01*
X22681Y34641D01*
X21350Y34905D01*
X21249D01*
X21151Y34925D01*
D02*
G37*
G36*
X280528Y23157D02*
X275106D01*
Y17736D01*
X275189D01*
X276333Y17964D01*
X277411Y18410D01*
X278381Y19058D01*
X279206Y19883D01*
X279854Y20853D01*
X280300Y21930D01*
X280528Y23074D01*
Y23157D01*
D02*
G37*
G36*
X274106D02*
X268685D01*
Y23074D01*
X268913Y21930D01*
X269359Y20853D01*
X270007Y19883D01*
X270832Y19058D01*
X271801Y18410D01*
X272879Y17964D01*
X274023Y17736D01*
X274106D01*
Y23157D01*
D02*
G37*
G36*
X231315D02*
X225894D01*
Y17736D01*
X225977D01*
X227121Y17964D01*
X228199Y18410D01*
X229168Y19058D01*
X229993Y19883D01*
X230641Y20853D01*
X231087Y21930D01*
X231315Y23074D01*
Y23157D01*
D02*
G37*
G36*
X224894D02*
X219472D01*
Y23074D01*
X219700Y21930D01*
X220146Y20853D01*
X220794Y19883D01*
X221619Y19058D01*
X222589Y18410D01*
X223667Y17964D01*
X224811Y17736D01*
X224894D01*
Y23157D01*
D02*
G37*
G36*
X214543Y21500D02*
X210500D01*
Y17457D01*
X214543D01*
Y21500D01*
D02*
G37*
G36*
X209500D02*
X205457D01*
Y17457D01*
X209500D01*
Y21500D01*
D02*
G37*
G36*
X102752Y17874D02*
Y16434D01*
X104193D01*
X103934Y17058D01*
X103376Y17616D01*
X102752Y17874D01*
D02*
G37*
G36*
X101752D02*
X101128Y17616D01*
X100570Y17058D01*
X100311Y16434D01*
X101752D01*
Y17874D01*
D02*
G37*
G36*
X104193Y15434D02*
X102752D01*
Y13993D01*
X103376Y14252D01*
X103934Y14810D01*
X104193Y15434D01*
D02*
G37*
G36*
X101752D02*
X100311D01*
X100570Y14810D01*
X101128Y14252D01*
X101752Y13993D01*
Y15434D01*
D02*
G37*
G36*
X286961Y15258D02*
Y13817D01*
X288402D01*
X288143Y14441D01*
X287585Y14999D01*
X286961Y15258D01*
D02*
G37*
G36*
X285961D02*
X285337Y14999D01*
X284779Y14441D01*
X284520Y13817D01*
X285961D01*
Y15258D01*
D02*
G37*
G36*
X169874Y17462D02*
X169522Y17416D01*
X168728Y17087D01*
X168046Y16564D01*
X167523Y15882D01*
X167194Y15088D01*
X167082Y14236D01*
Y13457D01*
X169874D01*
Y17462D01*
D02*
G37*
G36*
X140362D02*
Y13457D01*
X143154D01*
Y14236D01*
X143042Y15088D01*
X142713Y15882D01*
X142190Y16564D01*
X141508Y17087D01*
X140714Y17416D01*
X140362Y17462D01*
D02*
G37*
G36*
X139362D02*
X139010Y17416D01*
X138216Y17087D01*
X137534Y16564D01*
X137011Y15882D01*
X136682Y15088D01*
X136570Y14236D01*
Y13457D01*
X139362D01*
Y17462D01*
D02*
G37*
G36*
X46716Y13941D02*
Y12500D01*
X48157D01*
X47899Y13124D01*
X47340Y13682D01*
X46716Y13941D01*
D02*
G37*
G36*
X45716D02*
X45092Y13682D01*
X44534Y13124D01*
X44276Y12500D01*
X45716D01*
Y13941D01*
D02*
G37*
G36*
X288402Y12817D02*
X286961D01*
Y11376D01*
X287585Y11635D01*
X288143Y12193D01*
X288402Y12817D01*
D02*
G37*
G36*
X285961D02*
X284520D01*
X284779Y12193D01*
X285337Y11635D01*
X285961Y11376D01*
Y12817D01*
D02*
G37*
G36*
X48157Y11500D02*
X46716D01*
Y10059D01*
X47340Y10318D01*
X47899Y10876D01*
X48157Y11500D01*
D02*
G37*
G36*
X45716D02*
X44276D01*
X44534Y10876D01*
X45092Y10318D01*
X45716Y10059D01*
Y11500D01*
D02*
G37*
G36*
X173666Y12457D02*
X170874D01*
Y8451D01*
X171226Y8497D01*
X172020Y8826D01*
X172702Y9349D01*
X173225Y10031D01*
X173554Y10825D01*
X173666Y11677D01*
Y12457D01*
D02*
G37*
G36*
X169874D02*
X167082D01*
Y11677D01*
X167194Y10825D01*
X167523Y10031D01*
X168046Y9349D01*
X168728Y8826D01*
X169522Y8497D01*
X169874Y8451D01*
Y12457D01*
D02*
G37*
G36*
X143154D02*
X140362D01*
Y8451D01*
X140714Y8497D01*
X141508Y8826D01*
X142190Y9349D01*
X142713Y10031D01*
X143042Y10825D01*
X143154Y11677D01*
Y12457D01*
D02*
G37*
G36*
X139362D02*
X136570D01*
Y11677D01*
X136682Y10825D01*
X137011Y10031D01*
X137534Y9349D01*
X138216Y8826D01*
X139010Y8497D01*
X139362Y8451D01*
Y12457D01*
D02*
G37*
G36*
X210570Y16331D02*
X209430D01*
X208328Y16036D01*
X207341Y15465D01*
X206535Y14659D01*
X205964Y13672D01*
X205669Y12570D01*
Y11430D01*
X205964Y10328D01*
X206535Y9341D01*
X207341Y8535D01*
X208328Y7964D01*
X209430Y7669D01*
X210570D01*
X211672Y7964D01*
X212659Y8535D01*
X213465Y9341D01*
X214036Y10328D01*
X214331Y11430D01*
Y12570D01*
X214036Y13672D01*
X213465Y14659D01*
X212659Y15465D01*
X211672Y16036D01*
X210570Y16331D01*
D02*
G37*
%LPD*%
D13*
X225394Y43343D02*
X274606D01*
X221236Y48764D02*
X225394Y44606D01*
Y43343D02*
Y44606D01*
X112500Y95500D02*
Y112000D01*
Y95500D02*
X145000Y63000D01*
X155000D01*
X160957Y68957D01*
X163500D01*
X166043Y66413D01*
Y63000D02*
Y66413D01*
X157118Y54075D02*
X166043Y63000D01*
X157118Y51576D02*
Y54075D01*
Y51576D02*
X160194Y48500D01*
X188135D01*
X188399Y48764D01*
X221236D01*
X46500Y81000D02*
X58264D01*
X42000Y85500D02*
X46500Y81000D01*
X55756Y85000D02*
X55756D01*
X65507Y99000D02*
X85000D01*
X33000Y85500D02*
X37232Y89732D01*
X51024D01*
X22000Y85000D02*
Y85500D01*
Y85000D02*
X31000Y76000D01*
X42000Y95500D02*
X62007D01*
X62680Y66825D02*
X68146D01*
X26681Y90181D02*
X32000Y95500D01*
X49708Y70158D02*
X59347D01*
X26681Y82824D02*
X31734Y77772D01*
X58272D01*
X43866Y76000D02*
X49708Y70158D01*
X32000Y85500D02*
X33000D01*
X26681Y82824D02*
Y90181D01*
X62007Y95500D02*
X65507Y99000D01*
X59347Y70158D02*
X62680Y66825D01*
X58272Y77772D02*
X67000Y86500D01*
X31000Y76000D02*
X43866D01*
X51024Y89732D02*
X55756Y85000D01*
X115000Y50500D02*
Y53449D01*
X114875Y53574D02*
X115000Y53449D01*
X247500Y72000D02*
X262000Y86500D01*
X247500Y68000D02*
Y72000D01*
X162547Y113047D02*
X173000Y123500D01*
X159383Y113047D02*
X162547D01*
X159336Y113000D02*
X159383Y113047D01*
X156228Y61228D02*
X161693Y66693D01*
X157957Y59457D02*
X162500Y64000D01*
X161693Y66693D02*
X161914D01*
X107500Y96000D02*
X142272Y61228D01*
X119141Y81646D02*
X141331Y59457D01*
X142272Y61228D02*
X156228D01*
X141331Y59457D02*
X157957D01*
X133000Y92000D02*
X137500Y96500D01*
X106500Y42000D02*
X115000Y50500D01*
X97500Y42000D02*
X106500D01*
X76000Y63500D02*
X97500Y42000D01*
X76000Y63500D02*
Y85000D01*
X72002Y46913D02*
Y81500D01*
Y46913D02*
X74167Y44748D01*
X76000Y85000D02*
X94000Y103000D01*
Y111000D01*
X102000Y96000D02*
X107500D01*
X96972Y81646D02*
X119141D01*
X172757Y64000D02*
X186500D01*
X104000Y46000D02*
Y76846D01*
X68500Y39500D02*
X70230Y41230D01*
Y55931D01*
X68146Y58014D02*
X70230Y55931D01*
X68146Y58014D02*
Y66825D01*
X161258Y52500D02*
X172757Y64000D01*
X189925Y110864D02*
X194823Y115763D01*
X173000Y112846D02*
X175075Y110770D01*
X193905Y108595D02*
X200000Y102500D01*
X183849Y110770D02*
X183943Y110864D01*
X185000Y108601D02*
X185006Y108595D01*
X193905D01*
X175075Y110770D02*
X183849D01*
X183943Y110864D02*
X189925D01*
X197871Y124932D02*
X205068D01*
X197820Y124881D02*
X197871Y124932D01*
X205068D02*
X206500Y123500D01*
X194823Y116489D02*
X201003Y122669D01*
X194823Y115763D02*
Y116489D01*
X197101Y108601D02*
X201202Y104500D01*
X205494D01*
X282904Y79415D02*
X287819Y74500D01*
X282904Y79415D02*
Y83708D01*
X287819Y74500D02*
X289000D01*
X279360Y87252D02*
X282904Y83708D01*
X279360Y87252D02*
Y105442D01*
X271074Y113728D02*
X279360Y105442D01*
X282904Y103708D02*
X284675Y101937D01*
Y97644D02*
Y101937D01*
X282904Y103708D02*
Y106910D01*
X284675Y97644D02*
X287819Y94500D01*
X219734Y113728D02*
X271074D01*
X206505Y100500D02*
X219734Y113728D01*
X199495Y100500D02*
X206505D01*
X195000Y103500D02*
X195188Y103312D01*
X196683D01*
X199495Y100500D01*
X196000D02*
X203500Y93000D01*
X200000Y102500D02*
X206000D01*
X203500Y93000D02*
X211500D01*
X205935Y108136D02*
X216842Y119043D01*
X218266Y117272D02*
X272542D01*
X206000Y102500D02*
X219000Y115500D01*
X271808D01*
X205494Y104500D02*
X218266Y117272D01*
X205929Y108136D02*
X205935D01*
X216842Y119043D02*
X273276D01*
X272542Y117272D02*
X282904Y106910D01*
X281132Y91187D02*
X287819Y84500D01*
X281132Y91187D02*
Y106176D01*
X271808Y115500D02*
X281132Y106176D01*
X287819Y94500D02*
X289000D01*
X287819Y84500D02*
X289000D01*
X273276Y119043D02*
X287819Y104500D01*
X137500Y96500D02*
X141756D01*
X141978Y96279D01*
X146500D01*
X287819Y104500D02*
X289000D01*
X254799Y104204D02*
X255451D01*
X248062Y110942D02*
X254799Y104204D01*
X255451D02*
X262000Y97655D01*
X84639Y65361D02*
X88861D01*
X83000Y67000D02*
X84639Y65361D01*
X196080Y74920D02*
X199918Y71082D01*
X195975Y74920D02*
X196080D01*
X199918Y71082D02*
X219561D01*
X262000Y92500D02*
Y97655D01*
D16*
X85653Y127875D02*
X85673Y127895D01*
X120605D01*
X145287Y103213D01*
Y102339D02*
X146500Y101126D01*
Y100806D02*
Y101126D01*
X145287Y102339D02*
Y103213D01*
X53359Y103740D02*
X59320Y109701D01*
X45649Y103740D02*
X53359D01*
X59320Y109701D02*
Y111075D01*
X65507Y117261D01*
X66342Y48506D02*
X66473Y48637D01*
Y56800D01*
X55982Y67290D02*
X66473Y56800D01*
X64082Y53828D02*
X64307Y53602D01*
X62773Y53828D02*
X64082D01*
X43301Y73300D02*
X62773Y53828D01*
X44543Y67936D02*
X59480Y53000D01*
X41181Y73526D02*
X41407Y73300D01*
X43301D01*
X59480Y53000D02*
X59500D01*
X43866Y68398D02*
X44328Y67936D01*
X43866Y68398D02*
Y68521D01*
X44328Y67936D02*
X44543D01*
X41084Y71303D02*
X43866Y68521D01*
X39224Y71529D02*
X39450Y71303D01*
X41084D01*
X53591Y67290D02*
X55982D01*
X120000Y131500D02*
X149000Y102500D01*
X85100Y131500D02*
X120000D01*
X175165Y119634D02*
X176000Y118799D01*
X175165Y119634D02*
Y125116D01*
X190000Y139951D01*
X179000Y124820D02*
X195100Y140920D01*
X179000Y124500D02*
Y124820D01*
X195100Y140920D02*
Y141732D01*
X185100Y151732D02*
X190000Y146832D01*
Y139951D02*
Y146832D01*
X176000Y113047D02*
Y118799D01*
X195100Y151732D02*
X200000Y146832D01*
Y134034D02*
Y146832D01*
X179000Y113034D02*
X200000Y134034D01*
X182911Y113034D02*
X205100Y135223D01*
Y141732D01*
D70*
X225394Y23658D02*
X274606D01*
X276113Y31308D02*
X282906Y38101D01*
X276113Y25164D02*
Y31308D01*
X274606Y23658D02*
X276113Y25164D01*
X282906Y38101D02*
Y45772D01*
X282835Y45843D02*
X282906Y45772D01*
X282835Y45843D02*
Y47000D01*
X265835Y64000D02*
X282835Y47000D01*
X223271Y36000D02*
X242000D01*
X218328Y40943D02*
X223271Y36000D01*
X218328Y40943D02*
Y42207D01*
X214035Y46500D02*
X218328Y42207D01*
X67000Y102350D02*
X75881D01*
X81452D01*
X27000Y100500D02*
X57000D01*
X73000Y116500D01*
X22000Y95500D02*
X27000Y100500D01*
X13256Y58244D02*
Y104000D01*
X10500Y105500D02*
X19000Y114000D01*
X10500Y57000D02*
Y105500D01*
X13256Y104000D02*
X18361Y109105D01*
X19000Y114000D02*
X50500D01*
X18361Y109105D02*
X45000D01*
X145673Y40460D02*
X157241D01*
X167985Y29716D01*
X95847Y116698D02*
X96901D01*
X114500D01*
X85000Y105897D02*
X95011Y115909D01*
X85000Y105499D02*
Y105897D01*
X96901Y116698D02*
Y119857D01*
X73000Y116500D02*
X94420D01*
X95034Y115886D02*
X95847Y116698D01*
X95034Y115886D02*
X97000Y113920D01*
Y88500D02*
Y113920D01*
X94420Y116500D02*
X95034Y115886D01*
X114500Y116698D02*
X133000Y98198D01*
X81452Y102350D02*
X84801Y105698D01*
X159336Y113000D02*
X170732Y101604D01*
X165000Y88500D02*
X170939Y94439D01*
X173000Y96500D02*
Y100128D01*
X170939Y94439D02*
X172779Y96279D01*
X171128Y102000D02*
X173000Y103872D01*
X171128Y102000D02*
X173000Y100128D01*
Y103872D02*
Y113000D01*
X262000Y92500D02*
X265835Y88665D01*
Y64000D02*
Y88665D01*
X176770Y23270D02*
X200000Y46500D01*
X170079Y13252D02*
X170374Y12957D01*
X170079Y13252D02*
Y27622D01*
X173524Y19000D02*
X176770Y22246D01*
Y23270D01*
X169783Y27917D02*
X170079Y27622D01*
X140157Y13252D02*
Y27622D01*
X140453Y27917D01*
X139862Y12957D02*
X140157Y13252D01*
X206500Y123500D02*
X278819D01*
X133000Y92000D02*
Y98198D01*
X136984Y88500D02*
X165000D01*
X133242Y92242D02*
X136984Y88500D01*
X59538Y73538D02*
X85000Y99000D01*
X101590Y83910D02*
X102000D01*
X97000Y88500D02*
X101590Y83910D01*
X172779Y77721D02*
X186500Y64000D01*
X146000Y66264D02*
X146202D01*
X165000Y85062D01*
X40619Y67936D02*
Y68150D01*
X39000Y60000D02*
Y66318D01*
X40619Y67936D01*
X49939Y73685D02*
X50087Y73538D01*
X59538D01*
X78301Y81500D02*
X90000D01*
X97000Y88500D01*
X200000Y46500D02*
X214035D01*
X170374Y12957D02*
X200957D01*
X210000Y22000D01*
X186500Y64000D02*
X265835D01*
X172779Y77721D02*
Y96279D01*
X165000Y85062D02*
Y88500D01*
X174617Y96279D02*
X191779D01*
X172779D02*
X174617D01*
X195975Y74920D01*
X191779Y96279D02*
X196000Y100500D01*
X146500Y96279D02*
X166769D01*
X172779D01*
X150000Y113047D02*
X166769Y96279D01*
X172779D02*
X173000Y96500D01*
X159289Y113047D02*
X159336Y113000D01*
X194253Y111253D02*
X206500Y123500D01*
X194071Y111253D02*
X194253D01*
X287819Y114500D02*
X289000D01*
X278819Y123500D02*
X287819Y114500D01*
X10500Y57000D02*
X47500Y20000D01*
X93000D01*
X48744Y22756D02*
X89756D01*
X13256Y58244D02*
X48744Y22756D01*
X242000Y36000D02*
X244000Y38000D01*
X169783Y27917D02*
Y27988D01*
X168056Y29716D02*
X169783Y27988D01*
X167985Y29716D02*
X168056D01*
X89756Y22756D02*
X101000Y34000D01*
X93000Y20000D02*
X104000Y31000D01*
X49793Y136000D02*
X99368D01*
X39500Y146293D02*
X49793Y136000D01*
X39000Y60000D02*
X43500Y55500D01*
Y34500D02*
Y55500D01*
X99368Y136000D02*
X105100Y141732D01*
D71*
X7842Y106601D02*
X19242Y118000D01*
X7842Y55899D02*
Y106601D01*
X19242Y118000D02*
X45000D01*
X46399Y17343D02*
X94101D01*
X7842Y55899D02*
X46399Y17343D01*
X95258Y18500D02*
X98000D01*
X94101Y17343D02*
X95258Y18500D01*
X98000D02*
X113500Y34000D01*
X121500D01*
D72*
X225394Y43343D02*
D03*
X274606D02*
D03*
X225394Y23658D02*
D03*
X274606D02*
D03*
D73*
X258092Y148819D02*
D03*
X52108D02*
D03*
D74*
X75100Y141732D02*
D03*
Y151732D02*
D03*
X85100Y141732D02*
D03*
Y151732D02*
D03*
X95100Y141732D02*
D03*
Y151732D02*
D03*
X105100Y141732D02*
D03*
Y151732D02*
D03*
X115100Y141732D02*
D03*
Y151732D02*
D03*
X125100Y141732D02*
D03*
Y151732D02*
D03*
X135100Y141732D02*
D03*
Y151732D02*
D03*
X145100Y141732D02*
D03*
Y151732D02*
D03*
X155100Y141732D02*
D03*
Y151732D02*
D03*
X165100Y141732D02*
D03*
Y151732D02*
D03*
X175100Y141732D02*
D03*
Y151732D02*
D03*
X185100Y141732D02*
D03*
Y151732D02*
D03*
X195100Y141732D02*
D03*
Y151732D02*
D03*
X205100Y141732D02*
D03*
Y151732D02*
D03*
X215100Y141732D02*
D03*
Y151732D02*
D03*
X225100Y141732D02*
D03*
Y151732D02*
D03*
X235100Y141732D02*
D03*
Y151732D02*
D03*
X210000Y41000D02*
D03*
Y12000D02*
D03*
D75*
Y31000D02*
D03*
Y22000D02*
D03*
D76*
X140453Y27917D02*
D03*
X169783D02*
D03*
D77*
X139862Y12957D02*
D03*
X170374D02*
D03*
D78*
X145276Y23784D02*
D03*
X164961D02*
D03*
D79*
X299000Y69500D02*
D03*
X289000Y54500D02*
D03*
X299000Y59500D02*
D03*
X289000Y64500D02*
D03*
X299000Y109500D02*
D03*
X289000Y114500D02*
D03*
Y74500D02*
D03*
X299000Y79500D02*
D03*
X289000Y84500D02*
D03*
X299000Y89500D02*
D03*
X289000Y94500D02*
D03*
X299000Y99500D02*
D03*
X289000Y104500D02*
D03*
X299000Y119500D02*
D03*
D80*
X85653Y127875D02*
D03*
X114875Y53574D02*
D03*
X77000Y55768D02*
D03*
X102252Y15934D02*
D03*
X121500Y23468D02*
D03*
X190000Y159000D02*
D03*
X247964Y136500D02*
D03*
X275000Y76287D02*
D03*
X251000Y32000D02*
D03*
X286461Y13317D02*
D03*
X52324Y32500D02*
D03*
X46216Y12000D02*
D03*
X33231Y47109D02*
D03*
X10314Y32129D02*
D03*
X42586Y135536D02*
D03*
X25824Y126157D02*
D03*
X8500Y131000D02*
D03*
X119968Y100446D02*
D03*
X123876Y116061D02*
D03*
X96901Y119857D02*
D03*
X92077Y95821D02*
D03*
X85000Y105499D02*
D03*
X75881Y102350D02*
D03*
X75000Y95000D02*
D03*
X86504Y91000D02*
D03*
X96972Y66000D02*
D03*
X122804Y69649D02*
D03*
X173068Y45689D02*
D03*
X164867Y53614D02*
D03*
X169132Y64476D02*
D03*
X159974Y84088D02*
D03*
X171128Y102000D02*
D03*
X168594Y81342D02*
D03*
X171059Y94319D02*
D03*
X181409Y92637D02*
D03*
X180000Y85589D02*
D03*
X174499Y79401D02*
D03*
X173000Y123500D02*
D03*
X161914Y66693D02*
D03*
X162500Y64000D02*
D03*
X112500Y112000D02*
D03*
X72002Y81500D02*
D03*
X94000Y111000D02*
D03*
X102000Y96000D02*
D03*
X96972Y81646D02*
D03*
X102000Y83910D02*
D03*
X186500Y64000D02*
D03*
X146000Y66264D02*
D03*
X104000Y46000D02*
D03*
Y76846D02*
D03*
X66342Y48506D02*
D03*
X64307Y53602D02*
D03*
X59500Y53000D02*
D03*
X39224Y71529D02*
D03*
X41181Y73526D02*
D03*
X65507Y117261D02*
D03*
X45649Y103740D02*
D03*
X55756Y85000D02*
D03*
X53591Y67290D02*
D03*
X68500Y39500D02*
D03*
X68146Y66825D02*
D03*
X58264Y81000D02*
D03*
X74167Y44748D02*
D03*
X78301Y81500D02*
D03*
X161258Y52500D02*
D03*
X67000Y86500D02*
D03*
X150000Y113047D02*
D03*
X185000Y108601D02*
D03*
X197820Y124881D02*
D03*
X201003Y122669D02*
D03*
X197101Y108601D02*
D03*
X196000Y100500D02*
D03*
X195000Y103500D02*
D03*
X205929Y108136D02*
D03*
X149000Y102500D02*
D03*
X146500Y96279D02*
D03*
Y100806D02*
D03*
X248062Y110942D02*
D03*
X73000Y116500D02*
D03*
X67000Y102350D02*
D03*
X83000Y67000D02*
D03*
X88861Y65361D02*
D03*
X85100Y131500D02*
D03*
X133000Y92000D02*
D03*
X159289Y113047D02*
D03*
X179000Y124500D02*
D03*
X176000Y113047D02*
D03*
X179000Y113034D02*
D03*
X182911D02*
D03*
X173000Y113000D02*
D03*
X211500Y93000D02*
D03*
X195975Y74920D02*
D03*
X219561Y71082D02*
D03*
X262000Y92500D02*
D03*
Y86500D02*
D03*
X247500Y68000D02*
D03*
D81*
X50500Y114000D02*
D03*
X45000Y118000D02*
D03*
Y109105D02*
D03*
X145673Y40460D02*
D03*
X173524Y19000D02*
D03*
X220500Y123500D02*
D03*
X85000Y99000D02*
D03*
X40619Y68150D02*
D03*
X49939Y73685D02*
D03*
X194071Y111253D02*
D03*
X121500Y34000D02*
D03*
X244000Y38000D02*
D03*
X101000Y34000D02*
D03*
X104000Y31000D02*
D03*
X39500Y146293D02*
D03*
X43500Y34500D02*
D03*
X39000Y60000D02*
D03*
D82*
X22000Y95500D02*
D03*
X32000D02*
D03*
X42000D02*
D03*
X22000Y85500D02*
D03*
X32000D02*
D03*
X42000D02*
D03*
M02*
